{"glyphs":{"0":{"ha":929,"x_min":0,"x_max":0,"o":"m 471 -14 b 56 496 235 -14 56 181 b 464 1000 56 806 207 1000 b 875 490 699 1000 875 794 b 471 -14 875 175 700 -14 m 496 54 b 710 415 617 54 710 189 b 438 929 710 681 597 929 b 221 557 313 929 221 792 b 496 54 221 283 333 54 "},"1":{"ha":435,"x_min":0,"x_max":0,"o":"m 104 0 b 76 19 85 0 76 7 l 76 24 b 146 125 76 54 146 65 l 146 779 b 54 868 146 864 54 822 l 54 874 b 86 906 54 888 65 896 l 256 981 b 333 953 304 1001 333 981 b 300 846 333 919 300 914 l 300 125 b 374 24 300 65 374 54 l 374 19 b 346 0 374 7 364 0 l 104 0 "},"2":{"ha":815,"x_min":0,"x_max":0,"o":"m 754 235 b 776 207 769 235 781 224 l 736 31 b 701 0 731 14 719 0 l 76 0 b 46 28 60 0 46 11 l 46 42 b 554 750 46 328 554 496 b 404 931 554 864 474 931 b 140 685 229 931 257 685 b 56 765 92 685 56 714 b 396 1000 56 871 190 1000 b 719 736 583 1000 719 914 b 186 119 719 449 239 339 l 608 119 b 742 235 699 119 704 235 l 754 235 "},"3":{"ha":788,"x_min":0,"x_max":0,"o":"m 411 568 b 736 289 606 565 736 453 b 371 -14 736 122 603 -14 b 44 169 143 -14 44 93 b 119 254 44 221 72 254 b 378 56 224 254 208 56 b 571 256 492 56 571 133 b 357 492 571 410 478 492 l 338 492 b 310 550 303 492 288 522 l 542 843 l 94 843 b 60 876 74 843 60 854 l 60 956 b 93 986 60 976 72 986 l 699 986 b 729 960 718 986 729 976 l 729 944 b 704 893 729 926 724 915 l 411 568 "},"4":{"ha":794,"x_min":0,"x_max":0,"o":"m 740 311 b 764 290 754 311 764 303 l 764 256 b 740 235 764 243 754 235 l 638 235 l 638 118 b 697 24 638 58 697 54 l 697 19 b 669 0 697 7 688 0 l 442 0 b 414 19 424 0 414 7 l 414 24 b 469 118 414 54 469 58 l 469 235 l 53 235 b 7 272 24 235 7 249 l 7 278 b 24 335 7 300 11 317 l 436 940 b 513 986 457 972 478 986 l 610 986 b 638 957 628 986 638 975 l 638 311 l 740 311 m 469 311 l 471 851 l 100 311 "},"5":{"ha":790,"x_min":0,"x_max":0,"o":"m 417 619 b 744 319 593 619 744 503 b 379 -14 744 128 601 -14 b 43 172 151 -14 43 86 b 125 251 43 231 85 251 b 381 61 221 251 201 61 b 579 286 493 61 579 143 b 368 546 579 450 501 546 b 182 478 297 546 244 521 b 93 518 146 449 88 475 l 150 964 b 178 986 151 979 163 986 l 690 986 b 714 961 706 986 714 978 l 714 878 b 690 853 714 863 706 853 l 229 853 l 169 546 b 417 619 231 593 318 619 "},"6":{"ha":831,"x_min":0,"x_max":0,"o":"m 454 636 b 772 297 626 636 772 522 b 428 -14 772 117 621 -14 b 56 478 215 -14 56 183 b 447 1000 56 756 185 1000 b 767 779 661 1000 767 869 b 686 699 767 722 729 699 b 436 931 556 699 593 929 b 222 539 313 931 231 781 b 454 636 278 600 365 636 m 447 56 b 610 263 544 56 610 136 b 407 567 610 432 529 567 b 225 401 308 567 233 486 b 447 56 243 190 325 56 "},"7":{"ha":725,"x_min":0,"x_max":0,"o":"m 688 986 b 717 961 707 986 717 976 l 717 946 b 700 888 717 938 710 911 l 350 29 b 307 0 343 10 326 0 l 207 0 b 179 42 181 0 171 25 l 600 857 l 182 857 b 57 732 111 857 106 732 l 42 732 b 17 764 25 732 14 743 l 46 950 b 86 986 50 974 60 986 l 688 986 "},"8":{"ha":835,"x_min":0,"x_max":0,"o":"m 564 528 b 786 261 681 475 786 408 b 415 -14 786 75 624 -14 b 49 233 167 -14 49 111 b 288 499 49 386 189 458 b 92 743 182 551 92 618 b 426 999 92 899 219 999 b 740 756 638 999 740 883 b 564 528 740 633 647 567 m 418 933 b 247 786 317 933 247 871 b 460 571 247 671 346 619 b 601 779 521 607 601 681 b 418 933 601 858 531 933 m 433 56 b 631 214 549 56 631 119 b 363 464 631 349 496 404 b 197 233 282 421 197 335 b 433 56 197 126 293 56 "},"9":{"ha":824,"x_min":0,"x_max":0,"o":"m 397 1000 b 768 508 625 1000 768 803 b 390 -14 768 194 636 -14 b 72 207 192 -14 72 100 b 154 286 72 257 108 286 b 401 56 274 286 239 56 b 603 461 542 56 599 229 b 372 361 557 399 479 361 b 54 692 199 361 54 472 b 397 1000 54 865 193 1000 m 419 431 b 596 611 529 431 596 508 b 369 931 574 788 501 931 b 215 731 276 931 215 854 b 419 431 215 572 297 431 "},"A":{"ha":946,"x_min":0,"x_max":0,"o":"m 879 115 b 950 24 904 57 950 54 l 950 19 b 921 0 950 7 939 0 l 674 0 b 644 19 656 0 644 7 l 644 24 b 696 115 644 54 717 61 l 642 253 l 222 253 l 171 115 b 222 24 150 61 222 54 l 222 19 b 192 0 222 7 211 0 l 35 0 b 6 19 17 0 6 7 l 6 24 b 76 115 6 54 53 56 l 368 864 b 322 963 386 910 322 936 l 322 967 b 346 986 322 978 331 986 l 456 986 b 531 933 493 986 515 971 l 879 115 m 613 328 l 426 803 l 250 328 "},"Á":{"ha":946,"x_min":0,"x_max":0,"o":"m 329 1082 b 290 1101 313 1081 297 1086 b 306 1140 285 1118 293 1133 l 579 1269 b 636 1246 607 1283 628 1272 l 653 1181 b 619 1132 661 1156 649 1135 l 329 1082 m 879 115 b 950 24 904 57 950 54 l 950 19 b 921 0 950 7 939 0 l 674 0 b 644 19 656 0 644 7 l 644 24 b 696 115 644 54 717 61 l 642 253 l 222 253 l 171 115 b 222 24 150 61 222 54 l 222 19 b 192 0 222 7 211 0 l 35 0 b 6 19 17 0 6 7 l 6 24 b 76 115 6 54 53 56 l 368 864 b 322 963 386 910 322 936 l 322 967 b 346 986 322 978 331 986 l 456 986 b 531 933 493 986 515 971 l 879 115 m 613 328 l 426 803 l 250 328 "},"Ă":{"ha":946,"x_min":0,"x_max":0,"o":"m 454 1068 b 231 1247 332 1068 244 1151 b 290 1269 225 1285 279 1292 b 454 1179 311 1213 379 1179 b 619 1269 531 1179 599 1213 b 679 1247 631 1290 683 1282 b 454 1068 667 1151 581 1068 m 879 115 b 950 24 904 57 950 54 l 950 19 b 921 0 950 7 939 0 l 674 0 b 644 19 656 0 644 7 l 644 24 b 696 115 644 54 717 61 l 642 253 l 222 253 l 171 115 b 222 24 150 61 222 54 l 222 19 b 192 0 222 7 211 0 l 35 0 b 6 19 17 0 6 7 l 6 24 b 76 115 6 54 53 56 l 368 864 b 322 963 386 910 322 936 l 322 967 b 346 986 322 978 331 986 l 456 986 b 531 933 493 986 515 971 l 879 115 m 613 328 l 426 803 l 250 328 "},"Â":{"ha":946,"x_min":0,"x_max":0,"o":"m 268 1060 b 231 1110 240 1044 196 1075 l 383 1256 b 433 1278 400 1272 413 1278 l 467 1278 b 517 1256 488 1278 500 1271 l 679 1110 b 639 1060 711 1079 682 1038 l 446 1160 l 268 1060 m 879 115 b 950 24 904 57 950 54 l 950 19 b 921 0 950 7 939 0 l 674 0 b 644 19 656 0 644 7 l 644 24 b 696 115 644 54 717 61 l 642 253 l 222 253 l 171 115 b 222 24 150 61 222 54 l 222 19 b 192 0 222 7 211 0 l 35 0 b 6 19 17 0 6 7 l 6 24 b 76 115 6 54 53 56 l 368 864 b 322 963 386 910 322 936 l 322 967 b 346 986 322 978 331 986 l 456 986 b 531 933 493 986 515 971 l 879 115 m 613 328 l 426 803 l 250 328 "},"Ä":{"ha":946,"x_min":0,"x_max":0,"o":"m 311 1088 b 206 1183 249 1088 206 1128 b 311 1279 206 1239 249 1279 b 414 1183 374 1279 414 1239 b 311 1088 414 1128 374 1088 m 603 1088 b 499 1183 540 1088 499 1128 b 603 1279 499 1239 540 1279 b 707 1183 664 1279 707 1239 b 603 1088 707 1128 664 1088 m 879 115 b 950 24 904 57 950 54 l 950 19 b 921 0 950 7 939 0 l 674 0 b 644 19 656 0 644 7 l 644 24 b 696 115 644 54 717 61 l 642 253 l 222 253 l 171 115 b 222 24 150 61 222 54 l 222 19 b 192 0 222 7 211 0 l 35 0 b 6 19 17 0 6 7 l 6 24 b 76 115 6 54 53 56 l 368 864 b 322 963 386 910 322 936 l 322 967 b 346 986 322 978 331 986 l 456 986 b 531 933 493 986 515 971 l 879 115 m 613 328 l 426 803 l 250 328 "},"À":{"ha":946,"x_min":0,"x_max":0,"o":"m 276 1131 b 243 1179 247 1133 236 1154 l 261 1244 b 318 1269 268 1272 289 1283 l 590 1140 b 607 1101 604 1133 611 1117 b 567 1081 600 1085 583 1081 l 276 1131 m 879 115 b 950 24 904 57 950 54 l 950 19 b 921 0 950 7 939 0 l 674 0 b 644 19 656 0 644 7 l 644 24 b 696 115 644 54 717 61 l 642 253 l 222 253 l 171 115 b 222 24 150 61 222 54 l 222 19 b 192 0 222 7 211 0 l 35 0 b 6 19 17 0 6 7 l 6 24 b 76 115 6 54 53 56 l 368 864 b 322 963 386 910 322 936 l 322 967 b 346 986 322 978 331 986 l 456 986 b 531 933 493 986 515 971 l 879 115 m 613 328 l 426 803 l 250 328 "},"Ā":{"ha":946,"x_min":0,"x_max":0,"o":"m 267 1117 b 239 1142 249 1117 239 1126 l 239 1196 b 267 1221 239 1213 249 1221 l 640 1221 b 668 1196 658 1221 668 1213 l 668 1142 b 640 1117 668 1126 658 1117 l 267 1117 m 879 115 b 950 24 904 57 950 54 l 950 19 b 921 0 950 7 939 0 l 674 0 b 644 19 656 0 644 7 l 644 24 b 696 115 644 54 717 61 l 642 253 l 222 253 l 171 115 b 222 24 150 61 222 54 l 222 19 b 192 0 222 7 211 0 l 35 0 b 6 19 17 0 6 7 l 6 24 b 76 115 6 54 53 56 l 368 864 b 322 963 386 910 322 936 l 322 967 b 346 986 322 978 331 986 l 456 986 b 531 933 493 986 515 971 l 879 115 m 613 328 l 426 803 l 250 328 "},"Ą":{"ha":946,"x_min":0,"x_max":0,"o":"m 879 115 b 950 24 904 57 950 54 l 950 19 b 921 0 950 7 939 0 l 847 0 b 758 -167 796 -54 758 -118 b 808 -233 758 -212 781 -233 b 842 -226 819 -233 829 -231 b 851 -290 876 -214 886 -276 b 782 -304 836 -299 808 -304 b 640 -189 714 -304 640 -269 b 790 0 640 -121 701 -53 l 674 0 b 644 19 656 0 644 7 l 644 24 b 696 115 644 54 717 61 l 642 253 l 222 253 l 171 115 b 222 24 150 61 222 54 l 222 19 b 192 0 222 7 211 0 l 35 0 b 6 19 17 0 6 7 l 6 24 b 76 115 6 54 53 56 l 368 864 b 322 963 386 910 322 936 l 322 967 b 346 986 322 978 331 986 l 456 986 b 531 933 493 986 515 971 l 879 115 m 613 328 l 426 803 l 250 328 "},"Å":{"ha":946,"x_min":0,"x_max":0,"o":"m 456 1043 b 279 1186 353 1043 279 1107 b 457 1333 279 1272 351 1333 b 635 1192 560 1333 635 1272 b 456 1043 635 1106 564 1043 m 457 1279 b 379 1189 413 1279 379 1250 b 457 1094 379 1135 413 1094 b 535 1189 501 1094 535 1128 b 457 1279 535 1243 501 1279 m 879 115 b 950 24 904 57 950 54 l 950 19 b 921 0 950 7 939 0 l 674 0 b 644 19 656 0 644 7 l 644 24 b 696 115 644 54 717 61 l 642 253 l 222 253 l 171 115 b 222 24 150 61 222 54 l 222 19 b 192 0 222 7 211 0 l 35 0 b 6 19 17 0 6 7 l 6 24 b 76 115 6 54 53 56 l 368 864 b 322 963 386 910 322 936 l 322 967 b 346 986 322 978 331 986 l 456 986 b 531 933 493 986 515 971 l 879 115 m 613 328 l 426 803 l 250 328 "},"Ã":{"ha":946,"x_min":0,"x_max":0,"o":"m 235 1081 b 218 1107 224 1081 215 1090 b 363 1253 232 1185 281 1253 b 579 1178 454 1253 519 1178 b 644 1215 611 1178 632 1192 b 671 1233 651 1229 660 1233 l 682 1233 b 699 1207 696 1233 703 1224 b 557 1064 675 1110 624 1064 b 340 1140 471 1064 407 1140 b 276 1103 311 1140 292 1126 b 249 1081 267 1088 264 1081 l 235 1081 m 879 115 b 950 24 904 57 950 54 l 950 19 b 921 0 950 7 939 0 l 674 0 b 644 19 656 0 644 7 l 644 24 b 696 115 644 54 717 61 l 642 253 l 222 253 l 171 115 b 222 24 150 61 222 54 l 222 19 b 192 0 222 7 211 0 l 35 0 b 6 19 17 0 6 7 l 6 24 b 76 115 6 54 53 56 l 368 864 b 322 963 386 910 322 936 l 322 967 b 346 986 322 978 331 986 l 456 986 b 531 933 493 986 515 971 l 879 115 m 613 328 l 426 803 l 250 328 "},"Æ":{"ha":1310,"x_min":0,"x_max":0,"o":"m 1265 217 b 1285 190 1281 217 1289 207 l 1250 36 b 1211 0 1246 13 1236 0 l 626 0 b 596 19 608 0 596 7 l 596 24 b 649 117 596 57 649 63 l 649 254 l 306 254 l 226 115 b 264 25 197 65 264 54 l 264 21 b 233 0 264 8 251 0 l 21 0 b -10 21 1 0 -10 8 l -10 25 b 76 115 -10 54 42 57 l 507 847 b 474 960 542 906 474 932 l 474 967 b 501 986 474 979 486 986 l 1172 986 b 1213 951 1197 986 1207 975 l 1243 807 b 1219 776 1247 788 1236 776 l 1213 776 b 1042 917 1158 776 1125 917 l 849 917 b 801 861 821 917 801 900 l 801 543 l 1008 543 b 1110 633 1069 543 1079 633 l 1118 633 b 1139 603 1132 633 1139 622 l 1139 413 b 1118 383 1139 396 1132 383 l 1110 383 b 1008 468 1079 383 1069 468 l 801 468 l 801 138 b 863 69 801 96 825 69 l 1082 69 b 1257 217 1174 69 1203 217 l 1265 217 m 649 329 l 649 857 l 349 329 "},"Ǽ":{"ha":1310,"x_min":0,"x_max":0,"o":"m 689 1082 b 650 1101 672 1081 657 1086 b 665 1140 644 1118 653 1133 l 939 1269 b 996 1246 967 1283 988 1272 l 1013 1181 b 979 1132 1021 1156 1008 1135 l 689 1082 m 1265 217 b 1285 190 1281 217 1289 207 l 1250 36 b 1211 0 1246 13 1236 0 l 626 0 b 596 19 608 0 596 7 l 596 24 b 649 117 596 57 649 63 l 649 254 l 306 254 l 226 115 b 264 25 197 65 264 54 l 264 21 b 233 0 264 8 251 0 l 21 0 b -10 21 1 0 -10 8 l -10 25 b 76 115 -10 54 42 57 l 507 847 b 474 960 542 906 474 932 l 474 967 b 501 986 474 979 486 986 l 1172 986 b 1213 951 1197 986 1207 975 l 1243 807 b 1219 776 1247 788 1236 776 l 1213 776 b 1042 917 1158 776 1125 917 l 849 917 b 801 861 821 917 801 900 l 801 543 l 1008 543 b 1110 633 1069 543 1079 633 l 1118 633 b 1139 603 1132 633 1139 622 l 1139 413 b 1118 383 1139 396 1132 383 l 1110 383 b 1008 468 1079 383 1069 468 l 801 468 l 801 138 b 863 69 801 96 825 69 l 1082 69 b 1257 217 1174 69 1203 217 l 1265 217 m 649 329 l 649 857 l 349 329 "},"B":{"ha":939,"x_min":0,"x_max":0,"o":"m 625 531 b 899 276 800 507 899 410 b 497 0 899 108 738 0 l 104 0 b 75 19 86 0 75 7 l 75 25 b 126 115 75 54 126 61 l 126 871 b 75 963 126 925 75 932 l 75 967 b 104 986 75 979 86 986 l 442 986 b 804 739 675 986 804 881 b 625 531 804 633 735 556 m 294 617 b 356 557 294 581 319 557 l 481 557 b 654 713 586 557 654 622 b 436 915 654 840 569 915 l 344 915 b 294 860 317 915 294 901 m 483 71 b 726 250 649 71 726 133 b 429 488 726 371 624 488 l 294 488 l 294 154 b 369 71 294 106 325 71 l 483 71 "},"C":{"ha":935,"x_min":0,"x_max":0,"o":"m 508 -14 b 38 504 258 -14 38 239 b 499 999 38 792 228 999 b 886 739 718 999 886 854 b 807 663 886 693 857 663 b 461 928 679 663 686 928 b 203 601 324 928 203 799 b 551 135 203 324 375 135 b 840 338 704 135 799 250 b 900 318 860 367 906 360 b 508 -14 876 144 744 -14 "},"Ć":{"ha":935,"x_min":0,"x_max":0,"o":"m 363 1082 b 324 1101 346 1081 331 1086 b 339 1140 318 1118 326 1133 l 613 1269 b 669 1246 640 1283 661 1272 l 686 1181 b 653 1132 694 1156 682 1135 l 363 1082 m 508 -14 b 38 504 258 -14 38 239 b 499 999 38 792 228 999 b 886 739 718 999 886 854 b 807 663 886 693 857 663 b 461 928 679 663 686 928 b 203 601 324 928 203 799 b 551 135 203 324 375 135 b 840 338 704 135 799 250 b 900 318 860 367 906 360 b 508 -14 876 144 744 -14 "},"Č":{"ha":935,"x_min":0,"x_max":0,"o":"m 292 1206 b 332 1247 268 1231 307 1261 l 519 1143 l 706 1247 b 746 1206 733 1264 768 1226 l 585 1060 b 535 1039 568 1044 556 1039 l 497 1039 b 447 1060 476 1039 464 1044 m 840 338 b 900 318 860 367 906 360 b 508 -14 876 144 744 -14 b 38 504 258 -14 38 239 b 499 999 38 792 228 999 b 886 739 718 999 886 854 b 807 663 886 693 857 663 b 461 928 679 663 686 928 b 203 601 324 928 203 799 b 551 135 203 324 375 135 b 840 338 704 135 799 250 "},"Ç":{"ha":935,"x_min":0,"x_max":0,"o":"m 840 338 b 900 318 860 367 906 360 b 529 -14 876 150 751 -4 l 526 -76 b 686 -182 606 -75 686 -108 b 511 -293 686 -254 604 -293 b 394 -268 458 -293 421 -281 b 403 -208 364 -253 376 -193 b 486 -229 419 -218 457 -229 b 563 -176 526 -229 564 -214 b 479 -131 561 -135 513 -131 b 444 -89 456 -131 440 -114 l 460 -11 b 38 504 231 19 38 257 b 499 999 38 792 228 999 b 886 739 718 999 886 854 b 807 663 886 693 857 663 b 461 928 679 663 686 928 b 203 601 324 928 203 799 b 551 135 203 324 375 135 b 840 338 704 135 799 250 "},"Ċ":{"ha":935,"x_min":0,"x_max":0,"o":"m 478 1067 b 368 1165 411 1067 368 1108 b 478 1265 368 1222 411 1265 b 585 1165 542 1265 585 1222 b 478 1067 585 1108 542 1067 m 508 -14 b 38 504 258 -14 38 239 b 499 999 38 792 228 999 b 886 739 718 999 886 854 b 807 663 886 693 857 663 b 461 928 679 663 686 928 b 203 601 324 928 203 799 b 551 135 203 324 375 135 b 840 338 704 135 799 250 b 900 318 860 367 906 360 b 508 -14 876 144 744 -14 "},"D":{"ha":1042,"x_min":0,"x_max":0,"o":"m 104 0 b 74 19 86 0 74 7 l 74 24 b 126 115 74 54 126 61 l 126 871 b 74 963 126 925 74 932 l 74 967 b 104 986 74 979 86 986 l 410 986 b 994 497 753 986 994 775 b 472 0 994 190 774 0 l 104 0 m 463 71 b 822 435 669 71 822 208 b 378 915 822 711 629 915 l 339 915 b 292 864 313 915 292 901 l 292 169 b 375 71 292 107 324 71 "},"Ð":{"ha":1047,"x_min":0,"x_max":0,"o":"m 414 986 b 999 497 757 986 999 775 b 476 0 999 190 778 0 l 108 0 b 78 19 90 0 78 7 l 78 24 b 131 115 78 54 131 61 l 131 467 l 58 467 b 38 485 46 467 38 471 l 38 515 b 58 535 38 529 46 535 l 131 535 l 131 871 b 78 963 131 925 78 932 l 78 967 b 108 986 78 979 90 986 l 414 986 m 467 71 b 826 435 674 71 826 208 b 382 915 826 711 633 915 l 343 915 b 296 864 317 915 296 901 l 296 535 l 468 535 b 490 515 482 535 490 526 l 490 488 b 468 467 490 472 482 467 l 296 467 l 296 169 b 379 71 296 107 328 71 l 467 71 "},"Ď":{"ha":1043,"x_min":0,"x_max":0,"o":"m 263 1206 b 303 1247 239 1231 278 1261 l 490 1143 l 676 1247 b 717 1206 704 1264 739 1226 l 556 1060 b 506 1039 539 1044 526 1039 l 468 1039 b 418 1060 447 1039 435 1044 m 410 986 b 994 497 753 986 994 775 b 472 0 994 190 774 0 l 104 0 b 74 19 86 0 74 7 l 74 24 b 126 115 74 54 126 61 l 126 871 b 74 963 126 925 74 932 l 74 967 b 104 986 74 979 86 986 l 410 986 m 463 71 b 822 435 669 71 822 208 b 378 915 822 711 629 915 l 339 915 b 292 864 313 915 292 901 l 292 169 b 375 71 292 107 324 71 l 463 71 "},"Đ":{"ha":1047,"x_min":0,"x_max":0,"o":"m 414 986 b 999 497 757 986 999 775 b 476 0 999 190 778 0 l 108 0 b 78 19 90 0 78 7 l 78 24 b 131 115 78 54 131 61 l 131 467 l 58 467 b 38 485 46 467 38 471 l 38 515 b 58 535 38 529 46 535 l 131 535 l 131 871 b 78 963 131 925 78 932 l 78 967 b 108 986 78 979 90 986 l 414 986 m 467 71 b 826 435 674 71 826 208 b 382 915 826 711 633 915 l 343 915 b 296 864 317 915 296 901 l 296 535 l 468 535 b 490 515 482 535 490 526 l 490 488 b 468 467 490 472 482 467 l 296 467 l 296 169 b 379 71 296 107 328 71 l 467 71 "},"E":{"ha":843,"x_min":0,"x_max":0,"o":"m 104 0 b 74 19 86 0 74 7 l 74 24 b 126 117 74 54 126 60 l 126 869 b 74 963 126 926 74 933 l 74 967 b 101 986 74 979 85 986 l 706 986 b 744 951 731 986 740 975 l 778 801 b 756 769 782 781 772 769 l 749 769 b 574 917 693 769 654 917 l 340 917 b 293 863 313 917 293 901 l 293 539 l 507 539 b 604 631 567 539 572 631 l 613 631 b 633 604 625 631 633 621 l 633 407 b 613 381 633 392 625 381 l 604 381 b 507 468 572 381 567 468 l 293 468 l 292 143 b 354 69 292 107 310 69 l 617 69 b 786 222 699 69 726 222 l 796 222 b 817 190 811 222 819 207 l 785 36 b 744 0 779 13 769 0 l 104 0 "},"É":{"ha":843,"x_min":0,"x_max":0,"o":"m 294 1082 b 256 1101 278 1081 263 1086 b 271 1140 250 1118 258 1133 l 544 1269 b 601 1246 572 1283 593 1272 l 618 1181 b 585 1132 626 1156 614 1135 l 294 1082 m 104 0 b 74 19 86 0 74 7 l 74 24 b 126 117 74 54 126 60 l 126 869 b 74 963 126 926 74 933 l 74 967 b 101 986 74 979 85 986 l 706 986 b 744 951 731 986 740 975 l 778 801 b 756 769 782 781 772 769 l 749 769 b 574 917 693 769 654 917 l 340 917 b 293 863 313 917 293 901 l 293 539 l 507 539 b 604 631 567 539 572 631 l 613 631 b 633 604 625 631 633 621 l 633 407 b 613 381 633 392 625 381 l 604 381 b 507 468 572 381 567 468 l 293 468 l 292 143 b 354 69 292 107 310 69 l 617 69 b 786 222 699 69 726 222 l 796 222 b 817 190 811 222 819 207 l 785 36 b 744 0 779 13 769 0 l 104 0 "},"Ě":{"ha":843,"x_min":0,"x_max":0,"o":"m 194 1206 b 235 1247 171 1231 210 1261 l 422 1143 l 608 1247 b 649 1206 636 1264 671 1226 l 488 1060 b 438 1039 471 1044 458 1039 l 400 1039 b 350 1060 379 1039 367 1044 m 796 222 b 817 190 811 222 819 207 l 785 36 b 744 0 779 13 769 0 l 104 0 b 74 19 86 0 74 7 l 74 24 b 126 117 74 54 126 60 l 126 869 b 74 963 126 926 74 933 l 74 967 b 101 986 74 979 85 986 l 706 986 b 744 951 731 986 740 975 l 778 801 b 756 769 782 781 772 769 l 749 769 b 574 917 693 769 654 917 l 340 917 b 293 863 313 917 293 901 l 293 539 l 507 539 b 604 631 567 539 572 631 l 613 631 b 633 604 625 631 633 621 l 633 407 b 613 381 633 392 625 381 l 604 381 b 507 468 572 381 567 468 l 293 468 l 292 143 b 354 69 292 107 310 69 l 617 69 b 786 222 699 69 726 222 l 796 222 "},"Ê":{"ha":843,"x_min":0,"x_max":0,"o":"m 235 1060 b 197 1110 207 1044 163 1075 l 350 1256 b 400 1278 367 1272 379 1278 l 433 1278 b 483 1256 454 1278 467 1271 l 646 1110 b 606 1060 678 1079 649 1038 l 413 1160 l 235 1060 m 796 222 b 817 190 811 222 819 207 l 785 36 b 744 0 779 13 769 0 l 104 0 b 74 19 86 0 74 7 l 74 24 b 126 117 74 54 126 60 l 126 869 b 74 963 126 926 74 933 l 74 967 b 101 986 74 979 85 986 l 706 986 b 744 951 731 986 740 975 l 778 801 b 756 769 782 781 772 769 l 749 769 b 574 917 693 769 654 917 l 340 917 b 293 863 313 917 293 901 l 293 539 l 507 539 b 604 631 567 539 572 631 l 613 631 b 633 604 625 631 633 621 l 633 407 b 613 381 633 392 625 381 l 604 381 b 507 468 572 381 567 468 l 293 468 l 292 143 b 354 69 292 107 310 69 l 617 69 b 786 222 699 69 726 222 l 796 222 "},"Ë":{"ha":843,"x_min":0,"x_max":0,"o":"m 275 1088 b 169 1183 213 1088 169 1128 b 275 1279 169 1239 213 1279 b 378 1183 338 1279 378 1239 b 275 1088 378 1128 338 1088 m 567 1088 b 463 1183 504 1088 463 1128 b 567 1279 463 1239 504 1279 b 671 1183 628 1279 671 1239 b 567 1088 671 1128 628 1088 m 104 0 b 74 19 86 0 74 7 l 74 24 b 126 117 74 54 126 60 l 126 869 b 74 963 126 926 74 933 l 74 967 b 101 986 74 979 85 986 l 706 986 b 744 951 731 986 740 975 l 778 801 b 756 769 782 781 772 769 l 749 769 b 574 917 693 769 654 917 l 340 917 b 293 863 313 917 293 901 l 293 539 l 507 539 b 604 631 567 539 572 631 l 613 631 b 633 604 625 631 633 621 l 633 407 b 613 381 633 392 625 381 l 604 381 b 507 468 572 381 567 468 l 293 468 l 292 143 b 354 69 292 107 310 69 l 617 69 b 786 222 699 69 726 222 l 796 222 b 817 190 811 222 819 207 l 785 36 b 744 0 779 13 769 0 l 104 0 "},"Ė":{"ha":843,"x_min":0,"x_max":0,"o":"m 429 1067 b 319 1165 363 1067 319 1108 b 429 1265 319 1222 363 1265 b 536 1165 493 1265 536 1222 b 429 1067 536 1108 493 1067 m 104 0 b 74 19 86 0 74 7 l 74 24 b 126 117 74 54 126 60 l 126 869 b 74 963 126 926 74 933 l 74 967 b 101 986 74 979 85 986 l 706 986 b 744 951 731 986 740 975 l 778 801 b 756 769 782 781 772 769 l 749 769 b 574 917 693 769 654 917 l 340 917 b 293 863 313 917 293 901 l 293 539 l 507 539 b 604 631 567 539 572 631 l 613 631 b 633 604 625 631 633 621 l 633 407 b 613 381 633 392 625 381 l 604 381 b 507 468 572 381 567 468 l 293 468 l 292 143 b 354 69 292 107 310 69 l 617 69 b 786 222 699 69 726 222 l 796 222 b 817 190 811 222 819 207 l 785 36 b 744 0 779 13 769 0 l 104 0 "},"È":{"ha":843,"x_min":0,"x_max":0,"o":"m 243 1131 b 210 1179 214 1133 203 1154 l 228 1244 b 285 1269 235 1272 256 1283 l 557 1140 b 574 1101 571 1133 578 1117 b 533 1081 567 1085 550 1081 m 104 0 b 74 19 86 0 74 7 l 74 24 b 126 117 74 54 126 60 l 126 869 b 74 963 126 926 74 933 l 74 967 b 101 986 74 979 85 986 l 706 986 b 744 951 731 986 740 975 l 778 801 b 756 769 782 781 772 769 l 749 769 b 574 917 693 769 654 917 l 340 917 b 293 863 313 917 293 901 l 293 539 l 507 539 b 604 631 567 539 572 631 l 613 631 b 633 604 625 631 633 621 l 633 407 b 613 381 633 392 625 381 l 604 381 b 507 468 572 381 567 468 l 293 468 l 292 143 b 354 69 292 107 310 69 l 617 69 b 786 222 699 69 726 222 l 796 222 b 817 190 811 222 819 207 l 785 36 b 744 0 779 13 769 0 l 104 0 "},"Ē":{"ha":843,"x_min":0,"x_max":0,"o":"m 233 1117 b 206 1142 215 1117 206 1126 l 206 1196 b 233 1221 206 1213 215 1221 l 607 1221 b 635 1196 625 1221 635 1213 l 635 1142 b 607 1117 635 1126 625 1117 l 233 1117 m 104 0 b 74 19 86 0 74 7 l 74 24 b 126 117 74 54 126 60 l 126 869 b 74 963 126 926 74 933 l 74 967 b 101 986 74 979 85 986 l 706 986 b 744 951 731 986 740 975 l 778 801 b 756 769 782 781 772 769 l 749 769 b 574 917 693 769 654 917 l 340 917 b 293 863 313 917 293 901 l 293 539 l 507 539 b 604 631 567 539 572 631 l 613 631 b 633 604 625 631 633 621 l 633 407 b 613 381 633 392 625 381 l 604 381 b 507 468 572 381 567 468 l 293 468 l 292 143 b 354 69 292 107 310 69 l 617 69 b 786 222 699 69 726 222 l 796 222 b 817 190 811 222 819 207 l 785 36 b 744 0 779 13 769 0 l 104 0 "},"Ę":{"ha":843,"x_min":0,"x_max":0,"o":"m 785 36 b 765 4 781 21 776 10 b 678 -161 714 -49 678 -112 b 728 -228 678 -207 700 -228 b 761 -221 739 -228 749 -225 b 771 -285 796 -208 806 -271 b 701 -299 756 -293 728 -299 b 560 -183 633 -299 560 -264 b 701 0 560 -118 617 -51 l 104 0 b 74 19 86 0 74 7 l 74 24 b 126 117 74 54 126 60 l 126 869 b 74 963 126 926 74 933 l 74 967 b 101 986 74 979 85 986 l 706 986 b 744 951 731 986 740 975 l 778 801 b 756 769 782 781 772 769 l 749 769 b 574 917 693 769 654 917 l 340 917 b 293 863 313 917 293 901 l 293 539 l 507 539 b 604 631 567 539 572 631 l 613 631 b 633 604 625 631 633 621 l 633 407 b 613 381 633 392 625 381 l 604 381 b 507 468 572 381 567 468 l 293 468 l 292 143 b 354 69 292 107 310 69 l 617 69 b 786 222 699 69 726 222 l 796 222 b 817 190 811 222 819 207 l 785 36 "},"F":{"ha":801,"x_min":0,"x_max":0,"o":"m 104 0 b 74 19 86 0 74 7 l 74 24 b 126 115 74 54 126 61 l 126 871 b 74 963 126 926 74 932 l 74 967 b 101 986 74 979 85 986 l 708 986 b 747 950 733 986 743 974 l 781 800 b 757 768 785 779 774 768 l 751 768 b 575 915 696 768 656 915 l 343 915 b 296 864 315 915 296 901 l 296 497 l 514 497 b 613 589 567 497 581 589 l 622 589 b 643 563 635 589 643 579 l 643 365 b 622 339 643 350 635 339 l 613 339 b 514 426 581 339 567 426 l 296 426 l 296 115 b 353 24 296 61 353 54 l 353 19 b 322 0 353 7 340 0 l 104 0 "},"G":{"ha":1001,"x_min":0,"x_max":0,"o":"m 535 -14 b 46 490 264 -14 46 219 b 513 999 46 800 253 999 b 904 743 747 999 904 857 b 828 665 904 696 874 665 b 468 928 699 665 689 928 b 211 594 322 928 211 785 b 575 97 211 310 382 97 b 746 138 646 97 707 114 l 746 365 b 657 456 746 424 657 426 l 657 461 b 689 483 657 475 671 483 l 950 482 b 979 461 968 482 979 474 l 979 456 b 903 364 979 426 903 424 l 903 167 b 860 88 903 135 893 115 b 535 -14 790 32 671 -14 "},"Ğ":{"ha":1003,"x_min":0,"x_max":0,"o":"m 525 1068 b 301 1247 403 1068 315 1151 b 361 1269 296 1285 350 1292 b 525 1179 382 1213 450 1179 b 690 1269 601 1179 669 1213 b 750 1247 701 1290 754 1282 b 525 1068 738 1151 651 1068 m 535 -14 b 46 490 264 -14 46 219 b 513 999 46 800 253 999 b 904 743 747 999 904 857 b 828 665 904 696 874 665 b 468 928 699 665 689 928 b 211 594 322 928 211 785 b 575 97 211 310 382 97 b 746 138 646 97 707 114 l 746 365 b 657 456 746 424 657 426 l 657 461 b 689 483 657 475 671 483 l 950 482 b 979 461 968 482 979 474 l 979 456 b 903 364 979 426 903 424 l 903 167 b 860 88 903 135 893 115 b 535 -14 790 32 671 -14 "},"Ģ":{"ha":1003,"x_min":0,"x_max":0,"o":"m 535 -14 b 46 490 264 -14 46 219 b 513 999 46 800 253 999 b 904 743 747 999 904 857 b 828 665 904 696 874 665 b 468 928 699 665 689 928 b 211 594 322 928 211 785 b 575 97 211 310 382 97 b 746 138 646 97 707 114 l 746 365 b 657 456 746 424 657 426 l 657 461 b 689 483 657 475 671 483 l 950 482 b 979 461 968 482 979 474 l 979 456 b 903 364 979 426 903 424 l 903 167 b 860 88 903 135 893 115 b 535 -14 790 32 671 -14 m 489 -429 b 458 -396 467 -442 439 -415 b 531 -282 507 -349 525 -321 b 518 -260 533 -269 531 -260 b 444 -168 476 -260 444 -222 b 540 -67 444 -110 482 -67 b 640 -183 594 -67 640 -110 b 489 -429 640 -275 590 -362 "},"Ġ":{"ha":1003,"x_min":0,"x_max":0,"o":"m 533 1067 b 424 1165 467 1067 424 1108 b 533 1265 424 1222 467 1265 b 640 1165 597 1265 640 1222 b 533 1067 640 1108 597 1067 m 535 -14 b 46 490 264 -14 46 219 b 513 999 46 800 253 999 b 904 743 747 999 904 857 b 828 665 904 696 874 665 b 468 928 699 665 689 928 b 211 594 322 928 211 785 b 575 97 211 310 382 97 b 746 138 646 97 707 114 l 746 365 b 657 456 746 424 657 426 l 657 461 b 689 483 657 475 671 483 l 950 482 b 979 461 968 482 979 474 l 979 456 b 903 364 979 426 903 424 l 903 167 b 860 88 903 135 893 115 b 535 -14 790 32 671 -14 "},"H":{"ha":1078,"x_min":0,"x_max":0,"o":"m 104 0 b 75 19 86 0 75 7 l 75 24 b 126 115 75 54 126 61 l 126 871 b 75 963 126 925 75 932 l 75 967 b 104 986 75 979 86 986 l 321 986 b 350 967 339 986 350 979 l 350 963 b 296 871 350 932 296 925 l 294 539 l 779 539 l 779 871 b 728 963 779 925 728 932 l 728 967 b 757 986 728 979 739 986 l 974 986 b 1004 967 992 986 1004 979 l 1004 963 b 947 871 1004 932 947 925 l 947 115 b 1004 24 947 61 1004 54 l 1004 19 b 974 0 1004 7 992 0 l 757 0 b 728 19 739 0 728 7 l 728 24 b 779 115 728 54 779 61 l 779 463 l 296 463 l 294 115 b 350 24 294 61 350 54 l 350 19 b 321 0 350 7 339 0 l 104 0 "},"Ħ":{"ha":1083,"x_min":0,"x_max":0,"o":"m 1024 788 b 1051 767 1039 788 1051 781 l 1051 742 b 1024 721 1051 729 1039 721 l 950 721 l 950 115 b 1007 24 950 61 1007 54 l 1007 19 b 976 0 1007 7 994 0 l 760 0 b 731 19 742 0 731 7 l 731 24 b 782 115 731 54 782 61 l 782 463 l 299 463 l 297 115 b 353 24 297 61 353 54 l 353 19 b 324 0 353 7 342 0 l 107 0 b 78 19 89 0 78 7 l 78 24 b 129 115 78 54 129 61 l 129 721 l 54 721 b 29 742 40 721 29 729 l 29 767 b 54 788 29 781 40 788 l 129 788 l 129 871 b 78 963 129 925 78 932 l 78 967 b 107 986 78 979 89 986 l 324 986 b 353 967 342 986 353 979 l 353 963 b 299 871 353 932 299 925 l 299 788 l 782 788 l 782 871 b 731 963 782 925 731 932 l 731 967 b 760 986 731 979 742 986 l 976 986 b 1007 967 994 986 1007 979 l 1007 963 b 950 871 1007 932 950 925 l 950 788 l 1024 788 m 782 721 l 299 721 l 297 539 l 782 539 "},"I":{"ha":424,"x_min":0,"x_max":0,"o":"m 75 24 b 126 114 75 53 126 60 l 126 871 b 75 963 126 925 75 932 l 75 967 b 104 986 75 979 86 986 l 321 986 b 350 967 339 986 350 979 l 350 963 b 294 871 350 932 294 925 l 294 114 b 350 24 294 60 350 53 l 350 19 b 321 0 350 7 339 0 l 104 0 b 75 19 86 0 75 7 "},"Ĳ":{"ha":1150,"x_min":0,"x_max":0,"o":"m 75 24 b 126 114 75 53 126 60 l 126 871 b 75 963 126 925 75 932 l 75 967 b 104 986 75 979 86 986 l 321 986 b 350 967 339 986 350 979 l 350 963 b 294 871 350 932 294 925 l 294 114 b 350 24 294 60 350 53 l 350 19 b 321 0 350 7 339 0 l 104 0 b 75 19 86 0 75 7 m 869 871 b 817 963 869 925 817 932 l 817 967 b 847 986 817 979 828 986 l 1065 986 b 1094 967 1083 986 1094 979 l 1094 963 b 1039 871 1094 932 1039 925 l 1038 383 b 725 -14 1036 90 910 -12 b 419 219 494 -15 419 131 b 497 303 419 269 450 303 b 736 57 635 303 557 57 b 869 293 814 57 869 142 l 869 871 "},"Í":{"ha":424,"x_min":0,"x_max":0,"o":"m 85 1082 b 46 1101 68 1081 53 1086 b 61 1140 40 1118 49 1133 l 335 1269 b 392 1246 363 1283 383 1272 l 408 1181 b 375 1132 417 1156 404 1135 l 85 1082 m 75 24 b 126 114 75 53 126 60 l 126 871 b 75 963 126 925 75 932 l 75 967 b 104 986 75 979 86 986 l 321 986 b 350 967 339 986 350 979 l 350 963 b 294 871 350 932 294 925 l 294 114 b 350 24 294 60 350 53 l 350 19 b 321 0 350 7 339 0 l 104 0 b 75 19 86 0 75 7 "},"Î":{"ha":424,"x_min":0,"x_max":0,"o":"m 435 1110 b 394 1060 467 1079 438 1038 l 201 1160 l 24 1060 b -14 1110 -4 1044 -49 1075 l 139 1256 b 189 1278 156 1272 168 1278 l 222 1278 b 272 1256 243 1278 256 1271 l 435 1110 m 321 986 b 350 967 339 986 350 979 l 350 963 b 294 871 350 932 294 925 l 294 114 b 350 24 294 60 350 53 l 350 19 b 321 0 350 7 339 0 l 104 0 b 75 19 86 0 75 7 l 75 24 b 126 114 75 53 126 60 l 126 871 b 75 963 126 925 75 932 l 75 967 b 104 986 75 979 86 986 l 321 986 "},"Ï":{"ha":424,"x_min":0,"x_max":0,"o":"m 67 1088 b -39 1183 4 1088 -39 1128 b 67 1279 -39 1239 4 1279 b 169 1183 129 1279 169 1239 b 67 1088 169 1128 129 1088 m 358 1088 b 254 1183 296 1088 254 1128 b 358 1279 254 1239 296 1279 b 463 1183 419 1279 463 1239 b 358 1088 463 1128 419 1088 m 75 24 b 126 114 75 53 126 60 l 126 871 b 75 963 126 925 75 932 l 75 967 b 104 986 75 979 86 986 l 321 986 b 350 967 339 986 350 979 l 350 963 b 294 871 350 932 294 925 l 294 114 b 350 24 294 60 350 53 l 350 19 b 321 0 350 7 339 0 l 104 0 b 75 19 86 0 75 7 "},"İ":{"ha":424,"x_min":0,"x_max":0,"o":"m 218 1067 b 108 1165 151 1067 108 1108 b 218 1265 108 1222 151 1265 b 325 1165 282 1265 325 1222 b 218 1067 325 1108 282 1067 m 75 24 b 126 114 75 53 126 60 l 126 871 b 75 963 126 925 75 932 l 75 967 b 104 986 75 979 86 986 l 321 986 b 350 967 339 986 350 979 l 350 963 b 294 871 350 932 294 925 l 294 114 b 350 24 294 60 350 53 l 350 19 b 321 0 350 7 339 0 l 104 0 b 75 19 86 0 75 7 "},"Ì":{"ha":424,"x_min":0,"x_max":0,"o":"m 32 1131 b -1 1179 3 1133 -8 1154 l 17 1244 b 74 1269 24 1272 44 1283 l 346 1140 b 363 1101 360 1133 367 1117 b 322 1081 356 1085 339 1081 m 75 24 b 126 114 75 53 126 60 l 126 871 b 75 963 126 925 75 932 l 75 967 b 104 986 75 979 86 986 l 321 986 b 350 967 339 986 350 979 l 350 963 b 294 871 350 932 294 925 l 294 114 b 350 24 294 60 350 53 l 350 19 b 321 0 350 7 339 0 l 104 0 b 75 19 86 0 75 7 "},"Ī":{"ha":424,"x_min":0,"x_max":0,"o":"m 24 1117 b -4 1142 6 1117 -4 1126 l -4 1196 b 24 1221 -4 1213 6 1221 l 397 1221 b 425 1196 415 1221 425 1213 l 425 1142 b 397 1117 425 1126 415 1117 l 24 1117 m 75 24 b 126 114 75 53 126 60 l 126 871 b 75 963 126 925 75 932 l 75 967 b 104 986 75 979 86 986 l 321 986 b 350 967 339 986 350 979 l 350 963 b 294 871 350 932 294 925 l 294 114 b 350 24 294 60 350 53 l 350 19 b 321 0 350 7 339 0 l 104 0 b 75 19 86 0 75 7 "},"Į":{"ha":424,"x_min":0,"x_max":0,"o":"m 350 963 b 294 871 350 932 294 925 l 294 114 b 350 24 294 60 350 53 l 350 19 b 321 0 350 7 339 0 l 247 0 b 164 -161 199 -53 164 -114 b 214 -228 164 -207 186 -228 b 247 -221 225 -228 235 -225 b 257 -285 282 -208 292 -271 b 188 -299 242 -293 214 -299 b 46 -183 119 -299 46 -264 b 188 0 46 -118 103 -51 l 104 0 b 75 19 86 0 75 7 l 75 24 b 126 114 75 53 126 60 l 126 871 b 75 963 126 925 75 932 l 75 967 b 104 986 75 979 86 986 l 321 986 b 350 967 339 986 350 979 l 350 963 "},"Ĩ":{"ha":424,"x_min":0,"x_max":0,"o":"m 122 1253 b 339 1178 214 1253 279 1178 b 404 1215 371 1178 392 1192 b 431 1233 411 1229 419 1233 l 442 1233 b 458 1207 456 1233 463 1224 b 317 1064 435 1110 383 1064 b 100 1140 231 1064 167 1140 b 36 1103 71 1140 51 1126 b 8 1081 26 1088 24 1081 l -6 1081 b -22 1107 -17 1081 -25 1090 b 122 1253 -8 1185 40 1253 m 75 24 b 126 114 75 53 126 60 l 126 871 b 75 963 126 925 75 932 l 75 967 b 104 986 75 979 86 986 l 321 986 b 350 967 339 986 350 979 l 350 963 b 294 871 350 932 294 925 l 294 114 b 350 24 294 60 350 53 l 350 19 b 321 0 350 7 339 0 l 104 0 b 75 19 86 0 75 7 "},"J":{"ha":743,"x_min":0,"x_max":0,"o":"m 463 871 b 410 963 463 925 410 932 l 410 967 b 440 986 410 979 421 986 l 658 986 b 688 967 676 986 688 979 l 688 963 b 632 871 688 932 632 925 l 631 383 b 318 -14 629 90 503 -12 b 13 219 88 -15 13 131 b 90 303 13 269 43 303 b 329 57 228 303 150 57 b 463 293 407 57 463 142 l 463 871 "},"K":{"ha":963,"x_min":0,"x_max":0,"o":"m 913 117 b 988 24 954 49 988 53 l 988 19 b 960 0 988 8 978 0 l 714 0 b 686 19 696 0 686 7 l 686 24 b 721 107 686 53 746 64 l 468 531 l 294 357 l 294 117 b 351 24 294 63 351 54 l 351 19 b 321 0 351 7 339 0 l 104 0 b 75 19 86 0 75 7 l 75 24 b 126 117 75 54 126 63 l 126 871 b 75 963 126 925 75 932 l 75 967 b 104 986 75 979 86 986 l 321 986 b 350 967 339 986 350 979 l 350 963 b 294 871 350 932 294 925 l 294 463 l 699 868 b 685 963 746 915 685 933 l 685 967 b 715 986 685 979 696 986 l 888 986 b 917 967 906 986 917 979 l 917 963 b 807 868 917 933 857 919 l 583 646 l 913 117 "},"Ķ":{"ha":963,"x_min":0,"x_max":0,"o":"m 913 117 b 988 24 954 49 988 53 l 988 19 b 960 0 988 8 978 0 l 714 0 b 686 19 696 0 686 7 l 686 24 b 721 107 686 53 746 64 l 468 531 l 294 357 l 294 117 b 351 24 294 63 351 54 l 351 19 b 321 0 351 7 339 0 l 104 0 b 75 19 86 0 75 7 l 75 24 b 126 117 75 54 126 63 l 126 871 b 75 963 126 925 75 932 l 75 967 b 104 986 75 979 86 986 l 321 986 b 350 967 339 986 350 979 l 350 963 b 294 871 350 932 294 925 l 294 463 l 699 868 b 685 963 746 915 685 933 l 685 967 b 715 986 685 979 696 986 l 888 986 b 917 967 906 986 917 979 l 917 963 b 807 868 917 933 857 919 l 583 646 l 913 117 m 533 -67 b 633 -183 588 -67 633 -110 b 482 -429 633 -275 583 -362 b 451 -396 460 -442 432 -415 b 524 -282 500 -349 518 -321 b 511 -260 526 -269 524 -260 b 438 -168 469 -260 438 -222 b 533 -67 438 -110 475 -67 "},"L":{"ha":814,"x_min":0,"x_max":0,"o":"m 104 0 b 75 19 86 0 75 8 l 75 24 b 126 115 75 54 126 61 l 126 871 b 75 963 126 926 75 931 l 75 967 b 104 986 75 979 86 986 l 322 986 b 353 967 340 986 353 979 l 353 963 b 296 871 353 931 296 926 l 296 136 b 347 71 296 100 313 71 l 601 71 b 767 238 694 71 713 238 l 781 238 b 800 210 796 238 804 228 l 765 36 b 725 0 760 13 750 0 l 104 0 "},"Ĺ":{"ha":814,"x_min":0,"x_max":0,"o":"m 96 1082 b 57 1101 79 1081 64 1086 b 72 1140 51 1118 60 1133 l 346 1269 b 403 1246 374 1283 394 1272 l 419 1181 b 386 1132 428 1156 415 1135 l 96 1082 m 104 0 b 75 19 86 0 75 8 l 75 24 b 126 115 75 54 126 61 l 126 871 b 75 963 126 926 75 931 l 75 967 b 104 986 75 979 86 986 l 322 986 b 353 967 340 986 353 979 l 353 963 b 296 871 353 931 296 926 l 296 136 b 347 71 296 100 313 71 l 601 71 b 767 238 694 71 713 238 l 781 238 b 800 210 796 238 804 228 l 765 36 b 725 0 760 13 750 0 l 104 0 "},"Ľ":{"ha":818,"x_min":0,"x_max":0,"o":"m 504 704 b 504 743 493 713 493 728 b 582 1008 558 818 582 911 b 608 1040 582 1025 593 1040 l 671 1040 b 700 1008 689 1040 700 1028 b 557 701 700 869 636 761 b 514 697 546 693 528 688 m 104 0 b 75 19 86 0 75 8 l 75 24 b 126 115 75 54 126 61 l 126 871 b 75 963 126 926 75 931 l 75 967 b 104 986 75 979 86 986 l 322 986 b 353 967 340 986 353 979 l 353 963 b 296 871 353 931 296 926 l 296 136 b 347 71 296 100 313 71 l 601 71 b 767 238 694 71 713 238 l 781 238 b 800 210 796 238 804 228 l 765 36 b 725 0 760 13 750 0 l 104 0 "},"Ļ":{"ha":814,"x_min":0,"x_max":0,"o":"m 104 0 b 75 19 86 0 75 8 l 75 24 b 126 115 75 54 126 61 l 126 871 b 75 963 126 926 75 931 l 75 967 b 104 986 75 979 86 986 l 322 986 b 353 967 340 986 353 979 l 353 963 b 296 871 353 931 296 926 l 296 136 b 347 71 296 100 313 71 l 601 71 b 767 238 694 71 713 238 l 781 238 b 800 210 796 238 804 228 l 765 36 b 725 0 760 13 750 0 l 104 0 m 385 -429 b 354 -396 363 -442 335 -415 b 426 -282 403 -349 421 -321 b 414 -260 429 -269 426 -260 b 340 -168 372 -260 340 -222 b 436 -67 340 -110 378 -67 b 536 -183 490 -67 536 -110 b 385 -429 536 -275 486 -362 "},"Ŀ":{"ha":819,"x_min":0,"x_max":0,"o":"m 104 0 b 75 19 86 0 75 8 l 75 24 b 126 115 75 54 126 61 l 126 871 b 75 963 126 926 75 931 l 75 967 b 104 986 75 979 86 986 l 322 986 b 353 967 340 986 353 979 l 353 963 b 296 871 353 931 296 926 l 296 136 b 347 71 296 100 313 71 l 601 71 b 767 238 694 71 713 238 l 781 238 b 800 210 796 238 804 228 l 765 36 b 725 0 760 13 750 0 l 104 0 m 590 432 b 482 532 531 432 482 465 b 590 632 482 600 531 632 b 699 532 650 632 699 600 b 590 432 699 465 650 432 "},"Ł":{"ha":850,"x_min":0,"x_max":0,"o":"m 817 238 b 836 210 832 238 840 228 l 801 36 b 761 0 796 13 786 0 l 140 0 b 111 19 122 0 111 8 l 111 24 b 163 115 111 54 163 61 l 163 379 l 68 332 b 33 343 51 325 39 328 l 25 361 b 40 394 18 376 25 388 l 163 456 l 163 871 b 111 963 163 926 111 931 l 111 967 b 140 986 111 979 122 986 l 358 986 b 389 967 376 986 389 979 l 389 963 b 332 871 389 931 332 926 l 332 539 l 463 604 b 496 593 479 613 490 608 l 504 576 b 489 543 510 561 504 550 l 332 464 l 332 136 b 383 71 332 100 349 71 l 638 71 b 803 238 731 71 749 238 l 817 238 "},"M":{"ha":1246,"x_min":0,"x_max":0,"o":"m 1167 118 b 1224 24 1178 61 1224 54 l 1224 19 b 1193 0 1224 7 1211 0 l 983 0 b 953 19 965 0 953 7 l 953 24 b 1000 118 953 54 1011 61 l 890 742 l 633 35 b 593 1 625 13 615 1 b 549 33 571 1 558 11 l 279 761 l 175 118 b 226 24 165 61 226 54 l 226 19 b 197 0 226 7 215 0 l 56 0 b 26 19 38 0 26 7 l 26 24 b 82 118 26 54 72 61 l 207 868 b 158 961 215 922 158 929 l 158 965 b 185 986 158 978 168 986 l 307 986 b 368 946 338 986 358 972 l 617 226 l 867 946 b 924 986 876 972 894 986 l 1053 986 b 1078 967 1067 986 1078 979 l 1078 963 b 1028 860 1078 931 1017 922 l 1167 118 "},"N":{"ha":1046,"x_min":0,"x_max":0,"o":"m 951 986 b 982 965 969 986 982 978 l 982 961 b 924 871 982 932 924 925 l 924 47 b 879 0 924 17 907 0 l 829 0 b 778 39 811 0 797 11 l 215 803 l 215 118 b 276 24 215 63 276 54 l 276 19 b 246 0 276 7 264 0 l 103 0 b 72 19 83 0 72 7 l 72 24 b 126 118 72 54 126 63 l 126 869 b 72 960 126 924 72 929 l 72 965 b 103 986 72 978 83 986 l 240 986 b 299 953 267 986 283 975 l 835 207 l 835 871 b 776 961 835 925 776 932 l 776 965 b 807 986 776 978 789 986 l 951 986 "},"Ń":{"ha":1046,"x_min":0,"x_max":0,"o":"m 410 1082 b 371 1101 393 1081 378 1086 b 386 1140 365 1118 374 1133 l 660 1269 b 717 1246 688 1283 708 1272 l 733 1181 b 700 1132 742 1156 729 1135 l 410 1082 m 951 986 b 982 965 969 986 982 978 l 982 961 b 924 871 982 932 924 925 l 924 47 b 879 0 924 17 907 0 l 829 0 b 778 39 811 0 797 11 l 215 803 l 215 118 b 276 24 215 63 276 54 l 276 19 b 246 0 276 7 264 0 l 103 0 b 72 19 83 0 72 7 l 72 24 b 126 118 72 54 126 63 l 126 869 b 72 960 126 924 72 929 l 72 965 b 103 986 72 978 83 986 l 240 986 b 299 953 267 986 283 975 l 835 207 l 835 871 b 776 961 835 925 776 932 l 776 965 b 807 986 776 978 789 986 l 951 986 "},"Ň":{"ha":1046,"x_min":0,"x_max":0,"o":"m 300 1206 b 340 1247 276 1231 315 1261 l 528 1143 l 714 1247 b 754 1206 742 1264 776 1226 l 593 1060 b 543 1039 576 1044 564 1039 l 506 1039 b 456 1060 485 1039 472 1044 m 951 986 b 982 965 969 986 982 978 l 982 961 b 924 871 982 932 924 925 l 924 47 b 879 0 924 17 907 0 l 829 0 b 778 39 811 0 797 11 l 215 803 l 215 118 b 276 24 215 63 276 54 l 276 19 b 246 0 276 7 264 0 l 103 0 b 72 19 83 0 72 7 l 72 24 b 126 118 72 54 126 63 l 126 869 b 72 960 126 924 72 929 l 72 965 b 103 986 72 978 83 986 l 240 986 b 299 953 267 986 283 975 l 835 207 l 835 871 b 776 961 835 925 776 932 l 776 965 b 807 986 776 978 789 986 l 951 986 "},"Ņ":{"ha":1046,"x_min":0,"x_max":0,"o":"m 951 986 b 982 965 969 986 982 978 l 982 961 b 924 871 982 932 924 925 l 924 47 b 879 0 924 17 907 0 l 829 0 b 778 39 811 0 797 11 l 215 803 l 215 118 b 276 24 215 63 276 54 l 276 19 b 246 0 276 7 264 0 l 103 0 b 72 19 83 0 72 7 l 72 24 b 126 118 72 54 126 63 l 126 869 b 72 960 126 924 72 929 l 72 965 b 103 986 72 978 83 986 l 240 986 b 299 953 267 986 283 975 l 835 207 l 835 871 b 776 961 835 925 776 932 l 776 965 b 807 986 776 978 789 986 l 951 986 m 544 -67 b 644 -183 599 -67 644 -110 b 493 -429 644 -275 594 -362 b 463 -396 471 -442 443 -415 b 535 -282 511 -349 529 -321 b 522 -260 538 -269 535 -260 b 449 -168 481 -260 449 -222 b 544 -67 449 -110 486 -67 "},"Ŋ":{"ha":1046,"x_min":0,"x_max":0,"o":"m 951 986 b 982 967 969 986 982 979 l 982 963 b 922 868 982 932 922 922 l 922 17 b 665 -285 922 -164 844 -283 b 400 -68 482 -286 400 -153 b 481 17 400 -15 433 17 b 692 -221 601 17 528 -221 b 833 -1 783 -221 832 -126 l 217 806 l 217 118 b 275 24 217 63 275 54 l 275 19 b 246 0 275 7 264 0 l 103 0 b 72 19 83 0 72 7 l 72 24 b 126 118 72 54 126 63 l 126 868 b 72 961 126 922 72 932 l 72 965 b 103 986 72 978 83 986 l 229 986 b 286 953 254 986 271 974 l 833 208 l 833 868 b 779 963 833 922 779 932 l 779 967 b 808 986 779 979 792 986 l 951 986 "},"Ñ":{"ha":1046,"x_min":0,"x_max":0,"o":"m 319 1081 b 303 1107 308 1081 300 1090 b 447 1253 317 1185 365 1253 b 664 1178 539 1253 604 1178 b 729 1215 696 1178 717 1192 b 756 1233 736 1229 744 1233 l 767 1233 b 783 1207 781 1233 788 1224 b 642 1064 760 1110 708 1064 b 425 1140 556 1064 492 1140 b 361 1103 396 1140 376 1126 b 333 1081 351 1088 349 1081 l 319 1081 m 951 986 b 982 965 969 986 982 978 l 982 961 b 924 871 982 932 924 925 l 924 47 b 879 0 924 17 907 0 l 829 0 b 778 39 811 0 797 11 l 215 803 l 215 118 b 276 24 215 63 276 54 l 276 19 b 246 0 276 7 264 0 l 103 0 b 72 19 83 0 72 7 l 72 24 b 126 118 72 54 126 63 l 126 869 b 72 960 126 924 72 929 l 72 965 b 103 986 72 978 83 986 l 240 986 b 299 953 267 986 283 975 l 835 207 l 835 871 b 776 961 835 925 776 932 l 776 965 b 807 986 776 978 789 986 l 951 986 "},"O":{"ha":1067,"x_min":0,"x_max":0,"o":"m 542 -14 b 49 493 247 -14 49 222 b 535 1000 49 786 247 1000 b 1018 488 826 1000 1018 761 b 542 -14 1018 204 811 -14 m 586 61 b 853 365 744 61 853 200 b 476 925 853 674 700 925 b 214 618 318 925 214 797 b 586 61 214 311 363 61 "},"Ó":{"ha":1065,"x_min":0,"x_max":0,"o":"m 401 1082 b 363 1101 385 1081 369 1086 b 378 1140 357 1118 365 1133 l 651 1269 b 708 1246 679 1283 700 1272 l 725 1181 b 692 1132 733 1156 721 1135 l 401 1082 m 542 -14 b 49 493 247 -14 49 222 b 535 1000 49 786 247 1000 b 1018 488 826 1000 1018 761 b 542 -14 1018 204 811 -14 m 586 61 b 853 365 744 61 853 200 b 476 925 853 674 700 925 b 214 618 318 925 214 797 b 586 61 214 311 363 61 "},"Ô":{"ha":1065,"x_min":0,"x_max":0,"o":"m 342 1060 b 304 1110 314 1044 269 1075 l 457 1256 b 507 1278 474 1272 486 1278 l 540 1278 b 590 1256 561 1278 574 1271 l 753 1110 b 713 1060 785 1079 756 1038 l 519 1160 l 342 1060 m 535 1000 b 1018 488 826 1000 1018 761 b 542 -14 1018 204 811 -14 b 49 493 247 -14 49 222 b 535 1000 49 786 247 1000 m 586 61 b 853 365 744 61 853 200 b 476 925 853 674 700 925 b 214 618 318 925 214 797 b 586 61 214 311 363 61 "},"Ö":{"ha":1065,"x_min":0,"x_max":0,"o":"m 385 1088 b 279 1183 322 1088 279 1128 b 385 1279 279 1239 322 1279 b 488 1183 447 1279 488 1239 b 385 1088 488 1128 447 1088 m 676 1088 b 572 1183 614 1088 572 1128 b 676 1279 572 1239 614 1279 b 781 1183 738 1279 781 1239 b 676 1088 781 1128 738 1088 m 542 -14 b 49 493 247 -14 49 222 b 535 1000 49 786 247 1000 b 1018 488 826 1000 1018 761 b 542 -14 1018 204 811 -14 m 586 61 b 853 365 744 61 853 200 b 476 925 853 674 700 925 b 214 618 318 925 214 797 b 586 61 214 311 363 61 "},"Ò":{"ha":1065,"x_min":0,"x_max":0,"o":"m 350 1131 b 317 1179 321 1133 310 1154 l 335 1244 b 392 1269 342 1272 363 1283 l 664 1140 b 681 1101 678 1133 685 1117 b 640 1081 674 1085 657 1081 m 542 -14 b 49 493 247 -14 49 222 b 535 1000 49 786 247 1000 b 1018 488 826 1000 1018 761 b 542 -14 1018 204 811 -14 m 586 61 b 853 365 744 61 853 200 b 476 925 853 674 700 925 b 214 618 318 925 214 797 b 586 61 214 311 363 61 "},"Ő":{"ha":1065,"x_min":0,"x_max":0,"o":"m 340 1036 b 343 1074 331 1044 333 1058 l 496 1303 b 553 1314 513 1329 533 1333 l 588 1282 b 589 1222 610 1263 611 1239 l 378 1042 b 340 1036 364 1031 350 1028 m 607 1036 b 610 1072 597 1044 600 1057 l 764 1303 b 821 1314 781 1329 800 1333 l 856 1281 b 856 1221 878 1261 878 1238 l 646 1042 b 607 1036 632 1031 618 1028 m 542 -14 b 49 493 247 -14 49 222 b 535 1000 49 786 247 1000 b 1018 488 826 1000 1018 761 b 542 -14 1018 204 811 -14 m 586 61 b 853 365 744 61 853 200 b 476 925 853 674 700 925 b 214 618 318 925 214 797 b 586 61 214 311 363 61 "},"Ō":{"ha":1065,"x_min":0,"x_max":0,"o":"m 340 1117 b 313 1142 322 1117 313 1126 l 313 1196 b 340 1221 313 1213 322 1221 l 714 1221 b 742 1196 732 1221 742 1213 l 742 1142 b 714 1117 742 1126 732 1117 l 340 1117 m 542 -14 b 49 493 247 -14 49 222 b 535 1000 49 786 247 1000 b 1018 488 826 1000 1018 761 b 542 -14 1018 204 811 -14 m 586 61 b 853 365 744 61 853 200 b 476 925 853 674 700 925 b 214 618 318 925 214 797 b 586 61 214 311 363 61 "},"Ǫ":{"ha":1065,"x_min":0,"x_max":0,"o":"m 1018 488 b 651 -1 1018 244 865 49 b 568 -162 603 -54 568 -115 b 618 -229 568 -208 590 -229 b 651 -222 629 -229 639 -226 b 661 -286 686 -210 696 -272 b 592 -300 646 -294 618 -300 b 450 -185 524 -300 450 -265 b 574 -12 450 -125 499 -62 b 542 -14 563 -14 553 -14 b 49 493 247 -14 49 222 b 535 1000 49 786 247 1000 b 1018 488 826 1000 1018 761 m 214 618 b 586 61 214 311 363 61 b 853 365 744 61 853 200 b 476 925 853 674 700 925 b 214 618 318 925 214 797 "},"Ø":{"ha":1085,"x_min":0,"x_max":0,"o":"m 924 815 b 1029 488 992 725 1029 610 b 553 -14 1029 204 822 -14 b 204 129 410 -14 290 42 l 108 38 b 79 38 99 31 89 29 l 53 61 b 60 92 44 69 47 81 l 157 185 b 60 493 94 271 60 379 b 546 1000 60 786 258 1000 b 875 869 679 1000 792 950 l 960 950 b 994 956 972 963 985 965 l 1018 933 b 1014 901 1028 925 1025 913 l 924 815 m 225 618 b 285 306 225 503 246 394 l 760 760 b 488 925 694 861 600 925 b 225 618 329 925 225 797 m 597 61 b 864 365 756 61 864 200 b 796 694 864 488 840 601 l 318 239 b 597 61 385 129 481 61 "},"Ǿ":{"ha":1085,"x_min":0,"x_max":0,"o":"m 418 1082 b 379 1101 401 1081 386 1086 b 394 1140 374 1118 382 1133 l 668 1269 b 725 1246 696 1283 717 1272 l 742 1181 b 708 1132 750 1156 738 1135 l 418 1082 m 924 815 b 1029 488 992 725 1029 610 b 553 -14 1029 204 822 -14 b 204 129 410 -14 290 42 l 108 38 b 79 38 99 31 89 29 l 53 61 b 60 92 44 69 47 81 l 157 185 b 60 493 94 271 60 379 b 546 1000 60 786 258 1000 b 875 869 679 1000 792 950 l 960 950 b 994 956 972 963 985 965 l 1018 933 b 1014 901 1028 925 1025 913 l 924 815 m 225 618 b 285 306 225 503 246 394 l 760 760 b 488 925 694 861 600 925 b 225 618 329 925 225 797 m 597 61 b 864 365 756 61 864 200 b 796 694 864 488 840 601 l 318 239 b 597 61 385 129 481 61 "},"Õ":{"ha":1065,"x_min":0,"x_max":0,"o":"m 440 1253 b 657 1178 532 1253 597 1178 b 722 1215 689 1178 710 1192 b 749 1233 729 1229 738 1233 l 760 1233 b 776 1207 774 1233 781 1224 b 635 1064 753 1110 701 1064 b 418 1140 549 1064 485 1140 b 354 1103 389 1140 369 1126 b 326 1081 344 1088 342 1081 l 313 1081 b 296 1107 301 1081 293 1090 b 440 1253 310 1185 358 1253 m 542 -14 b 49 493 247 -14 49 222 b 535 1000 49 786 247 1000 b 1018 488 826 1000 1018 761 b 542 -14 1018 204 811 -14 m 586 61 b 853 365 744 61 853 200 b 476 925 853 674 700 925 b 214 618 318 925 214 797 b 586 61 214 311 363 61 "},"Œ":{"ha":1504,"x_min":0,"x_max":0,"o":"m 1460 217 b 1479 190 1474 217 1483 207 l 1444 36 b 1406 0 1440 13 1431 0 l 831 0 b 800 21 813 0 800 8 l 800 25 b 846 117 800 54 846 63 l 846 129 b 525 -14 765 39 653 -14 b 40 493 269 -14 40 196 b 504 1000 40 794 231 1000 b 846 847 640 1000 761 943 l 846 869 b 800 963 846 924 800 933 l 800 967 b 831 986 800 979 813 986 l 1367 986 b 1406 951 1392 986 1401 975 l 1436 807 b 1413 776 1440 788 1431 776 l 1401 776 b 1250 917 1353 776 1329 917 l 1021 917 b 974 864 993 917 974 901 l 974 535 l 1213 535 b 1301 626 1272 535 1274 626 l 1313 626 b 1333 596 1325 626 1333 615 l 1333 407 b 1313 376 1333 389 1325 376 l 1301 376 b 1213 465 1274 376 1272 465 l 974 465 l 974 136 b 1035 71 974 100 990 71 l 1286 71 b 1443 217 1378 71 1397 217 l 1460 217 m 578 61 b 842 365 732 61 842 183 b 467 925 842 606 665 925 b 206 618 311 925 206 799 b 578 61 206 357 378 61 "},"P":{"ha":860,"x_min":0,"x_max":0,"o":"m 104 0 b 74 21 85 0 74 8 l 74 25 b 126 115 74 53 126 61 l 126 871 b 74 961 126 922 74 932 l 74 967 b 104 986 74 979 85 986 l 392 986 b 831 665 631 986 831 897 b 428 328 831 454 678 328 l 294 328 l 294 115 b 351 25 294 61 351 53 l 351 21 b 322 0 351 8 339 0 l 104 0 m 428 397 b 658 625 572 397 658 490 b 392 917 658 821 526 917 l 335 917 b 294 864 308 917 294 897 l 294 453 b 349 397 294 418 311 397 "},"Þ":{"ha":881,"x_min":0,"x_max":0,"o":"m 104 0 b 75 21 86 0 75 8 l 75 25 b 126 117 75 56 126 63 l 126 869 b 75 963 126 926 75 932 l 75 967 b 104 986 75 979 86 986 l 321 986 b 350 967 339 986 350 979 l 350 963 b 294 869 350 932 294 926 l 294 818 l 401 818 b 840 511 650 818 840 718 b 425 190 840 301 672 190 l 294 190 l 294 117 b 350 25 294 63 350 56 l 350 21 b 321 0 350 8 339 0 l 104 0 m 438 261 b 668 485 576 261 668 338 b 408 747 668 657 540 747 l 338 747 b 294 701 310 747 294 729 l 294 306 b 338 261 294 278 310 261 "},"Q":{"ha":1065,"x_min":0,"x_max":0,"o":"m 1042 -76 b 1058 -100 1053 -74 1069 -83 b 825 -224 1039 -168 939 -224 b 349 -58 628 -224 538 -58 b 175 -97 271 -58 211 -82 b 156 -44 146 -106 136 -68 b 311 42 190 -7 242 28 b 49 493 149 126 49 301 b 535 1000 49 786 247 1000 b 1018 488 826 1000 1018 761 b 572 -12 1018 215 826 3 b 858 -112 656 -58 733 -112 b 1042 -76 963 -112 1010 -90 m 476 925 b 214 618 318 925 214 797 b 586 61 214 311 363 61 b 853 365 744 61 853 200 b 476 925 853 674 700 925 "},"R":{"ha":925,"x_min":0,"x_max":0,"o":"m 828 115 b 921 24 868 56 921 54 l 921 19 b 892 0 921 7 910 0 l 650 0 b 621 19 632 0 621 7 l 621 24 b 650 115 621 54 683 58 l 474 379 l 461 379 l 296 376 l 296 115 b 353 24 296 61 353 54 l 353 19 b 322 0 353 7 340 0 l 104 0 b 75 19 86 0 75 7 l 75 24 b 126 115 75 54 126 61 l 126 871 b 75 963 126 925 75 932 l 75 967 b 104 986 75 979 86 986 l 418 986 b 838 678 661 986 836 888 b 631 407 838 563 767 456 l 828 115 m 442 449 b 665 657 572 449 665 521 b 407 915 665 829 539 915 l 338 915 b 296 860 310 915 296 893 l 296 528 b 364 449 296 469 319 449 l 442 449 "},"Ŕ":{"ha":925,"x_min":0,"x_max":0,"o":"m 335 1082 b 296 1101 318 1081 303 1086 b 311 1140 290 1118 299 1133 l 585 1269 b 642 1246 613 1283 633 1272 l 658 1181 b 625 1132 667 1156 654 1135 l 335 1082 m 828 115 b 921 24 868 56 921 54 l 921 19 b 892 0 921 7 910 0 l 650 0 b 621 19 632 0 621 7 l 621 24 b 650 115 621 54 683 58 l 474 379 l 461 379 l 296 376 l 296 115 b 353 24 296 61 353 54 l 353 19 b 322 0 353 7 340 0 l 104 0 b 75 19 86 0 75 7 l 75 24 b 126 115 75 54 126 61 l 126 871 b 75 963 126 925 75 932 l 75 967 b 104 986 75 979 86 986 l 418 986 b 838 678 661 986 836 888 b 631 407 838 563 767 456 l 828 115 m 442 449 b 665 657 572 449 665 521 b 407 915 665 829 539 915 l 338 915 b 296 860 310 915 296 893 l 296 528 b 364 449 296 469 319 449 l 442 449 "},"Ř":{"ha":925,"x_min":0,"x_max":0,"o":"m 233 1206 b 274 1247 210 1231 249 1261 l 461 1143 l 647 1247 b 688 1206 675 1264 710 1226 l 526 1060 b 476 1039 510 1044 497 1039 l 439 1039 b 389 1060 418 1039 406 1044 m 828 115 b 921 24 868 56 921 54 l 921 19 b 892 0 921 7 910 0 l 650 0 b 621 19 632 0 621 7 l 621 24 b 650 115 621 54 683 58 l 474 379 l 461 379 l 296 376 l 296 115 b 353 24 296 61 353 54 l 353 19 b 322 0 353 7 340 0 l 104 0 b 75 19 86 0 75 7 l 75 24 b 126 115 75 54 126 61 l 126 871 b 75 963 126 925 75 932 l 75 967 b 104 986 75 979 86 986 l 418 986 b 838 678 661 986 836 888 b 631 407 838 563 767 456 l 828 115 m 442 449 b 665 657 572 449 665 521 b 407 915 665 829 539 915 l 338 915 b 296 860 310 915 296 893 l 296 528 b 364 449 296 469 319 449 l 442 449 "},"Ŗ":{"ha":925,"x_min":0,"x_max":0,"o":"m 828 115 b 921 24 868 56 921 54 l 921 19 b 892 0 921 7 910 0 l 650 0 b 621 19 632 0 621 7 l 621 24 b 650 115 621 54 683 58 l 474 379 l 461 379 l 296 376 l 296 115 b 353 24 296 61 353 54 l 353 19 b 322 0 353 7 340 0 l 104 0 b 75 19 86 0 75 7 l 75 24 b 126 115 75 54 126 61 l 126 871 b 75 963 126 925 75 932 l 75 967 b 104 986 75 979 86 986 l 418 986 b 838 678 661 986 836 888 b 631 407 838 563 767 456 l 828 115 m 442 449 b 665 657 572 449 665 521 b 407 915 665 829 539 915 l 338 915 b 296 860 310 915 296 893 l 296 528 b 364 449 296 469 319 449 l 442 449 m 472 -51 b 572 -168 526 -51 572 -94 b 421 -414 572 -260 522 -347 b 390 -381 399 -426 371 -400 b 463 -267 439 -333 457 -306 b 450 -244 465 -254 463 -244 b 376 -153 408 -244 376 -207 b 472 -51 376 -94 414 -51 "},"S":{"ha":853,"x_min":0,"x_max":0,"o":"m 444 -14 b 43 233 171 -14 43 135 b 111 303 43 272 67 304 b 451 53 238 299 192 53 b 642 219 564 53 642 119 b 64 721 642 539 64 304 b 422 999 64 876 193 999 b 794 765 660 999 796 871 b 722 694 794 722 771 694 b 418 932 592 694 651 932 b 233 767 296 932 233 856 b 811 265 233 467 811 675 b 444 -14 811 89 640 -14 "},"Ś":{"ha":857,"x_min":0,"x_max":0,"o":"m 326 1082 b 288 1101 310 1081 294 1086 b 303 1140 282 1118 290 1133 l 576 1269 b 633 1246 604 1283 625 1272 l 650 1181 b 617 1132 658 1156 646 1135 l 326 1082 m 444 -14 b 43 233 171 -14 43 135 b 111 303 43 272 67 304 b 451 53 238 299 192 53 b 642 219 564 53 642 119 b 64 721 642 539 64 304 b 422 999 64 876 193 999 b 794 765 660 999 796 871 b 722 694 794 722 771 694 b 418 932 592 694 651 932 b 233 767 296 932 233 856 b 811 265 233 467 811 675 b 444 -14 811 89 640 -14 "},"Š":{"ha":857,"x_min":0,"x_max":0,"o":"m 210 1206 b 250 1247 186 1231 225 1261 l 438 1143 l 624 1247 b 664 1206 651 1264 686 1226 l 503 1060 b 453 1039 486 1044 474 1039 l 415 1039 b 365 1060 394 1039 382 1044 m 233 767 b 811 265 233 467 811 675 b 444 -14 811 89 640 -14 b 43 233 171 -14 43 135 b 111 303 43 272 67 304 b 451 53 238 299 192 53 b 642 219 564 53 642 119 b 64 721 642 539 64 304 b 422 999 64 876 193 999 b 794 765 660 999 796 871 b 722 694 794 722 771 694 b 418 932 592 694 651 932 b 233 767 296 932 233 856 "},"Ş":{"ha":857,"x_min":0,"x_max":0,"o":"m 811 265 b 476 -12 811 99 658 -3 l 474 -76 b 633 -182 553 -75 633 -108 b 458 -293 633 -254 551 -293 b 342 -268 406 -293 368 -281 b 350 -208 311 -253 324 -193 b 433 -229 367 -218 404 -229 b 510 -176 474 -229 511 -214 b 426 -131 508 -135 460 -131 b 392 -89 403 -131 388 -114 l 406 -12 b 43 233 158 0 43 139 b 111 303 43 272 67 304 b 451 53 238 299 192 53 b 642 219 564 53 642 119 b 64 721 642 539 64 304 b 422 999 64 876 193 999 b 794 765 660 999 796 871 b 722 694 794 722 771 694 b 418 932 592 694 651 932 b 233 767 296 932 233 856 b 811 265 233 467 811 675 "},"Ș":{"ha":857,"x_min":0,"x_max":0,"o":"m 444 -14 b 43 233 171 -14 43 135 b 111 303 43 272 67 304 b 451 53 238 299 192 53 b 642 219 564 53 642 119 b 64 721 642 539 64 304 b 422 999 64 876 193 999 b 794 765 660 999 796 871 b 722 694 794 722 771 694 b 418 932 592 694 651 932 b 233 767 296 932 233 856 b 811 265 233 467 811 675 b 444 -14 811 89 640 -14 m 394 -429 b 364 -396 372 -442 344 -415 b 436 -282 413 -349 431 -321 b 424 -260 439 -269 436 -260 b 350 -168 382 -260 350 -222 b 446 -67 350 -110 388 -67 b 546 -183 500 -67 546 -110 b 394 -429 546 -275 496 -362 "},"ẞ":{"ha":918,"x_min":0,"x_max":0,"o":"m 603 564 b 878 281 760 550 878 450 b 529 0 878 106 735 0 b 524 75 488 0 490 75 b 706 256 629 75 706 135 b 544 515 706 392 646 515 b 511 586 490 515 492 567 l 668 753 b 451 928 668 850 607 928 b 263 713 338 928 263 842 l 263 118 b 328 24 263 61 328 58 l 328 19 b 304 0 328 -1 319 0 l 65 0 b 40 19 50 0 40 7 l 40 24 b 94 118 40 54 94 61 l 94 694 b 460 1000 94 878 246 1000 b 825 782 674 1000 804 894 b 797 713 831 753 819 731 l 603 564 "},"T":{"ha":860,"x_min":0,"x_max":0,"o":"m 318 0 b 289 19 300 0 289 7 l 289 24 b 343 115 289 54 343 61 l 343 911 l 192 911 b 54 756 114 911 103 756 l 38 756 b 14 788 21 756 11 767 l 39 951 b 78 986 42 975 53 986 l 775 986 b 815 951 800 986 811 975 l 846 786 b 822 756 850 767 839 756 l 806 756 b 661 911 757 756 739 911 l 510 911 l 510 115 b 565 24 510 61 565 54 l 565 19 b 535 0 565 7 554 0 l 318 0 "},"Ŧ":{"ha":864,"x_min":0,"x_max":0,"o":"m 849 786 b 825 756 853 767 842 756 l 808 756 b 664 911 760 756 742 911 l 513 911 l 513 535 l 631 535 b 653 515 644 535 653 526 l 653 488 b 631 467 653 472 644 467 l 513 467 l 513 115 b 568 24 513 61 568 54 l 568 19 b 538 0 568 7 557 0 l 321 0 b 292 19 303 0 292 7 l 292 24 b 346 115 292 54 346 61 l 346 467 l 221 467 b 200 485 208 467 200 471 l 200 515 b 221 535 200 529 208 535 l 346 535 l 346 911 l 194 911 b 57 756 117 911 106 756 l 40 756 b 17 788 24 756 14 767 l 42 951 b 81 986 44 975 56 986 l 778 986 b 818 951 803 986 814 975 l 849 786 "},"Ť":{"ha":860,"x_min":0,"x_max":0,"o":"m 200 1206 b 240 1247 176 1231 215 1261 l 428 1143 l 614 1247 b 654 1206 642 1264 676 1226 l 493 1060 b 443 1039 476 1044 464 1039 l 406 1039 b 356 1060 385 1039 372 1044 m 846 786 b 822 756 850 767 839 756 l 806 756 b 661 911 757 756 739 911 l 510 911 l 510 115 b 565 24 510 61 565 54 l 565 19 b 535 0 565 7 554 0 l 318 0 b 289 19 300 0 289 7 l 289 24 b 343 115 289 54 343 61 l 343 911 l 192 911 b 54 756 114 911 103 756 l 38 756 b 14 788 21 756 11 767 l 39 951 b 78 986 42 975 53 986 l 775 986 b 815 951 800 986 811 975 l 846 786 "},"Ţ":{"ha":860,"x_min":0,"x_max":0,"o":"m 846 786 b 822 756 850 767 839 756 l 806 756 b 661 911 757 756 739 911 l 510 911 l 510 115 b 565 24 510 61 565 54 l 565 19 b 535 0 565 7 554 0 l 460 0 l 457 -76 b 617 -182 536 -75 617 -108 b 442 -293 617 -254 535 -293 b 325 -268 389 -293 351 -281 b 333 -208 294 -253 307 -193 b 417 -229 350 -218 388 -229 b 493 -176 457 -229 494 -214 b 410 -131 492 -135 443 -131 b 375 -89 386 -131 371 -114 l 392 0 l 318 0 b 289 19 300 0 289 7 l 289 24 b 343 115 289 54 343 61 l 343 911 l 192 911 b 54 756 114 911 103 756 l 38 756 b 14 788 21 756 11 767 l 39 951 b 78 986 42 975 53 986 l 775 986 b 815 951 800 986 811 975 l 846 786 "},"Ț":{"ha":860,"x_min":0,"x_max":0,"o":"m 318 0 b 289 19 300 0 289 7 l 289 24 b 343 115 289 54 343 61 l 343 911 l 192 911 b 54 756 114 911 103 756 l 38 756 b 14 788 21 756 11 767 l 39 951 b 78 986 42 975 53 986 l 775 986 b 815 951 800 986 811 975 l 846 786 b 822 756 850 767 839 756 l 806 756 b 661 911 757 756 739 911 l 510 911 l 510 115 b 565 24 510 61 565 54 l 565 19 b 535 0 565 7 554 0 l 318 0 m 383 -429 b 353 -396 361 -442 333 -415 b 425 -282 401 -349 419 -321 b 413 -260 428 -269 425 -260 b 339 -168 371 -260 339 -222 b 435 -67 339 -110 376 -67 b 535 -183 489 -67 535 -110 b 383 -429 535 -275 485 -362 "},"U":{"ha":1000,"x_min":0,"x_max":0,"o":"m 513 -14 b 110 379 275 -14 110 133 l 110 871 b 57 961 110 925 57 932 l 57 967 b 88 986 57 979 69 986 l 306 986 b 335 967 324 986 335 979 l 335 961 b 279 871 335 932 279 925 l 279 379 b 547 61 279 179 383 61 b 800 379 672 61 800 157 l 800 871 b 746 961 800 925 746 932 l 746 967 b 776 986 746 979 758 986 l 917 986 b 947 967 935 986 947 979 l 947 961 b 889 871 947 932 889 925 l 889 378 b 513 -14 889 133 735 -14 "},"Ú":{"ha":1000,"x_min":0,"x_max":0,"o":"m 390 1082 b 351 1101 374 1081 358 1086 b 367 1140 346 1118 354 1133 l 640 1269 b 697 1246 668 1283 689 1272 l 714 1181 b 681 1132 722 1156 710 1135 l 390 1082 m 513 -14 b 110 379 275 -14 110 133 l 110 871 b 57 961 110 925 57 932 l 57 967 b 88 986 57 979 69 986 l 306 986 b 335 967 324 986 335 979 l 335 961 b 279 871 335 932 279 925 l 279 379 b 547 61 279 179 383 61 b 800 379 672 61 800 157 l 800 871 b 746 961 800 925 746 932 l 746 967 b 776 986 746 979 758 986 l 917 986 b 947 967 935 986 947 979 l 947 961 b 889 871 947 932 889 925 l 889 378 b 513 -14 889 133 735 -14 "},"Û":{"ha":1000,"x_min":0,"x_max":0,"o":"m 326 1060 b 289 1110 299 1044 254 1075 l 442 1256 b 492 1278 458 1272 471 1278 l 525 1278 b 575 1256 546 1278 558 1271 l 738 1110 b 697 1060 769 1079 740 1038 l 504 1160 l 326 1060 m 917 986 b 947 967 935 986 947 979 l 947 961 b 889 871 947 932 889 925 l 889 378 b 513 -14 889 133 735 -14 b 110 379 275 -14 110 133 l 110 871 b 57 961 110 925 57 932 l 57 967 b 88 986 57 979 69 986 l 306 986 b 335 967 324 986 335 979 l 335 961 b 279 871 335 932 279 925 l 279 379 b 547 61 279 179 383 61 b 800 379 672 61 800 157 l 800 871 b 746 961 800 925 746 932 l 746 967 b 776 986 746 979 758 986 l 917 986 "},"Ü":{"ha":1000,"x_min":0,"x_max":0,"o":"m 374 1088 b 268 1183 311 1088 268 1128 b 374 1279 268 1239 311 1279 b 476 1183 436 1279 476 1239 b 374 1088 476 1128 436 1088 m 665 1088 b 561 1183 603 1088 561 1128 b 665 1279 561 1239 603 1279 b 769 1183 726 1279 769 1239 b 665 1088 769 1128 726 1088 m 513 -14 b 110 379 275 -14 110 133 l 110 871 b 57 961 110 925 57 932 l 57 967 b 88 986 57 979 69 986 l 306 986 b 335 967 324 986 335 979 l 335 961 b 279 871 335 932 279 925 l 279 379 b 547 61 279 179 383 61 b 800 379 672 61 800 157 l 800 871 b 746 961 800 925 746 932 l 746 967 b 776 986 746 979 758 986 l 917 986 b 947 967 935 986 947 979 l 947 961 b 889 871 947 932 889 925 l 889 378 b 513 -14 889 133 735 -14 "},"Ù":{"ha":1000,"x_min":0,"x_max":0,"o":"m 369 1131 b 336 1179 340 1133 329 1154 l 354 1244 b 411 1269 361 1272 382 1283 l 683 1140 b 700 1101 697 1133 704 1117 b 660 1081 693 1085 676 1081 m 513 -14 b 110 379 275 -14 110 133 l 110 871 b 57 961 110 925 57 932 l 57 967 b 88 986 57 979 69 986 l 306 986 b 335 967 324 986 335 979 l 335 961 b 279 871 335 932 279 925 l 279 379 b 547 61 279 179 383 61 b 800 379 672 61 800 157 l 800 871 b 746 961 800 925 746 932 l 746 967 b 776 986 746 979 758 986 l 917 986 b 947 967 935 986 947 979 l 947 961 b 889 871 947 932 889 925 l 889 378 b 513 -14 889 133 735 -14 "},"Ű":{"ha":1000,"x_min":0,"x_max":0,"o":"m 329 1036 b 332 1074 319 1044 322 1058 l 485 1303 b 542 1314 501 1329 522 1333 l 576 1282 b 578 1222 599 1263 600 1239 l 367 1042 b 329 1036 353 1031 339 1028 m 596 1036 b 599 1072 586 1044 589 1057 l 753 1303 b 810 1314 769 1329 789 1333 l 844 1281 b 844 1221 867 1261 867 1238 l 635 1042 b 596 1036 621 1031 607 1028 m 513 -14 b 110 379 275 -14 110 133 l 110 871 b 57 961 110 925 57 932 l 57 967 b 88 986 57 979 69 986 l 306 986 b 335 967 324 986 335 979 l 335 961 b 279 871 335 932 279 925 l 279 379 b 547 61 279 179 383 61 b 800 379 672 61 800 157 l 800 871 b 746 961 800 925 746 932 l 746 967 b 776 986 746 979 758 986 l 917 986 b 947 967 935 986 947 979 l 947 961 b 889 871 947 932 889 925 l 889 378 b 513 -14 889 133 735 -14 "},"Ū":{"ha":1000,"x_min":0,"x_max":0,"o":"m 331 1117 b 303 1142 313 1117 303 1126 l 303 1196 b 331 1221 303 1213 313 1221 l 704 1221 b 732 1196 722 1221 732 1213 l 732 1142 b 704 1117 732 1126 722 1117 l 331 1117 m 513 -14 b 110 379 275 -14 110 133 l 110 871 b 57 961 110 925 57 932 l 57 967 b 88 986 57 979 69 986 l 306 986 b 335 967 324 986 335 979 l 335 961 b 279 871 335 932 279 925 l 279 379 b 547 61 279 179 383 61 b 800 379 672 61 800 157 l 800 871 b 746 961 800 925 746 932 l 746 967 b 776 986 746 979 758 986 l 917 986 b 947 967 935 986 947 979 l 947 961 b 889 871 947 932 889 925 l 889 378 b 513 -14 889 133 735 -14 "},"Ų":{"ha":1000,"x_min":0,"x_max":0,"o":"m 917 986 b 947 967 935 986 947 979 l 947 961 b 889 871 947 932 889 925 l 889 378 b 589 -8 889 163 769 22 b 513 -161 543 -58 513 -117 b 563 -228 513 -207 535 -228 b 596 -221 574 -228 583 -225 b 606 -285 631 -208 640 -271 b 536 -299 590 -293 563 -299 b 394 -183 468 -299 394 -264 b 514 -14 394 -124 442 -64 l 513 -14 b 110 379 275 -14 110 133 l 110 871 b 57 961 110 925 57 932 l 57 967 b 88 986 57 979 69 986 l 306 986 b 335 967 324 986 335 979 l 335 961 b 279 871 335 932 279 925 l 279 379 b 547 61 279 179 383 61 b 800 379 672 61 800 157 l 800 871 b 746 961 800 925 746 932 l 746 967 b 776 986 746 979 758 986 l 917 986 "},"Ů":{"ha":1000,"x_min":0,"x_max":0,"o":"m 531 1043 b 354 1186 428 1043 354 1107 b 532 1333 354 1272 426 1333 b 710 1192 635 1333 710 1272 b 531 1043 710 1106 639 1043 m 532 1094 b 610 1189 576 1094 610 1128 b 532 1279 610 1243 576 1279 b 454 1189 488 1279 454 1250 b 532 1094 454 1135 488 1094 m 513 -14 b 110 379 275 -14 110 133 l 110 871 b 57 961 110 925 57 932 l 57 967 b 88 986 57 979 69 986 l 306 986 b 335 967 324 986 335 979 l 335 961 b 279 871 335 932 279 925 l 279 379 b 547 61 279 179 383 61 b 800 379 672 61 800 157 l 800 871 b 746 961 800 925 746 932 l 746 967 b 776 986 746 979 758 986 l 917 986 b 947 967 935 986 947 979 l 947 961 b 889 871 947 932 889 925 l 889 378 b 513 -14 889 133 735 -14 "},"Ũ":{"ha":1000,"x_min":0,"x_max":0,"o":"m 442 1253 b 658 1178 533 1253 599 1178 b 724 1215 690 1178 711 1192 b 750 1233 731 1229 739 1233 l 761 1233 b 778 1207 775 1233 782 1224 b 636 1064 754 1110 703 1064 b 419 1140 550 1064 486 1140 b 356 1103 390 1140 371 1126 b 328 1081 346 1088 343 1081 l 314 1081 b 297 1107 303 1081 294 1090 b 442 1253 311 1185 360 1253 m 513 -14 b 110 379 275 -14 110 133 l 110 871 b 57 961 110 925 57 932 l 57 967 b 88 986 57 979 69 986 l 306 986 b 335 967 324 986 335 979 l 335 961 b 279 871 335 932 279 925 l 279 379 b 547 61 279 179 383 61 b 800 379 672 61 800 157 l 800 871 b 746 961 800 925 746 932 l 746 967 b 776 986 746 979 758 986 l 917 986 b 947 967 935 986 947 979 l 947 961 b 889 871 947 932 889 925 l 889 378 b 513 -14 889 133 735 -14 "},"V":{"ha":985,"x_min":0,"x_max":0,"o":"m 956 986 b 985 967 974 986 985 979 l 985 963 b 914 871 985 933 940 933 l 568 47 b 501 0 553 13 533 0 b 442 44 472 0 456 14 l 63 869 b -7 963 35 931 -7 932 l -7 967 b 24 986 -7 979 6 986 l 278 986 b 308 967 296 986 308 979 l 308 963 b 254 869 308 932 232 924 l 544 183 l 818 871 b 760 963 839 925 760 933 l 760 967 b 789 986 760 979 769 986 l 956 986 "},"W":{"ha":1381,"x_min":0,"x_max":0,"o":"m 1346 986 b 1374 967 1364 986 1374 978 l 1374 963 b 1301 871 1374 932 1322 932 l 1031 47 b 964 0 1019 13 992 0 b 901 44 935 0 913 14 l 713 603 l 518 47 b 458 0 507 14 483 0 b 396 44 425 0 408 14 l 67 869 b -11 964 40 933 -11 931 l -11 967 b 17 986 -11 979 0 986 l 261 986 b 290 967 279 986 290 978 l 290 963 b 243 869 290 931 222 926 l 488 208 l 669 729 l 622 871 b 546 964 604 926 546 933 l 546 967 b 572 986 546 979 556 986 l 817 986 b 843 967 833 986 843 979 l 843 964 b 789 871 843 933 771 933 l 999 210 l 1206 871 b 1156 961 1224 925 1156 931 l 1156 965 b 1183 986 1156 979 1167 986 l 1346 986 "},"Ẃ":{"ha":1381,"x_min":0,"x_max":0,"o":"m 608 1082 b 569 1101 592 1081 576 1086 b 585 1140 564 1118 572 1133 l 858 1269 b 915 1246 886 1283 907 1272 l 932 1181 b 899 1132 940 1156 928 1135 l 608 1082 m 1346 986 b 1374 967 1364 986 1374 978 l 1374 963 b 1301 871 1374 932 1322 932 l 1031 47 b 964 0 1019 13 992 0 b 901 44 935 0 913 14 l 713 603 l 518 47 b 458 0 507 14 483 0 b 396 44 425 0 408 14 l 67 869 b -11 964 40 933 -11 931 l -11 967 b 17 986 -11 979 0 986 l 261 986 b 290 967 279 986 290 978 l 290 963 b 243 869 290 931 222 926 l 488 208 l 669 729 l 622 871 b 546 964 604 926 546 933 l 546 967 b 572 986 546 979 556 986 l 817 986 b 843 967 833 986 843 979 l 843 964 b 789 871 843 933 771 933 l 999 210 l 1206 871 b 1156 961 1224 925 1156 931 l 1156 965 b 1183 986 1156 979 1167 986 l 1346 986 "},"Ŵ":{"ha":1381,"x_min":0,"x_max":0,"o":"m 547 1060 b 510 1110 519 1044 475 1075 l 663 1256 b 713 1278 679 1272 692 1278 l 746 1278 b 796 1256 767 1278 779 1271 l 958 1110 b 918 1060 990 1079 961 1038 l 725 1160 l 547 1060 m 1346 986 b 1374 967 1364 986 1374 978 l 1374 963 b 1301 871 1374 932 1322 932 l 1031 47 b 964 0 1019 13 992 0 b 901 44 935 0 913 14 l 713 603 l 518 47 b 458 0 507 14 483 0 b 396 44 425 0 408 14 l 67 869 b -11 964 40 933 -11 931 l -11 967 b 17 986 -11 979 0 986 l 261 986 b 290 967 279 986 290 978 l 290 963 b 243 869 290 931 222 926 l 488 208 l 669 729 l 622 871 b 546 964 604 926 546 933 l 546 967 b 572 986 546 979 556 986 l 817 986 b 843 967 833 986 843 979 l 843 964 b 789 871 843 933 771 933 l 999 210 l 1206 871 b 1156 961 1224 925 1156 931 l 1156 965 b 1183 986 1156 979 1167 986 l 1346 986 "},"Ẅ":{"ha":1381,"x_min":0,"x_max":0,"o":"m 592 1088 b 486 1183 529 1088 486 1128 b 592 1279 486 1239 529 1279 b 694 1183 654 1279 694 1239 b 592 1088 694 1128 654 1088 m 883 1088 b 779 1183 821 1088 779 1128 b 883 1279 779 1239 821 1279 b 988 1183 944 1279 988 1239 b 883 1088 988 1128 944 1088 m 1346 986 b 1374 967 1364 986 1374 978 l 1374 963 b 1301 871 1374 932 1322 932 l 1031 47 b 964 0 1019 13 992 0 b 901 44 935 0 913 14 l 713 603 l 518 47 b 458 0 507 14 483 0 b 396 44 425 0 408 14 l 67 869 b -11 964 40 933 -11 931 l -11 967 b 17 986 -11 979 0 986 l 261 986 b 290 967 279 986 290 978 l 290 963 b 243 869 290 931 222 926 l 488 208 l 669 729 l 622 871 b 546 964 604 926 546 933 l 546 967 b 572 986 546 979 556 986 l 817 986 b 843 967 833 986 843 979 l 843 964 b 789 871 843 933 771 933 l 999 210 l 1206 871 b 1156 961 1224 925 1156 931 l 1156 965 b 1183 986 1156 979 1167 986 l 1346 986 "},"Ẁ":{"ha":1381,"x_min":0,"x_max":0,"o":"m 557 1131 b 524 1179 528 1133 517 1154 l 542 1244 b 599 1269 549 1272 569 1283 l 871 1140 b 888 1101 885 1133 892 1117 b 847 1081 881 1085 864 1081 l 557 1131 m 1346 986 b 1374 967 1364 986 1374 978 l 1374 963 b 1301 871 1374 932 1322 932 l 1031 47 b 964 0 1019 13 992 0 b 901 44 935 0 913 14 l 713 603 l 518 47 b 458 0 507 14 483 0 b 396 44 425 0 408 14 l 67 869 b -11 964 40 933 -11 931 l -11 967 b 17 986 -11 979 0 986 l 261 986 b 290 967 279 986 290 978 l 290 963 b 243 869 290 931 222 926 l 488 208 l 669 729 l 622 871 b 546 964 604 926 546 933 l 546 967 b 572 986 546 979 556 986 l 817 986 b 843 967 833 986 843 979 l 843 964 b 789 871 843 933 771 933 l 999 210 l 1206 871 b 1156 961 1224 925 1156 931 l 1156 965 b 1183 986 1156 979 1167 986 l 1346 986 "},"X":{"ha":950,"x_min":0,"x_max":0,"o":"m 863 115 b 950 24 903 61 950 54 l 950 19 b 921 0 950 7 939 0 l 664 0 b 635 19 646 0 635 7 l 635 24 b 669 115 635 54 704 68 l 433 432 l 206 115 b 231 24 174 68 231 54 l 231 19 b 200 0 231 7 218 0 l 26 0 b -3 19 8 0 -3 7 l -3 24 b 96 115 -3 54 57 63 l 385 497 l 106 871 b 17 963 64 928 17 932 l 17 967 b 46 986 17 979 28 986 l 297 986 b 326 967 315 986 326 979 l 326 963 b 294 871 326 932 260 918 l 519 571 l 732 871 b 694 963 765 918 694 932 l 694 967 b 724 986 694 979 706 986 l 910 986 b 939 967 928 986 939 979 l 939 963 b 836 871 939 932 875 926 l 569 506 l 863 115 "},"Y":{"ha":933,"x_min":0,"x_max":0,"o":"m 893 986 b 922 967 911 986 922 979 l 922 963 b 843 871 922 932 878 932 l 563 400 l 563 115 b 618 24 563 61 618 54 l 618 19 b 589 0 618 7 607 0 l 371 0 b 342 19 353 0 342 7 l 342 24 b 393 115 342 54 393 61 l 393 388 l 85 871 b 1 963 50 926 1 932 l 1 967 b 32 986 1 979 14 986 l 288 986 b 318 967 307 986 318 979 l 318 963 b 269 871 318 932 240 921 l 511 456 l 757 871 b 706 963 788 925 706 932 l 706 967 b 733 986 706 979 715 986 l 893 986 "},"Ý":{"ha":933,"x_min":0,"x_max":0,"o":"m 358 1082 b 319 1101 342 1081 326 1086 b 335 1140 314 1118 322 1133 l 608 1269 b 665 1246 636 1283 657 1272 l 682 1181 b 649 1132 690 1156 678 1135 l 358 1082 m 893 986 b 922 967 911 986 922 979 l 922 963 b 843 871 922 932 878 932 l 563 400 l 563 115 b 618 24 563 61 618 54 l 618 19 b 589 0 618 7 607 0 l 371 0 b 342 19 353 0 342 7 l 342 24 b 393 115 342 54 393 61 l 393 388 l 85 871 b 1 963 50 926 1 932 l 1 967 b 32 986 1 979 14 986 l 288 986 b 318 967 307 986 318 979 l 318 963 b 269 871 318 932 240 921 l 511 456 l 757 871 b 706 963 788 925 706 932 l 706 967 b 733 986 706 979 715 986 l 893 986 "},"Ŷ":{"ha":933,"x_min":0,"x_max":0,"o":"m 297 1060 b 260 1110 269 1044 225 1075 l 413 1256 b 463 1278 429 1272 442 1278 l 496 1278 b 546 1256 517 1278 529 1271 l 708 1110 b 668 1060 740 1079 711 1038 l 475 1160 l 297 1060 m 893 986 b 922 967 911 986 922 979 l 922 963 b 843 871 922 932 878 932 l 563 400 l 563 115 b 618 24 563 61 618 54 l 618 19 b 589 0 618 7 607 0 l 371 0 b 342 19 353 0 342 7 l 342 24 b 393 115 342 54 393 61 l 393 388 l 85 871 b 1 963 50 926 1 932 l 1 967 b 32 986 1 979 14 986 l 288 986 b 318 967 307 986 318 979 l 318 963 b 269 871 318 932 240 921 l 511 456 l 757 871 b 706 963 788 925 706 932 l 706 967 b 733 986 706 979 715 986 l 893 986 "},"Ÿ":{"ha":933,"x_min":0,"x_max":0,"o":"m 342 1088 b 236 1183 279 1088 236 1128 b 342 1279 236 1239 279 1279 b 444 1183 404 1279 444 1239 b 342 1088 444 1128 404 1088 m 633 1088 b 529 1183 571 1088 529 1128 b 633 1279 529 1239 571 1279 b 738 1183 694 1279 738 1239 b 633 1088 738 1128 694 1088 m 893 986 b 922 967 911 986 922 979 l 922 963 b 843 871 922 932 878 932 l 563 400 l 563 115 b 618 24 563 61 618 54 l 618 19 b 589 0 618 7 607 0 l 371 0 b 342 19 353 0 342 7 l 342 24 b 393 115 342 54 393 61 l 393 388 l 85 871 b 1 963 50 926 1 932 l 1 967 b 32 986 1 979 14 986 l 288 986 b 318 967 307 986 318 979 l 318 963 b 269 871 318 932 240 921 l 511 456 l 757 871 b 706 963 788 925 706 932 l 706 967 b 733 986 706 979 715 986 l 893 986 "},"Ỳ":{"ha":933,"x_min":0,"x_max":0,"o":"m 307 1131 b 274 1179 278 1133 267 1154 l 292 1244 b 349 1269 299 1272 319 1283 l 621 1140 b 638 1101 635 1133 642 1117 b 597 1081 631 1085 614 1081 l 307 1131 m 893 986 b 922 967 911 986 922 979 l 922 963 b 843 871 922 932 878 932 l 563 400 l 563 115 b 618 24 563 61 618 54 l 618 19 b 589 0 618 7 607 0 l 371 0 b 342 19 353 0 342 7 l 342 24 b 393 115 342 54 393 61 l 393 388 l 85 871 b 1 963 50 926 1 932 l 1 967 b 32 986 1 979 14 986 l 288 986 b 318 967 307 986 318 979 l 318 963 b 269 871 318 932 240 921 l 511 456 l 757 871 b 706 963 788 925 706 932 l 706 967 b 733 986 706 979 715 986 l 893 986 "},"Ỹ":{"ha":933,"x_min":0,"x_max":0,"o":"m 268 1081 b 251 1107 257 1081 249 1090 b 396 1253 265 1185 314 1253 b 613 1178 488 1253 553 1178 b 678 1215 644 1178 665 1192 b 704 1233 685 1229 693 1233 l 715 1233 b 732 1207 729 1233 736 1224 b 590 1064 708 1110 657 1064 b 374 1140 504 1064 440 1140 b 310 1103 344 1140 325 1126 b 282 1081 300 1088 297 1081 l 268 1081 m 893 986 b 922 967 911 986 922 979 l 922 963 b 843 871 922 932 878 932 l 563 400 l 563 115 b 618 24 563 61 618 54 l 618 19 b 589 0 618 7 607 0 l 371 0 b 342 19 353 0 342 7 l 342 24 b 393 115 342 54 393 61 l 393 388 l 85 871 b 1 963 50 926 1 932 l 1 967 b 32 986 1 979 14 986 l 288 986 b 318 967 307 986 318 979 l 318 963 b 269 871 318 932 240 921 l 511 456 l 757 871 b 706 963 788 925 706 932 l 706 967 b 733 986 706 979 715 986 l 893 986 "},"Z":{"ha":851,"x_min":0,"x_max":0,"o":"m 813 231 b 838 200 833 231 843 219 l 797 31 b 764 0 792 14 781 0 l 58 0 b 28 28 42 0 28 13 l 28 39 b 50 83 28 54 40 69 l 606 917 l 224 917 b 68 764 156 917 128 764 l 61 764 b 35 803 40 764 29 776 l 72 951 b 113 986 78 974 86 986 l 774 986 b 801 958 789 986 801 974 l 801 944 b 776 893 801 935 790 914 l 225 69 l 632 69 b 808 231 721 69 754 231 l 813 231 "},"Ź":{"ha":851,"x_min":0,"x_max":0,"o":"m 315 1082 b 276 1101 299 1081 283 1086 b 292 1140 271 1118 279 1133 l 565 1269 b 622 1246 593 1283 614 1272 l 639 1181 b 606 1132 647 1156 635 1135 l 315 1082 m 813 231 b 838 200 833 231 843 219 l 797 31 b 764 0 792 14 781 0 l 58 0 b 28 28 42 0 28 13 l 28 39 b 50 83 28 54 40 69 l 606 917 l 224 917 b 68 764 156 917 128 764 l 61 764 b 35 803 40 764 29 776 l 72 951 b 113 986 78 974 86 986 l 774 986 b 801 958 789 986 801 974 l 801 944 b 776 893 801 935 790 914 l 225 69 l 632 69 b 808 231 721 69 754 231 l 813 231 "},"Ž":{"ha":851,"x_min":0,"x_max":0,"o":"m 214 1206 b 254 1247 190 1231 229 1261 l 442 1143 l 628 1247 b 668 1206 656 1264 690 1226 l 507 1060 b 457 1039 490 1044 478 1039 l 419 1039 b 369 1060 399 1039 386 1044 m 813 231 b 838 200 833 231 843 219 l 797 31 b 764 0 792 14 781 0 l 58 0 b 28 28 42 0 28 13 l 28 39 b 50 83 28 54 40 69 l 606 917 l 224 917 b 68 764 156 917 128 764 l 61 764 b 35 803 40 764 29 776 l 72 951 b 113 986 78 974 86 986 l 774 986 b 801 958 789 986 801 974 l 801 944 b 776 893 801 935 790 914 l 225 69 l 632 69 b 808 231 721 69 754 231 l 813 231 "},"Ż":{"ha":851,"x_min":0,"x_max":0,"o":"m 450 1067 b 340 1165 383 1067 340 1108 b 450 1265 340 1222 383 1265 b 557 1165 514 1265 557 1222 b 450 1067 557 1108 514 1067 m 813 231 b 838 200 833 231 843 219 l 797 31 b 764 0 792 14 781 0 l 58 0 b 28 28 42 0 28 13 l 28 39 b 50 83 28 54 40 69 l 606 917 l 224 917 b 68 764 156 917 128 764 l 61 764 b 35 803 40 764 29 776 l 72 951 b 113 986 78 974 86 986 l 774 986 b 801 958 789 986 801 974 l 801 944 b 776 893 801 935 790 914 l 225 69 l 632 69 b 808 231 721 69 754 231 l 813 231 "},"a":{"ha":724,"x_min":0,"x_max":0,"o":"m 646 125 b 722 26 656 35 722 63 b 610 -8 722 0 669 -8 b 499 75 539 -8 504 7 b 306 -14 467 24 404 -14 b 46 196 154 -14 46 60 b 299 404 44 332 158 404 b 460 357 367 404 422 386 l 457 385 b 311 629 442 546 408 629 b 122 461 182 629 210 461 b 54 525 81 461 54 486 b 311 681 54 613 163 681 b 618 392 486 681 599 571 l 646 125 m 351 39 b 476 179 429 39 481 104 l 472 222 b 340 351 467 301 414 351 b 210 215 264 351 210 299 b 351 39 210 121 265 39 "},"á":{"ha":724,"x_min":0,"x_max":0,"o":"m 208 769 b 165 781 192 764 175 767 b 174 822 157 796 163 813 l 417 1001 b 478 989 442 1021 464 1014 l 507 928 b 483 874 519 906 511 882 l 208 769 m 646 125 b 722 26 656 35 722 63 b 610 -8 722 0 669 -8 b 499 75 539 -8 504 7 b 306 -14 467 24 404 -14 b 46 196 154 -14 46 60 b 299 404 44 332 158 404 b 460 357 367 404 422 386 l 457 385 b 311 629 442 546 408 629 b 122 461 182 629 210 461 b 54 525 81 461 54 486 b 311 681 54 613 163 681 b 618 392 486 681 599 571 l 646 125 m 351 39 b 476 179 429 39 481 104 l 472 222 b 340 351 467 301 414 351 b 210 215 264 351 210 299 b 351 39 210 121 265 39 "},"ă":{"ha":724,"x_min":0,"x_max":0,"o":"m 326 774 b 103 953 204 774 117 857 b 163 975 97 990 151 997 b 326 885 183 918 251 885 b 492 975 403 885 471 918 b 551 953 503 996 556 988 b 326 774 539 857 453 774 m 646 125 b 722 26 656 35 722 63 b 610 -8 722 0 669 -8 b 499 75 539 -8 504 7 b 306 -14 467 24 404 -14 b 46 196 154 -14 46 60 b 299 404 44 332 158 404 b 460 357 367 404 422 386 l 457 385 b 311 629 442 546 408 629 b 122 461 182 629 210 461 b 54 525 81 461 54 486 b 311 681 54 613 163 681 b 618 392 486 681 599 571 l 646 125 m 351 39 b 476 179 429 39 481 104 l 472 222 b 340 351 467 301 414 351 b 210 215 264 351 210 299 b 351 39 210 121 265 39 "},"â":{"ha":724,"x_min":0,"x_max":0,"o":"m 140 768 b 103 818 113 753 68 783 l 256 964 b 306 986 272 981 285 986 l 339 986 b 389 964 360 986 372 979 l 551 818 b 511 768 583 788 554 746 l 318 868 l 140 768 m 646 125 b 722 26 656 35 722 63 b 610 -8 722 0 669 -8 b 499 75 539 -8 504 7 b 306 -14 467 24 404 -14 b 46 196 154 -14 46 60 b 299 404 44 332 158 404 b 460 357 367 404 422 386 l 457 385 b 311 629 442 546 408 629 b 122 461 182 629 210 461 b 54 525 81 461 54 486 b 311 681 54 613 163 681 b 618 392 486 681 599 571 l 646 125 m 351 39 b 476 179 429 39 481 104 l 472 222 b 340 351 467 301 414 351 b 210 215 264 351 210 299 b 351 39 210 121 265 39 "},"ä":{"ha":724,"x_min":0,"x_max":0,"o":"m 183 786 b 78 882 121 786 78 826 b 183 978 78 938 121 978 b 286 882 246 978 286 938 b 183 786 286 826 246 786 m 475 786 b 371 882 413 786 371 826 b 475 978 371 938 413 978 b 579 882 536 978 579 938 b 475 786 579 826 536 786 m 646 125 b 722 26 656 35 722 63 b 610 -8 722 0 669 -8 b 499 75 539 -8 504 7 b 306 -14 467 24 404 -14 b 46 196 154 -14 46 60 b 299 404 44 332 158 404 b 460 357 367 404 422 386 l 457 385 b 311 629 442 546 408 629 b 122 461 182 629 210 461 b 54 525 81 461 54 486 b 311 681 54 613 163 681 b 618 392 486 681 599 571 l 646 125 m 351 39 b 476 179 429 39 481 104 l 472 222 b 340 351 467 301 414 351 b 210 215 264 351 210 299 b 351 39 210 121 265 39 "},"à":{"ha":724,"x_min":0,"x_max":0,"o":"m 169 868 b 146 922 142 876 135 899 l 176 983 b 238 996 189 1008 211 1015 l 479 817 b 488 775 492 807 496 789 b 444 763 478 760 461 758 l 169 868 m 646 125 b 722 26 656 35 722 63 b 610 -8 722 0 669 -8 b 499 75 539 -8 504 7 b 306 -14 467 24 404 -14 b 46 196 154 -14 46 60 b 299 404 44 332 158 404 b 460 357 367 404 422 386 l 457 385 b 311 629 442 546 408 629 b 122 461 182 629 210 461 b 54 525 81 461 54 486 b 311 681 54 613 163 681 b 618 392 486 681 599 571 l 646 125 m 351 39 b 476 179 429 39 481 104 l 472 222 b 340 351 467 301 414 351 b 210 215 264 351 210 299 b 351 39 210 121 265 39 "},"ā":{"ha":724,"x_min":0,"x_max":0,"o":"m 140 826 b 113 851 122 826 113 836 l 113 906 b 140 931 113 922 122 931 l 514 931 b 542 906 532 931 542 922 l 542 851 b 514 826 542 836 532 826 l 140 826 m 646 125 b 722 26 656 35 722 63 b 610 -8 722 0 669 -8 b 499 75 539 -8 504 7 b 306 -14 467 24 404 -14 b 46 196 154 -14 46 60 b 299 404 44 332 158 404 b 460 357 367 404 422 386 l 457 385 b 311 629 442 546 408 629 b 122 461 182 629 210 461 b 54 525 81 461 54 486 b 311 681 54 613 163 681 b 618 392 486 681 599 571 l 646 125 m 351 39 b 476 179 429 39 481 104 l 472 222 b 340 351 467 301 414 351 b 210 215 264 351 210 299 b 351 39 210 121 265 39 "},"ą":{"ha":724,"x_min":0,"x_max":0,"o":"m 722 26 b 644 -7 722 6 689 -4 b 574 -154 603 -57 574 -111 b 624 -221 574 -200 596 -221 b 657 -214 635 -221 644 -218 b 667 -278 692 -201 701 -264 b 597 -292 651 -286 624 -292 b 456 -176 529 -292 456 -257 b 576 -7 456 -117 503 -57 b 499 75 528 -1 503 19 b 306 -14 467 24 404 -14 b 46 196 154 -14 46 60 b 299 404 44 332 158 404 b 460 357 367 404 422 386 l 457 385 b 311 629 442 546 408 629 b 122 461 182 629 210 461 b 54 525 81 461 54 486 b 311 681 54 613 163 681 b 618 392 486 681 599 571 l 646 125 b 722 26 656 35 722 63 m 351 39 b 476 179 429 39 481 104 l 472 222 b 340 351 467 301 414 351 b 210 215 264 351 210 299 b 351 39 210 121 265 39 "},"å":{"ha":724,"x_min":0,"x_max":0,"o":"m 326 750 b 150 893 224 750 150 814 b 328 1040 150 979 222 1040 b 506 899 431 1040 506 979 b 326 750 506 813 435 750 m 328 986 b 250 896 283 986 250 957 b 328 801 250 842 283 801 b 406 896 372 801 406 835 b 328 986 406 950 372 986 m 646 125 b 722 26 656 35 722 63 b 610 -8 722 0 669 -8 b 499 75 539 -8 504 7 b 306 -14 467 24 404 -14 b 46 196 154 -14 46 60 b 299 404 44 332 158 404 b 460 357 367 404 422 386 l 457 385 b 311 629 442 546 408 629 b 122 461 182 629 210 461 b 54 525 81 461 54 486 b 311 681 54 613 163 681 b 618 392 486 681 599 571 l 646 125 m 351 39 b 476 179 429 39 481 104 l 472 222 b 340 351 467 301 414 351 b 210 215 264 351 210 299 b 351 39 210 121 265 39 "},"ã":{"ha":724,"x_min":0,"x_max":0,"o":"m 97 822 b 81 849 86 822 78 832 b 225 994 94 926 143 994 b 442 919 317 994 382 919 b 507 957 474 919 494 933 b 533 975 514 971 522 975 l 544 975 b 561 949 558 975 565 965 b 419 806 538 851 486 806 b 203 882 333 806 269 882 b 139 844 174 882 154 868 b 111 822 129 829 126 822 l 97 822 m 646 125 b 722 26 656 35 722 63 b 610 -8 722 0 669 -8 b 499 75 539 -8 504 7 b 306 -14 467 24 404 -14 b 46 196 154 -14 46 60 b 299 404 44 332 158 404 b 460 357 367 404 422 386 l 457 385 b 311 629 442 546 408 629 b 122 461 182 629 210 461 b 54 525 81 461 54 486 b 311 681 54 613 163 681 b 618 392 486 681 599 571 l 646 125 m 351 39 b 476 179 429 39 481 104 l 472 222 b 340 351 467 301 414 351 b 210 215 264 351 210 299 b 351 39 210 121 265 39 "},"æ":{"ha":1104,"x_min":0,"x_max":0,"o":"m 1026 210 b 1071 196 1042 229 1075 224 b 789 -8 1058 114 965 -8 b 519 136 674 -8 576 44 b 306 -14 501 57 432 -14 b 46 196 156 -14 46 63 b 299 404 46 328 153 404 b 461 357 368 404 422 386 l 458 385 b 311 629 443 546 408 629 b 124 461 183 629 217 461 b 54 526 81 461 54 488 b 311 681 54 618 178 681 b 547 576 413 681 493 643 b 792 686 606 644 693 686 b 1051 482 971 686 1051 579 b 981 385 1051 429 1024 400 l 644 261 b 849 108 679 167 750 108 b 1026 210 936 108 988 161 m 764 633 b 621 407 676 633 621 540 b 629 318 621 375 624 346 l 860 418 b 896 476 885 429 896 449 b 764 633 896 533 844 633 m 351 40 b 476 190 433 40 478 121 l 472 235 b 340 349 463 307 410 349 b 211 229 264 349 211 300 b 351 40 211 122 265 40 "},"ǽ":{"ha":1108,"x_min":0,"x_max":0,"o":"m 481 768 b 438 779 464 763 447 765 b 446 821 429 794 435 811 l 689 1000 b 750 988 714 1019 736 1013 l 779 926 b 756 872 792 904 783 881 l 481 768 m 1026 210 b 1071 196 1042 229 1075 224 b 789 -8 1058 114 965 -8 b 519 136 674 -8 576 44 b 306 -14 501 57 432 -14 b 46 196 156 -14 46 63 b 299 404 46 328 153 404 b 461 357 368 404 422 386 l 458 385 b 311 629 443 546 408 629 b 124 461 183 629 217 461 b 54 526 81 461 54 488 b 311 681 54 618 178 681 b 547 576 413 681 493 643 b 792 686 606 644 693 686 b 1051 482 971 686 1051 579 b 981 385 1051 429 1024 400 l 644 261 b 849 108 679 167 750 108 b 1026 210 936 108 988 161 m 764 633 b 621 407 676 633 621 540 b 629 318 621 375 624 346 l 860 418 b 896 476 885 429 896 449 b 764 633 896 533 844 633 m 351 40 b 476 190 433 40 478 121 l 472 235 b 340 349 463 307 410 349 b 211 229 264 349 211 300 b 351 40 211 122 265 40 "},"b":{"ha":801,"x_min":0,"x_max":0,"o":"m 439 681 b 761 344 606 681 761 556 b 440 -14 761 133 615 -14 b 243 74 357 -14 290 18 l 244 24 b 217 -3 244 6 235 -3 l 67 0 b 42 19 51 0 42 7 l 42 24 b 94 117 42 53 94 61 l 94 846 b 35 940 94 906 35 910 l 35 944 b 63 972 35 957 42 963 l 206 1040 b 256 1017 235 1054 256 1046 l 256 607 b 439 681 299 654 364 681 m 421 39 b 597 293 531 39 597 131 b 399 628 597 492 518 628 b 256 471 321 628 256 560 l 256 236 b 421 39 256 135 336 39 "},"c":{"ha":700,"x_min":0,"x_max":0,"o":"m 388 -14 b 31 336 186 -14 31 142 b 381 681 31 547 192 679 b 660 497 536 682 660 590 b 589 438 660 465 640 436 b 354 628 489 443 493 628 b 194 414 257 628 194 533 b 442 101 194 224 293 101 b 621 215 532 101 590 156 b 665 203 635 236 669 232 b 388 -14 651 94 558 -14 "},"ć":{"ha":700,"x_min":0,"x_max":0,"o":"m 244 769 b 201 781 228 764 211 767 b 210 822 193 796 199 813 l 453 1001 b 514 989 478 1021 500 1014 l 543 928 b 519 874 556 906 547 882 l 244 769 m 388 -14 b 31 336 186 -14 31 142 b 381 681 31 547 192 679 b 660 497 536 682 660 590 b 589 438 660 465 640 436 b 354 628 489 443 493 628 b 194 414 257 628 194 533 b 442 101 194 224 293 101 b 621 215 532 101 590 156 b 665 203 635 236 669 232 b 388 -14 651 94 558 -14 "},"č":{"ha":700,"x_min":0,"x_max":0,"o":"m 136 940 b 176 983 113 965 151 997 l 364 875 l 550 983 b 590 940 578 1000 613 961 l 429 788 b 379 767 413 772 400 767 l 342 767 b 292 788 321 767 308 772 m 621 215 b 665 203 635 236 669 232 b 388 -14 651 94 558 -14 b 31 336 186 -14 31 142 b 381 681 31 547 192 679 b 660 497 536 682 660 590 b 589 438 660 465 640 436 b 354 628 489 443 493 628 b 194 414 257 628 194 533 b 442 101 194 224 293 101 b 621 215 532 101 590 156 "},"ç":{"ha":700,"x_min":0,"x_max":0,"o":"m 621 215 b 665 203 635 236 669 232 b 401 -14 651 97 563 -8 l 399 -76 b 558 -182 478 -75 558 -108 b 383 -293 558 -254 476 -293 b 267 -268 331 -293 293 -281 b 275 -208 236 -253 249 -193 b 358 -229 292 -218 329 -229 b 435 -176 399 -229 436 -214 b 351 -131 433 -135 385 -131 b 317 -89 328 -131 313 -114 l 332 -10 b 31 336 158 17 31 160 b 381 681 31 547 192 679 b 660 497 536 682 660 590 b 589 438 660 465 640 436 b 354 628 489 443 493 628 b 194 414 257 628 194 533 b 442 101 194 224 293 101 b 621 215 532 101 590 156 "},"ċ":{"ha":700,"x_min":0,"x_max":0,"o":"m 363 782 b 247 886 293 782 247 825 b 363 990 247 946 293 990 b 475 886 431 990 475 946 b 363 782 475 825 431 782 m 388 -14 b 31 336 186 -14 31 142 b 381 681 31 547 192 679 b 660 497 536 682 660 590 b 589 438 660 465 640 436 b 354 628 489 443 493 628 b 194 414 257 628 194 533 b 442 101 194 224 293 101 b 621 215 532 101 590 156 b 665 203 635 236 669 232 b 388 -14 651 94 558 -14 "},"d":{"ha":799,"x_min":0,"x_max":0,"o":"m 707 115 b 760 24 707 61 760 53 l 760 19 b 736 0 760 7 751 0 l 592 0 b 564 26 575 0 565 11 l 560 75 b 365 -14 514 17 442 -14 b 42 335 196 -14 42 118 b 368 681 42 539 186 681 b 550 610 443 681 506 653 l 550 871 b 486 964 550 932 486 933 l 486 967 b 511 994 486 979 496 989 l 658 1042 b 707 1017 692 1053 707 1044 l 707 115 m 403 39 b 550 218 471 39 550 97 l 550 440 b 374 628 550 529 471 628 b 200 392 271 628 203 539 b 403 39 196 203 276 42 "},"ð":{"ha":799,"x_min":0,"x_max":0,"o":"m 535 856 b 754 336 661 732 754 553 b 403 -14 754 122 613 -14 b 42 340 186 -14 42 139 b 358 681 42 538 175 681 b 536 607 432 681 492 654 b 410 813 507 690 464 754 l 236 751 b 208 760 222 746 213 750 l 197 783 b 213 814 190 800 199 808 l 356 864 b 224 968 315 899 272 932 b 240 1031 188 997 213 1036 b 478 907 321 1008 403 967 l 631 960 b 658 951 643 964 654 960 l 669 926 b 653 897 675 914 668 903 l 535 856 m 426 39 b 585 258 521 39 585 132 l 585 281 b 369 628 564 528 472 628 b 206 394 267 628 206 538 b 426 39 206 192 294 39 "},"ď":{"ha":824,"x_min":0,"x_max":0,"o":"m 929 1107 b 958 1075 947 1107 958 1094 b 815 768 958 936 894 828 b 772 764 804 760 786 754 l 763 771 b 763 810 751 779 751 794 b 840 1075 817 885 840 978 b 867 1107 840 1092 851 1107 l 929 1107 m 707 115 b 760 24 707 61 760 53 l 760 19 b 736 0 760 7 751 0 l 592 0 b 564 26 575 0 565 11 l 560 75 b 365 -14 514 17 442 -14 b 42 335 196 -14 42 118 b 368 681 42 539 186 681 b 550 610 443 681 506 653 l 550 871 b 486 964 550 932 486 933 l 486 967 b 511 994 486 979 496 989 l 658 1042 b 707 1017 692 1053 707 1044 l 707 115 m 403 39 b 550 218 471 39 550 97 l 550 440 b 374 628 550 529 471 628 b 200 392 271 628 203 539 b 403 39 196 203 276 42 "},"đ":{"ha":799,"x_min":0,"x_max":0,"o":"m 792 815 b 814 796 806 815 814 807 l 814 768 b 792 747 814 753 806 747 l 707 747 l 707 115 b 760 24 707 61 760 53 l 760 19 b 736 0 760 7 751 0 l 592 0 b 564 26 575 0 565 11 l 560 75 b 365 -14 514 17 442 -14 b 42 335 196 -14 42 118 b 368 681 42 539 186 681 b 550 610 443 681 506 653 l 550 747 l 382 747 b 361 765 369 747 361 751 l 361 796 b 382 815 361 810 369 815 l 550 815 l 550 871 b 486 964 550 932 486 933 l 486 967 b 511 994 486 979 496 989 l 658 1042 b 707 1017 692 1053 707 1044 l 707 815 l 792 815 m 403 39 b 550 218 471 39 550 97 l 550 440 b 374 628 550 529 471 628 b 200 392 271 628 203 539 b 403 39 196 203 276 42 "},"e":{"ha":685,"x_min":0,"x_max":0,"o":"m 608 204 b 653 190 624 224 656 218 b 371 -14 640 108 547 -14 b 42 339 185 -14 42 124 b 374 681 42 538 190 681 b 633 476 553 681 633 574 b 563 379 633 424 606 394 l 226 256 b 431 103 261 161 332 103 b 608 204 518 103 581 149 m 346 628 b 203 401 258 628 203 535 b 211 313 203 369 206 340 l 442 413 b 478 471 467 424 478 443 b 346 628 478 528 426 628 "},"é":{"ha":685,"x_min":0,"x_max":0,"o":"m 226 769 b 183 781 210 764 193 767 b 192 822 175 796 181 813 l 435 1001 b 496 989 460 1021 482 1014 l 525 928 b 501 874 538 906 529 882 l 226 769 m 608 204 b 653 190 624 224 656 218 b 371 -14 640 108 547 -14 b 42 339 185 -14 42 124 b 374 681 42 538 190 681 b 633 476 553 681 633 574 b 563 379 633 424 606 394 l 226 256 b 431 103 261 161 332 103 b 608 204 518 103 581 149 m 346 628 b 203 401 258 628 203 535 b 211 313 203 369 206 340 l 442 413 b 478 471 467 424 478 443 b 346 628 478 528 426 628 "},"ě":{"ha":685,"x_min":0,"x_max":0,"o":"m 119 940 b 160 983 96 965 135 997 l 347 875 l 533 983 b 574 940 561 1000 596 961 l 413 788 b 363 767 396 772 383 767 l 325 767 b 275 788 304 767 292 772 m 608 204 b 653 190 624 224 656 218 b 371 -14 640 108 547 -14 b 42 339 185 -14 42 124 b 374 681 42 538 190 681 b 633 476 553 681 633 574 b 563 379 633 424 606 394 l 226 256 b 431 103 261 161 332 103 b 608 204 518 103 581 149 m 346 628 b 203 401 258 628 203 535 b 211 313 203 369 206 340 l 442 413 b 478 471 467 424 478 443 b 346 628 478 528 426 628 "},"ê":{"ha":685,"x_min":0,"x_max":0,"o":"m 160 768 b 122 818 132 753 88 783 l 275 964 b 325 986 292 981 304 986 l 358 986 b 408 964 379 986 392 979 l 571 818 b 531 768 603 788 574 746 l 338 868 l 160 768 m 608 204 b 653 190 624 224 656 218 b 371 -14 640 108 547 -14 b 42 339 185 -14 42 124 b 374 681 42 538 190 681 b 633 476 553 681 633 574 b 563 379 633 424 606 394 l 226 256 b 431 103 261 161 332 103 b 608 204 518 103 581 149 m 346 628 b 203 401 258 628 203 535 b 211 313 203 369 206 340 l 442 413 b 478 471 467 424 478 443 b 346 628 478 528 426 628 "},"ë":{"ha":685,"x_min":0,"x_max":0,"o":"m 201 786 b 96 882 139 786 96 826 b 201 978 96 938 139 978 b 304 882 264 978 304 938 b 201 786 304 826 264 786 m 493 786 b 389 882 431 786 389 826 b 493 978 389 938 431 978 b 597 882 554 978 597 938 b 493 786 597 826 554 786 m 608 204 b 653 190 624 224 656 218 b 371 -14 640 108 547 -14 b 42 339 185 -14 42 124 b 374 681 42 538 190 681 b 633 476 553 681 633 574 b 563 379 633 424 606 394 l 226 256 b 431 103 261 161 332 103 b 608 204 518 103 581 149 m 346 628 b 203 401 258 628 203 535 b 211 313 203 369 206 340 l 442 413 b 478 471 467 424 478 443 b 346 628 478 528 426 628 "},"ė":{"ha":685,"x_min":0,"x_max":0,"o":"m 346 782 b 231 886 276 782 231 825 b 346 990 231 946 276 990 b 458 886 414 990 458 946 b 346 782 458 825 414 782 m 608 204 b 653 190 624 224 656 218 b 371 -14 640 108 547 -14 b 42 339 185 -14 42 124 b 374 681 42 538 190 681 b 633 476 553 681 633 574 b 563 379 633 424 606 394 l 226 256 b 431 103 261 161 332 103 b 608 204 518 103 581 149 m 346 628 b 203 401 258 628 203 535 b 211 313 203 369 206 340 l 442 413 b 478 471 467 424 478 443 b 346 628 478 528 426 628 "},"è":{"ha":685,"x_min":0,"x_max":0,"o":"m 189 868 b 165 922 161 876 154 899 l 196 983 b 257 996 208 1008 231 1015 l 499 817 b 507 775 511 807 515 789 b 464 763 497 760 481 758 l 189 868 m 608 204 b 653 190 624 224 656 218 b 371 -14 640 108 547 -14 b 42 339 185 -14 42 124 b 374 681 42 538 190 681 b 633 476 553 681 633 574 b 563 379 633 424 606 394 l 226 256 b 431 103 261 161 332 103 b 608 204 518 103 581 149 m 346 628 b 203 401 258 628 203 535 b 211 313 203 369 206 340 l 442 413 b 478 471 467 424 478 443 b 346 628 478 528 426 628 "},"ē":{"ha":685,"x_min":0,"x_max":0,"o":"m 158 826 b 131 851 140 826 131 836 l 131 906 b 158 931 131 922 140 931 l 532 931 b 560 906 550 931 560 922 l 560 851 b 532 826 560 836 550 826 l 158 826 m 608 204 b 653 190 624 224 656 218 b 371 -14 640 108 547 -14 b 42 339 185 -14 42 124 b 374 681 42 538 190 681 b 633 476 553 681 633 574 b 563 379 633 424 606 394 l 226 256 b 431 103 261 161 332 103 b 608 204 518 103 581 149 m 346 628 b 203 401 258 628 203 535 b 211 313 203 369 206 340 l 442 413 b 478 471 467 424 478 443 b 346 628 478 528 426 628 "},"ę":{"ha":685,"x_min":0,"x_max":0,"o":"m 608 204 b 653 190 624 224 656 218 b 525 24 644 138 603 67 b 439 -140 475 -29 439 -93 b 489 -207 439 -186 461 -207 b 522 -200 500 -207 510 -204 b 532 -264 557 -187 567 -250 b 463 -278 517 -272 489 -278 b 321 -162 394 -278 321 -243 b 417 -11 321 -110 358 -57 b 371 -14 401 -12 386 -14 b 42 339 185 -14 42 124 b 374 681 42 538 190 681 b 633 476 553 681 633 574 b 563 379 633 424 606 394 l 226 256 b 431 103 261 161 332 103 b 608 204 518 103 581 149 m 346 628 b 203 401 258 628 203 535 b 211 313 203 369 206 340 l 442 413 b 478 471 467 424 478 443 b 346 628 478 528 426 628 "},"f":{"ha":496,"x_min":0,"x_max":0,"o":"m 385 1021 b 581 871 490 1021 581 953 b 517 811 581 843 558 811 b 354 969 378 811 472 968 b 294 667 258 971 258 819 l 478 667 b 501 643 492 667 501 656 l 501 621 b 478 599 501 608 492 599 l 300 599 l 300 117 b 367 25 300 61 367 56 l 367 19 b 343 0 367 8 357 0 l 108 0 b 83 19 93 0 83 8 l 83 25 b 138 117 83 56 138 61 l 138 599 l 31 599 b 6 621 17 599 6 608 l 6 643 b 31 667 6 656 17 667 l 138 667 l 138 771 b 385 1021 138 913 219 1021 "},"g":{"ha":749,"x_min":0,"x_max":0,"o":"m 644 667 b 704 628 706 667 717 649 b 596 586 688 592 638 597 b 683 401 647 540 683 469 b 522 156 683 290 621 201 b 694 -11 643 128 694 65 b 360 -212 694 -135 551 -212 b 39 -11 150 -212 39 -110 b 106 54 39 22 60 54 b 365 -161 208 54 168 -160 b 531 -18 465 -161 531 -103 b 408 125 531 61 485 117 b 357 122 392 124 375 122 b 44 394 181 122 44 240 b 364 681 44 563 174 681 b 644 667 456 681 486 667 m 206 465 b 383 176 206 308 286 176 b 522 340 469 176 522 246 b 338 628 522 492 449 628 b 206 465 256 628 206 560 "},"ğ":{"ha":749,"x_min":0,"x_max":0,"o":"m 376 767 b 153 946 254 767 167 850 b 213 968 147 983 201 990 b 376 878 233 911 301 878 b 542 968 453 878 521 911 b 601 946 553 989 606 981 b 376 767 589 850 503 767 m 644 667 b 704 628 706 667 717 649 b 596 586 688 592 638 597 b 683 401 647 540 683 469 b 522 156 683 290 621 201 b 694 -11 643 128 694 65 b 360 -212 694 -135 551 -212 b 39 -11 150 -212 39 -110 b 106 54 39 22 60 54 b 365 -161 208 54 168 -160 b 531 -18 465 -161 531 -103 b 408 125 531 61 485 117 b 357 122 392 124 375 122 b 44 394 181 122 44 240 b 364 681 44 563 174 681 b 644 667 456 681 486 667 m 206 465 b 383 176 206 308 286 176 b 522 340 469 176 522 246 b 338 628 522 492 449 628 b 206 465 256 628 206 560 "},"ģ":{"ha":749,"x_min":0,"x_max":0,"o":"m 360 768 b 257 888 304 768 257 813 b 413 1140 257 983 308 1071 b 443 1106 435 1154 463 1126 b 369 989 394 1058 375 1029 b 382 967 367 976 369 967 b 458 874 425 967 458 929 b 360 768 458 813 419 768 m 644 667 b 704 628 706 667 717 649 b 596 586 688 592 638 597 b 683 401 647 540 683 469 b 522 156 683 290 621 201 b 694 -11 643 128 694 65 b 360 -212 694 -135 551 -212 b 39 -11 150 -212 39 -110 b 106 54 39 22 60 54 b 365 -161 208 54 168 -160 b 531 -18 465 -161 531 -103 b 408 125 531 61 485 117 b 357 122 392 124 375 122 b 44 394 181 122 44 240 b 364 681 44 563 174 681 b 644 667 456 681 486 667 m 206 465 b 383 176 206 308 286 176 b 522 340 469 176 522 246 b 338 628 522 492 449 628 b 206 465 256 628 206 560 "},"ġ":{"ha":749,"x_min":0,"x_max":0,"o":"m 378 775 b 263 879 308 775 263 818 b 378 983 263 939 308 983 b 490 879 446 983 490 939 b 378 775 490 818 446 775 m 644 667 b 704 628 706 667 717 649 b 596 586 688 592 638 597 b 683 401 647 540 683 469 b 522 156 683 290 621 201 b 694 -11 643 128 694 65 b 360 -212 694 -135 551 -212 b 39 -11 150 -212 39 -110 b 106 54 39 22 60 54 b 365 -161 208 54 168 -160 b 531 -18 465 -161 531 -103 b 408 125 531 61 485 117 b 357 122 392 124 375 122 b 44 394 181 122 44 240 b 364 681 44 563 174 681 b 644 667 456 681 486 667 m 206 465 b 383 176 206 308 286 176 b 522 340 469 176 522 246 b 338 628 522 492 449 628 b 206 465 256 628 206 560 "},"h":{"ha":807,"x_min":0,"x_max":0,"o":"m 728 118 b 778 25 732 63 778 57 l 778 19 b 749 0 778 7 767 0 l 544 0 b 515 19 526 0 515 7 l 515 25 b 565 117 515 57 568 63 l 551 392 b 406 614 544 543 490 614 b 260 442 317 614 260 542 l 260 115 b 317 25 260 61 317 57 l 317 21 b 286 0 317 8 304 0 l 71 0 b 42 21 53 0 42 8 l 42 25 b 97 115 42 57 97 61 l 97 853 b 39 943 97 911 39 915 l 39 947 b 63 976 39 960 47 969 l 211 1042 b 256 1019 239 1054 256 1044 l 254 588 b 449 681 296 646 365 681 b 711 388 579 681 699 597 l 728 118 "},"ħ":{"ha":807,"x_min":0,"x_max":0,"o":"m 728 118 b 778 25 732 63 778 57 l 778 19 b 749 0 778 7 767 0 l 544 0 b 515 19 526 0 515 7 l 515 25 b 565 117 515 57 568 63 l 551 392 b 406 614 544 543 490 614 b 260 442 317 614 260 542 l 260 115 b 317 25 260 61 317 57 l 317 21 b 286 0 317 8 304 0 l 71 0 b 42 21 53 0 42 8 l 42 25 b 97 115 42 57 97 61 l 97 747 l 10 747 b -11 765 -3 747 -11 751 l -11 796 b 10 815 -11 810 -3 815 l 97 815 l 97 853 b 39 943 97 911 39 915 l 39 947 b 63 976 39 960 47 969 l 211 1042 b 256 1019 239 1054 256 1044 l 256 815 l 419 815 b 442 796 433 815 442 807 l 442 768 b 419 747 442 753 433 747 l 254 747 l 254 588 b 449 681 296 646 365 681 b 711 388 579 681 699 597 l 728 118 "},"i":{"ha":368,"x_min":0,"x_max":0,"o":"m 185 782 b 69 886 115 782 69 825 b 185 990 69 946 115 990 b 297 886 253 990 297 946 b 185 782 297 825 253 782 m 82 0 b 53 21 64 0 53 8 l 53 26 b 104 117 53 57 104 63 l 104 481 b 53 576 104 538 53 551 l 53 581 b 78 606 53 592 63 597 l 217 675 b 267 651 249 690 267 674 l 267 117 b 324 26 267 63 324 57 l 324 21 b 293 0 324 8 311 0 l 82 0 "},"ı":{"ha":364,"x_min":0,"x_max":0,"o":"m 82 0 b 53 21 64 0 53 8 l 53 26 b 104 117 53 57 104 63 l 104 481 b 53 576 104 538 53 551 l 53 581 b 78 606 53 592 63 597 l 217 675 b 267 651 249 690 267 674 l 267 117 b 324 26 267 63 324 57 l 324 21 b 293 0 324 8 311 0 l 82 0 "},"í":{"ha":368,"x_min":0,"x_max":0,"o":"m 75 769 b 32 781 58 764 42 767 b 40 822 24 796 29 813 l 283 1001 b 344 989 308 1021 331 1014 l 374 928 b 350 874 386 906 378 882 l 75 769 m 82 0 b 53 21 64 0 53 8 l 53 26 b 104 117 53 57 104 63 l 104 481 b 53 576 104 538 53 551 l 53 581 b 78 606 53 592 63 597 l 217 675 b 267 651 249 690 267 674 l 267 117 b 324 26 267 63 324 57 l 324 21 b 293 0 324 8 311 0 l 82 0 "},"î":{"ha":368,"x_min":0,"x_max":0,"o":"m 418 818 b 378 768 450 788 421 746 l 185 868 l 7 768 b -31 818 -21 753 -65 783 l 122 964 b 172 986 139 981 151 986 l 206 986 b 256 964 226 986 239 979 l 418 818 m 267 117 b 324 26 267 63 324 57 l 324 21 b 293 0 324 8 311 0 l 82 0 b 53 21 64 0 53 8 l 53 26 b 104 117 53 57 104 63 l 104 481 b 53 576 104 538 53 551 l 53 581 b 78 606 53 592 63 597 l 217 675 b 267 651 249 690 267 674 l 267 117 "},"ï":{"ha":368,"x_min":0,"x_max":0,"o":"m 49 786 b -57 882 -14 786 -57 826 b 49 978 -57 938 -14 978 b 151 882 111 978 151 938 b 49 786 151 826 111 786 m 340 786 b 236 882 278 786 236 826 b 340 978 236 938 278 978 b 444 882 401 978 444 938 b 340 786 444 826 401 786 m 82 0 b 53 21 64 0 53 8 l 53 26 b 104 117 53 57 104 63 l 104 481 b 53 576 104 538 53 551 l 53 581 b 78 606 53 592 63 597 l 217 675 b 267 651 249 690 267 674 l 267 117 b 324 26 267 63 324 57 l 324 21 b 293 0 324 8 311 0 l 82 0 "},"ì":{"ha":368,"x_min":0,"x_max":0,"o":"m 36 868 b 13 922 8 876 1 899 l 43 983 b 104 996 56 1008 78 1015 l 346 817 b 354 775 358 807 363 789 b 311 763 344 760 328 758 m 82 0 b 53 21 64 0 53 8 l 53 26 b 104 117 53 57 104 63 l 104 481 b 53 576 104 538 53 551 l 53 581 b 78 606 53 592 63 597 l 217 675 b 267 651 249 690 267 674 l 267 117 b 324 26 267 63 324 57 l 324 21 b 293 0 324 8 311 0 l 82 0 "},"ĳ":{"ha":726,"x_min":0,"x_max":0,"o":"m 185 782 b 69 886 115 782 69 825 b 185 990 69 946 115 990 b 297 886 253 990 297 946 b 185 782 297 825 253 782 m 550 782 b 435 886 481 782 435 825 b 550 990 435 946 481 990 b 663 886 618 990 663 946 b 550 782 663 825 618 782 m 82 0 b 53 21 64 0 53 8 l 53 26 b 104 117 53 57 104 63 l 104 481 b 53 576 104 538 53 551 l 53 581 b 78 606 53 592 63 597 l 217 675 b 267 651 249 690 267 674 l 267 117 b 324 26 267 63 324 57 l 324 21 b 293 0 324 8 311 0 l 82 0 m 446 -262 b 269 -139 342 -262 269 -218 b 340 -69 269 -97 299 -69 b 476 -204 442 -69 396 -204 b 536 -135 513 -204 536 -175 b 479 47 536 -54 479 -24 l 479 481 b 428 576 479 539 428 549 l 428 581 b 451 606 428 592 436 597 l 596 675 b 646 651 626 690 646 674 l 646 0 b 613 -162 646 -74 635 -117 b 446 -262 582 -224 532 -262 "},"ī":{"ha":368,"x_min":0,"x_max":0,"o":"m 6 826 b -22 851 -12 826 -22 836 l -22 906 b 6 931 -22 922 -12 931 l 379 931 b 407 906 397 931 407 922 l 407 851 b 379 826 407 836 397 826 l 6 826 m 82 0 b 53 21 64 0 53 8 l 53 26 b 104 117 53 57 104 63 l 104 481 b 53 576 104 538 53 551 l 53 581 b 78 606 53 592 63 597 l 217 675 b 267 651 249 690 267 674 l 267 117 b 324 26 267 63 324 57 l 324 21 b 293 0 324 8 311 0 l 82 0 "},"į":{"ha":368,"x_min":0,"x_max":0,"o":"m 185 782 b 69 886 115 782 69 825 b 185 990 69 946 115 990 b 297 886 253 990 297 946 b 185 782 297 825 253 782 m 267 117 b 324 26 267 63 324 57 l 324 21 b 293 0 324 8 311 0 l 247 0 b 164 -161 199 -53 164 -114 b 214 -228 164 -207 186 -228 b 247 -221 225 -228 235 -225 b 257 -285 282 -208 292 -271 b 188 -299 242 -293 214 -299 b 46 -183 119 -299 46 -264 b 188 0 46 -118 103 -51 l 82 0 b 53 21 64 0 53 8 l 53 26 b 104 117 53 57 104 63 l 104 481 b 53 576 104 538 53 551 l 53 581 b 78 606 53 592 63 597 l 217 675 b 267 651 249 690 267 674 l 267 117 "},"ĩ":{"ha":368,"x_min":0,"x_max":0,"o":"m 90 994 b 307 919 182 994 247 919 b 372 957 339 919 360 933 b 399 975 379 971 388 975 l 410 975 b 426 949 424 975 431 965 b 285 806 403 851 351 806 b 68 882 199 806 135 882 b 4 844 39 882 19 868 b -24 822 -6 829 -8 822 l -37 822 b -54 849 -49 822 -57 832 b 90 994 -40 926 8 994 m 82 0 b 53 21 64 0 53 8 l 53 26 b 104 117 53 57 104 63 l 104 481 b 53 576 104 538 53 551 l 53 581 b 78 606 53 592 63 597 l 217 675 b 267 651 249 690 267 674 l 267 117 b 324 26 267 63 324 57 l 324 21 b 293 0 324 8 311 0 l 82 0 "},"j":{"ha":358,"x_min":0,"x_max":0,"o":"m 182 782 b 67 886 113 782 67 825 b 182 990 67 946 113 990 b 294 886 250 990 294 946 b 182 782 294 825 250 782 m 78 -262 b -99 -139 -26 -262 -99 -218 b -28 -69 -99 -97 -69 -69 b 108 -204 74 -69 28 -204 b 168 -135 144 -204 168 -175 b 111 47 168 -54 111 -24 l 111 481 b 60 576 111 539 60 549 l 60 581 b 83 606 60 592 68 597 l 228 675 b 278 651 258 690 278 674 l 278 0 b 244 -162 278 -74 267 -117 b 78 -262 214 -224 164 -262 "},"ȷ":{"ha":358,"x_min":0,"x_max":0,"o":"m 78 -262 b -99 -139 -26 -262 -99 -218 b -28 -69 -99 -97 -69 -69 b 108 -204 74 -69 28 -204 b 168 -135 144 -204 168 -175 b 111 47 168 -54 111 -24 l 111 481 b 60 576 111 539 60 549 l 60 581 b 83 606 60 592 68 597 l 228 675 b 278 651 258 690 278 674 l 278 0 b 244 -162 278 -74 267 -117 b 78 -262 214 -224 164 -262 "},"k":{"ha":756,"x_min":0,"x_max":0,"o":"m 704 92 b 775 24 728 60 775 53 l 775 19 b 750 0 775 7 765 0 l 526 0 b 503 21 513 0 503 8 l 503 24 b 529 92 503 54 554 60 l 351 329 l 257 242 l 257 115 b 314 25 257 61 314 57 l 314 21 b 283 0 314 8 301 0 l 72 0 b 43 21 54 0 43 8 l 43 25 b 94 115 43 57 94 61 l 94 847 b 36 942 94 906 36 917 l 36 946 b 60 971 36 958 44 964 l 207 1040 b 257 1018 238 1054 257 1039 l 257 333 l 507 551 b 475 642 546 585 475 613 l 475 646 b 500 667 475 660 485 667 l 678 667 b 701 647 692 667 701 660 l 701 643 b 593 553 701 613 640 596 l 457 428 l 704 92 "},"ķ":{"ha":760,"x_min":0,"x_max":0,"o":"m 704 92 b 775 24 728 60 775 53 l 775 19 b 750 0 775 7 765 0 l 526 0 b 503 21 513 0 503 8 l 503 24 b 529 92 503 54 554 60 l 351 329 l 257 242 l 257 115 b 314 25 257 61 314 57 l 314 21 b 283 0 314 8 301 0 l 72 0 b 43 21 54 0 43 8 l 43 25 b 94 115 43 57 94 61 l 94 847 b 36 942 94 906 36 917 l 36 946 b 60 971 36 958 44 964 l 207 1040 b 257 1018 238 1054 257 1039 l 257 333 l 507 551 b 475 642 546 585 475 613 l 475 646 b 500 667 475 660 485 667 l 678 667 b 701 647 692 667 701 660 l 701 643 b 593 553 701 613 640 596 l 457 428 l 704 92 m 389 -67 b 489 -183 443 -67 489 -110 b 338 -429 489 -275 439 -362 b 307 -396 315 -442 288 -415 b 379 -282 356 -349 374 -321 b 367 -260 382 -269 379 -260 b 293 -168 325 -260 293 -222 b 389 -67 293 -110 331 -67 "},"ĸ":{"ha":769,"x_min":0,"x_max":0,"o":"m 725 92 b 789 24 750 58 789 53 l 789 19 b 765 0 789 7 779 0 l 549 0 b 524 21 535 0 524 8 l 524 24 b 550 92 524 54 574 58 l 367 329 l 272 243 l 272 115 b 329 25 272 61 329 57 l 329 21 b 299 0 329 8 317 0 l 83 0 b 53 21 65 0 53 8 l 53 25 b 106 115 53 57 106 61 l 106 619 b 46 714 106 678 46 689 l 46 718 b 71 743 46 731 56 736 l 221 813 b 272 790 253 828 272 811 l 272 333 l 522 551 b 489 642 561 585 489 613 l 489 646 b 514 667 489 660 500 667 l 692 667 b 717 647 706 667 717 660 l 717 643 b 608 553 717 613 656 596 l 472 428 l 725 92 "},"l":{"ha":357,"x_min":0,"x_max":0,"o":"m 74 0 b 44 21 56 0 44 8 l 44 25 b 96 115 44 57 96 61 l 96 847 b 44 942 96 906 44 917 l 44 946 b 68 971 44 958 54 964 l 208 1040 b 258 1018 240 1056 258 1039 l 258 115 b 315 25 258 61 315 57 l 315 21 b 285 0 315 8 303 0 l 74 0 "},"ĺ":{"ha":361,"x_min":0,"x_max":0,"o":"m 13 1100 b -26 1119 -4 1099 -19 1104 b -11 1158 -32 1136 -24 1151 l 263 1288 b 319 1264 290 1301 311 1290 l 336 1199 b 303 1150 344 1174 332 1153 l 13 1100 m 74 0 b 44 21 56 0 44 8 l 44 25 b 96 115 44 57 96 61 l 96 847 b 44 942 96 906 44 917 l 44 946 b 68 971 44 958 54 964 l 208 1040 b 258 1018 240 1056 258 1039 l 258 115 b 315 25 258 61 315 57 l 315 21 b 285 0 315 8 303 0 l 74 0 "},"ľ":{"ha":382,"x_min":0,"x_max":0,"o":"m 313 774 b 313 813 301 782 301 797 b 390 1078 367 888 390 981 b 417 1110 390 1094 401 1110 l 479 1110 b 508 1078 497 1110 508 1097 b 365 771 508 939 444 831 b 322 767 354 763 336 757 m 74 0 b 44 21 56 0 44 8 l 44 25 b 96 115 44 57 96 61 l 96 847 b 44 942 96 906 44 917 l 44 946 b 68 971 44 958 54 964 l 208 1040 b 258 1018 240 1056 258 1039 l 258 115 b 315 25 258 61 315 57 l 315 21 b 285 0 315 8 303 0 l 74 0 "},"ļ":{"ha":361,"x_min":0,"x_max":0,"o":"m 74 0 b 44 21 56 0 44 8 l 44 25 b 96 115 44 57 96 61 l 96 847 b 44 942 96 906 44 917 l 44 946 b 68 971 44 958 54 964 l 208 1040 b 258 1018 240 1056 258 1039 l 258 115 b 315 25 258 61 315 57 l 315 21 b 285 0 315 8 303 0 l 74 0 m 135 -412 b 104 -379 113 -425 85 -399 b 176 -265 153 -332 171 -304 b 164 -243 179 -253 176 -243 b 90 -151 122 -243 90 -206 b 186 -50 90 -93 128 -50 b 286 -167 240 -50 286 -93 b 135 -412 286 -258 236 -346 "},"ŀ":{"ha":538,"x_min":0,"x_max":0,"o":"m 74 0 b 44 21 56 0 44 8 l 44 25 b 96 115 44 57 96 61 l 96 847 b 44 942 96 906 44 917 l 44 946 b 68 971 44 958 54 964 l 208 1040 b 258 1018 240 1056 258 1039 l 258 115 b 315 25 258 61 315 57 l 315 21 b 285 0 315 8 303 0 l 74 0 m 439 436 b 331 536 379 436 331 469 b 439 636 331 604 379 636 b 547 536 499 636 547 604 b 439 436 547 469 499 436 "},"ł":{"ha":453,"x_min":0,"x_max":0,"o":"m 440 631 b 432 601 446 622 444 610 l 315 525 l 315 115 b 372 25 315 61 372 57 l 372 21 b 342 0 372 8 360 0 l 131 0 b 101 21 113 0 101 8 l 101 25 b 153 115 101 57 153 61 l 153 418 l 65 361 b 39 365 54 354 46 357 l 19 396 b 26 424 11 407 15 415 l 153 507 l 153 847 b 101 942 153 906 101 917 l 101 946 b 125 971 101 958 111 964 l 265 1040 b 315 1018 297 1056 315 1039 l 315 614 l 389 663 b 422 660 401 672 415 671 l 440 631 "},"m":{"ha":1260,"x_min":0,"x_max":0,"o":"m 1182 117 b 1232 24 1185 61 1232 54 l 1232 18 b 1203 -1 1232 6 1219 -1 l 999 -1 b 969 18 981 -1 969 6 l 969 24 b 1018 115 969 54 1021 61 l 1004 378 b 857 614 996 550 944 614 b 718 450 781 614 722 544 b 724 383 722 429 724 407 l 724 115 b 772 24 724 61 772 54 l 772 18 b 743 -1 772 6 761 -1 l 542 -1 b 511 18 524 -1 511 6 l 511 24 b 560 115 511 54 560 61 l 560 393 b 414 614 560 535 497 614 b 268 449 328 614 272 542 l 269 115 b 325 24 269 61 325 54 l 325 18 b 296 -1 325 6 314 -1 l 81 -1 b 50 18 63 -1 50 6 l 50 24 b 106 115 50 54 106 61 l 106 488 b 44 581 106 546 44 550 l 44 585 b 69 610 44 596 54 603 l 211 675 b 256 650 240 690 256 674 l 256 568 b 454 681 296 636 368 681 b 689 543 554 681 642 632 b 906 681 725 631 808 681 b 1165 374 1039 681 1150 601 l 1182 117 "},"n":{"ha":817,"x_min":0,"x_max":0,"o":"m 739 117 b 789 25 742 61 789 56 l 789 19 b 758 -1 789 7 776 -1 l 556 -1 b 525 19 536 -1 525 7 l 525 25 b 575 117 525 56 578 61 l 561 385 b 415 614 554 543 500 614 b 269 442 326 614 269 542 l 269 115 b 326 25 269 61 326 56 l 326 19 b 296 -1 326 7 315 -1 l 81 -1 b 51 19 63 -1 51 7 l 51 25 b 107 115 51 56 107 61 l 107 488 b 44 581 107 549 44 550 l 44 585 b 69 610 44 596 54 603 l 204 675 b 247 650 233 690 247 674 l 247 560 b 458 681 286 635 363 681 b 722 379 589 681 708 597 l 739 117 "},"ń":{"ha":817,"x_min":0,"x_max":0,"o":"m 311 769 b 268 781 294 764 278 767 b 276 822 260 796 265 813 l 519 1001 b 581 989 544 1021 567 1014 l 610 928 b 586 874 622 906 614 882 l 311 769 m 739 117 b 789 25 742 61 789 56 l 789 19 b 758 -1 789 7 776 -1 l 556 -1 b 525 19 536 -1 525 7 l 525 25 b 575 117 525 56 578 61 l 561 385 b 415 614 554 543 500 614 b 269 442 326 614 269 542 l 269 115 b 326 25 269 61 326 56 l 326 19 b 296 -1 326 7 315 -1 l 81 -1 b 51 19 63 -1 51 7 l 51 25 b 107 115 51 56 107 61 l 107 488 b 44 581 107 549 44 550 l 44 585 b 69 610 44 596 54 603 l 204 675 b 247 650 233 690 247 674 l 247 560 b 458 681 286 635 363 681 b 722 379 589 681 708 597 l 739 117 "},"ŉ":{"ha":894,"x_min":0,"x_max":0,"o":"m 36 1072 b 144 947 94 1072 144 1026 b -19 682 144 847 90 754 b -51 718 -43 668 -72 697 b 26 840 0 768 19 799 b 13 864 29 854 26 864 b -67 963 -32 864 -67 904 b 36 1072 -67 1026 -26 1072 m 818 117 b 868 25 821 61 868 56 l 868 19 b 838 -1 868 7 856 -1 l 635 -1 b 604 19 615 -1 604 7 l 604 25 b 654 117 604 56 657 61 l 640 385 b 494 614 633 543 579 614 b 349 442 406 614 349 542 l 349 115 b 406 25 349 61 406 56 l 406 19 b 375 -1 406 7 394 -1 l 160 -1 b 131 19 142 -1 131 7 l 131 25 b 186 115 131 56 186 61 l 186 488 b 124 581 186 549 124 550 l 124 585 b 149 610 124 596 133 603 l 283 675 b 326 650 313 690 326 674 l 326 560 b 538 681 365 635 442 681 b 801 379 668 681 788 597 l 818 117 "},"ň":{"ha":817,"x_min":0,"x_max":0,"o":"m 204 940 b 244 983 181 965 219 997 l 432 875 l 618 983 b 658 940 646 1000 681 961 l 497 788 b 447 767 481 772 468 767 l 410 767 b 360 788 389 767 376 772 m 739 117 b 789 25 742 61 789 56 l 789 19 b 758 -1 789 7 776 -1 l 556 -1 b 525 19 536 -1 525 7 l 525 25 b 575 117 525 56 578 61 l 561 385 b 415 614 554 543 500 614 b 269 442 326 614 269 542 l 269 115 b 326 25 269 61 326 56 l 326 19 b 296 -1 326 7 315 -1 l 81 -1 b 51 19 63 -1 51 7 l 51 25 b 107 115 51 56 107 61 l 107 488 b 44 581 107 549 44 550 l 44 585 b 69 610 44 596 54 603 l 204 675 b 247 650 233 690 247 674 l 247 560 b 458 681 286 635 363 681 b 722 379 589 681 708 597 l 739 117 "},"ņ":{"ha":817,"x_min":0,"x_max":0,"o":"m 739 117 b 789 25 742 61 789 56 l 789 19 b 758 -1 789 7 776 -1 l 556 -1 b 525 19 536 -1 525 7 l 525 25 b 575 117 525 56 578 61 l 561 385 b 415 614 554 543 500 614 b 269 442 326 614 269 542 l 269 115 b 326 25 269 61 326 56 l 326 19 b 296 -1 326 7 315 -1 l 81 -1 b 51 19 63 -1 51 7 l 51 25 b 107 115 51 56 107 61 l 107 488 b 44 581 107 549 44 550 l 44 585 b 69 610 44 596 54 603 l 204 675 b 247 650 233 690 247 674 l 247 560 b 458 681 286 635 363 681 b 722 379 589 681 708 597 l 739 117 m 421 -67 b 521 -183 475 -67 521 -110 b 369 -429 521 -275 471 -362 b 339 -396 347 -442 319 -415 b 411 -282 388 -349 406 -321 b 399 -260 414 -269 411 -260 b 325 -168 357 -260 325 -222 b 421 -67 325 -110 363 -67 "},"ŋ":{"ha":800,"x_min":0,"x_max":0,"o":"m 744 25 b 714 -162 749 -53 736 -117 b 547 -265 685 -224 635 -265 b 374 -143 450 -265 374 -214 b 446 -78 374 -103 404 -78 b 578 -206 540 -78 497 -206 b 638 -135 614 -206 638 -178 b 578 69 638 -56 585 -42 l 561 378 b 413 614 551 539 501 614 b 269 468 335 614 279 554 l 269 117 b 326 25 269 63 326 56 l 326 19 b 296 0 326 7 314 0 l 81 0 b 51 19 63 0 51 7 l 51 25 b 107 117 51 56 107 63 l 107 485 b 44 581 107 539 44 550 l 44 585 b 69 610 44 596 54 603 l 204 675 b 247 650 233 690 247 674 l 247 563 b 456 681 285 638 360 681 b 722 374 586 681 707 596 l 744 25 "},"ñ":{"ha":817,"x_min":0,"x_max":0,"o":"m 199 822 b 182 849 188 822 179 832 b 326 994 196 926 244 994 b 543 919 418 994 483 919 b 608 957 575 919 596 933 b 635 975 615 971 624 975 l 646 975 b 663 949 660 975 667 965 b 521 806 639 851 588 806 b 304 882 435 806 371 882 b 240 844 275 882 256 868 b 213 822 231 829 228 822 l 199 822 m 739 117 b 789 25 742 61 789 56 l 789 19 b 758 -1 789 7 776 -1 l 556 -1 b 525 19 536 -1 525 7 l 525 25 b 575 117 525 56 578 61 l 561 385 b 415 614 554 543 500 614 b 269 442 326 614 269 542 l 269 115 b 326 25 269 61 326 56 l 326 19 b 296 -1 326 7 315 -1 l 81 -1 b 51 19 63 -1 51 7 l 51 25 b 107 115 51 56 107 61 l 107 488 b 44 581 107 549 44 550 l 44 585 b 69 610 44 596 54 603 l 204 675 b 247 650 233 690 247 674 l 247 560 b 458 681 286 635 363 681 b 722 379 589 681 708 597 l 739 117 "},"o":{"ha":794,"x_min":0,"x_max":0,"o":"m 417 -14 b 40 340 181 -14 40 156 b 385 681 40 538 194 681 b 751 329 604 681 751 521 b 417 -14 751 139 618 -14 m 438 39 b 588 272 524 39 588 122 b 367 628 588 467 494 628 b 204 394 268 628 204 547 b 438 39 204 222 297 39 "},"ó":{"ha":794,"x_min":0,"x_max":0,"o":"m 278 769 b 235 781 261 764 244 767 b 243 822 226 796 232 813 l 486 1001 b 547 989 511 1021 533 1014 l 576 928 b 553 874 589 906 581 882 l 278 769 m 417 -14 b 40 340 181 -14 40 156 b 385 681 40 538 194 681 b 751 329 604 681 751 521 b 417 -14 751 139 618 -14 m 438 39 b 588 272 524 39 588 122 b 367 628 588 467 494 628 b 204 394 268 628 204 547 b 438 39 204 222 297 39 "},"ô":{"ha":794,"x_min":0,"x_max":0,"o":"m 210 768 b 172 818 182 753 138 783 l 325 964 b 375 986 342 981 354 986 l 408 986 b 458 964 429 986 442 979 l 621 818 b 581 768 653 788 624 746 l 388 868 l 210 768 m 385 681 b 751 329 604 681 751 521 b 417 -14 751 139 618 -14 b 40 340 181 -14 40 156 b 385 681 40 538 194 681 m 438 39 b 588 272 524 39 588 122 b 367 628 588 467 494 628 b 204 394 268 628 204 547 b 438 39 204 222 297 39 "},"ö":{"ha":794,"x_min":0,"x_max":0,"o":"m 251 786 b 146 882 189 786 146 826 b 251 978 146 938 189 978 b 354 882 314 978 354 938 b 251 786 354 826 314 786 m 543 786 b 439 882 481 786 439 826 b 543 978 439 938 481 978 b 647 882 604 978 647 938 b 543 786 647 826 604 786 m 417 -14 b 40 340 181 -14 40 156 b 385 681 40 538 194 681 b 751 329 604 681 751 521 b 417 -14 751 139 618 -14 m 438 39 b 588 272 524 39 588 122 b 367 628 588 467 494 628 b 204 394 268 628 204 547 b 438 39 204 222 297 39 "},"ò":{"ha":794,"x_min":0,"x_max":0,"o":"m 239 868 b 215 922 211 876 204 899 l 246 983 b 307 996 258 1008 281 1015 l 549 817 b 557 775 561 807 565 789 b 514 763 547 760 531 758 m 417 -14 b 40 340 181 -14 40 156 b 385 681 40 538 194 681 b 751 329 604 681 751 521 b 417 -14 751 139 618 -14 m 438 39 b 588 272 524 39 588 122 b 367 628 588 467 494 628 b 204 394 268 628 204 547 b 438 39 204 222 297 39 "},"ő":{"ha":794,"x_min":0,"x_max":0,"o":"m 192 760 b 194 797 182 768 185 782 l 347 1026 b 404 1038 364 1053 385 1057 l 439 1006 b 440 946 461 986 463 963 l 229 765 b 192 760 215 754 201 751 m 458 760 b 461 796 449 768 451 781 l 615 1026 b 672 1038 632 1053 651 1057 l 707 1004 b 707 944 729 985 729 961 l 497 765 b 458 760 483 754 469 751 m 417 -14 b 40 340 181 -14 40 156 b 385 681 40 538 194 681 b 751 329 604 681 751 521 b 417 -14 751 139 618 -14 m 438 39 b 588 272 524 39 588 122 b 367 628 588 467 494 628 b 204 394 268 628 204 547 b 438 39 204 222 297 39 "},"ō":{"ha":794,"x_min":0,"x_max":0,"o":"m 210 826 b 182 851 192 826 182 836 l 182 906 b 210 931 182 922 192 931 l 583 931 b 611 906 601 931 611 922 l 611 851 b 583 826 611 836 601 826 l 210 826 m 417 -14 b 40 340 181 -14 40 156 b 385 681 40 538 194 681 b 751 329 604 681 751 521 b 417 -14 751 139 618 -14 m 438 39 b 588 272 524 39 588 122 b 367 628 588 467 494 628 b 204 394 268 628 204 547 b 438 39 204 222 297 39 "},"ǫ":{"ha":794,"x_min":0,"x_max":0,"o":"m 751 329 b 458 -11 751 153 636 8 b 389 -157 417 -61 389 -115 b 439 -224 389 -203 411 -224 b 472 -217 450 -224 460 -221 b 482 -281 507 -204 517 -267 b 413 -294 467 -289 439 -294 b 271 -179 344 -294 271 -260 b 386 -12 271 -121 317 -62 b 40 340 168 1 40 164 b 385 681 40 538 194 681 b 751 329 604 681 751 521 m 204 394 b 438 39 204 222 297 39 b 588 272 524 39 588 122 b 367 628 588 467 494 628 b 204 394 268 628 204 547 "},"ø":{"ha":806,"x_min":0,"x_max":0,"o":"m 676 554 b 757 329 728 493 757 414 b 422 -14 757 139 624 -14 b 172 69 319 -14 235 18 l 93 -7 b 68 -7 85 -15 76 -15 l 44 15 b 49 44 36 24 38 35 l 125 117 b 46 340 74 179 46 258 b 390 681 46 538 200 681 b 628 601 485 681 567 651 l 703 674 b 736 676 713 683 726 685 l 756 657 b 753 626 764 649 763 636 m 210 394 b 239 228 210 338 219 279 l 536 514 b 372 628 497 583 439 628 b 210 394 274 628 210 547 m 593 272 b 565 447 593 335 583 394 l 268 161 b 443 39 310 89 369 39 b 593 272 529 39 593 122 "},"ǿ":{"ha":806,"x_min":0,"x_max":0,"o":"m 274 769 b 231 781 257 764 240 767 b 239 822 222 796 228 813 l 482 1001 b 543 989 507 1021 529 1014 l 572 928 b 549 874 585 906 576 882 l 274 769 m 676 554 b 757 329 728 493 757 414 b 422 -14 757 139 624 -14 b 172 69 319 -14 235 18 l 93 -7 b 68 -7 85 -15 76 -15 l 44 15 b 49 44 36 24 38 35 l 125 117 b 46 340 74 179 46 258 b 390 681 46 538 200 681 b 628 601 485 681 567 651 l 703 674 b 736 676 713 683 726 685 l 756 657 b 753 626 764 649 763 636 m 210 394 b 239 228 210 338 219 279 l 536 514 b 372 628 497 583 439 628 b 210 394 274 628 210 547 m 593 272 b 565 447 593 335 583 394 l 268 161 b 443 39 310 89 369 39 b 593 272 529 39 593 122 "},"õ":{"ha":794,"x_min":0,"x_max":0,"o":"m 293 994 b 510 919 385 994 450 919 b 575 957 542 919 563 933 b 601 975 582 971 590 975 l 613 975 b 629 949 626 975 633 965 b 488 806 606 851 554 806 b 271 882 401 806 338 882 b 207 844 242 882 222 868 b 179 822 197 829 194 822 l 165 822 b 149 849 154 822 146 832 b 293 994 163 926 211 994 m 417 -14 b 40 340 181 -14 40 156 b 385 681 40 538 194 681 b 751 329 604 681 751 521 b 417 -14 751 139 618 -14 m 438 39 b 588 272 524 39 588 122 b 367 628 588 467 494 628 b 204 394 268 628 204 547 b 438 39 204 222 297 39 "},"œ":{"ha":1231,"x_min":0,"x_max":0,"o":"m 1153 204 b 1197 190 1168 224 1201 218 b 915 -14 1185 108 1092 -14 b 660 106 811 -14 719 29 b 403 -14 599 31 504 -14 b 40 340 210 -14 40 136 b 399 681 40 538 200 681 b 656 558 497 681 592 635 b 906 681 713 635 801 681 b 1178 476 1085 681 1178 574 b 1107 379 1178 424 1150 394 l 771 256 b 975 103 806 161 876 103 b 1153 204 1063 103 1114 156 m 890 628 b 747 401 803 628 747 535 b 756 308 747 368 750 338 l 986 404 b 1022 471 1011 414 1022 443 b 890 628 1022 528 971 628 m 435 40 b 586 258 529 40 586 138 b 360 626 586 410 503 626 b 204 408 263 626 204 529 b 435 40 204 215 296 40 "},"p":{"ha":806,"x_min":0,"x_max":0,"o":"m 439 681 b 761 344 606 681 761 556 b 440 -14 761 133 615 -14 b 257 60 364 -14 303 13 l 257 -192 b 314 -283 257 -247 314 -253 l 314 -287 b 283 -308 314 -301 301 -308 l 72 -308 b 42 -287 54 -308 42 -301 l 42 -283 b 94 -192 42 -253 94 -247 l 94 489 b 35 576 94 542 35 544 l 35 582 b 60 611 35 594 44 604 l 188 674 b 233 651 221 690 233 675 l 232 575 b 439 681 271 642 347 681 m 421 39 b 597 293 531 39 597 131 b 399 628 597 492 518 628 b 257 493 328 628 267 571 l 257 236 b 421 39 257 135 336 39 "},"þ":{"ha":789,"x_min":0,"x_max":0,"o":"m 424 681 b 746 344 590 681 746 556 b 425 -14 746 133 600 -14 b 242 60 349 -14 288 13 l 242 -192 b 299 -283 242 -246 299 -251 l 299 -287 b 269 -308 299 -301 288 -308 l 57 -308 b 28 -287 39 -308 28 -301 l 28 -283 b 81 -192 28 -251 81 -246 l 81 847 b 21 935 81 899 21 903 l 21 940 b 46 969 21 953 31 963 l 194 1040 b 243 1018 229 1057 243 1042 l 243 610 b 424 681 285 654 350 681 m 406 39 b 582 293 515 39 582 131 b 383 628 582 492 503 628 b 243 499 314 628 254 574 l 242 222 b 406 39 249 126 325 39 "},"q":{"ha":803,"x_min":0,"x_max":0,"o":"m 765 615 b 710 518 765 592 710 579 l 710 -193 b 763 -285 710 -247 763 -254 l 763 -289 b 733 -308 763 -303 751 -308 l 525 -308 b 496 -289 507 -308 496 -303 l 496 -285 b 553 -193 496 -254 553 -247 l 553 64 b 365 -14 507 13 436 -14 b 42 335 196 -14 42 118 b 368 681 42 539 186 681 b 568 593 453 681 522 646 l 568 644 b 619 674 568 668 588 682 l 740 649 b 765 619 757 644 765 635 l 765 615 m 403 39 b 553 218 471 39 553 97 l 553 440 b 374 628 553 529 471 628 b 200 392 271 628 203 539 b 403 39 196 203 276 42 "},"r":{"ha":563,"x_min":0,"x_max":0,"o":"m 432 681 b 560 564 514 681 560 628 b 488 476 560 517 540 476 b 358 585 397 476 439 585 b 263 413 293 585 263 503 l 263 115 b 326 25 263 61 326 56 l 326 19 b 297 0 326 7 315 0 l 82 0 b 53 19 64 0 53 7 l 53 25 b 106 115 53 56 106 61 l 106 489 b 46 579 106 546 46 549 l 46 583 b 71 613 46 594 56 604 l 207 675 b 247 651 236 689 247 675 l 247 543 b 432 681 278 632 343 681 "},"ŕ":{"ha":563,"x_min":0,"x_max":0,"o":"m 193 769 b 150 781 176 764 160 767 b 158 822 142 796 147 813 l 401 1001 b 463 989 426 1021 449 1014 l 492 928 b 468 874 504 906 496 882 l 193 769 m 432 681 b 560 564 514 681 560 628 b 488 476 560 517 540 476 b 358 585 397 476 439 585 b 263 413 293 585 263 503 l 263 115 b 326 25 263 61 326 56 l 326 19 b 297 0 326 7 315 0 l 82 0 b 53 19 64 0 53 7 l 53 25 b 106 115 53 56 106 61 l 106 489 b 46 579 106 546 46 549 l 46 583 b 71 613 46 594 56 604 l 207 675 b 247 651 236 689 247 675 l 247 543 b 432 681 278 632 343 681 "},"ř":{"ha":563,"x_min":0,"x_max":0,"o":"m 86 940 b 126 983 63 965 101 997 l 314 875 l 500 983 b 540 940 528 1000 563 961 l 379 788 b 329 767 363 772 350 767 l 292 767 b 242 788 271 767 258 772 m 432 681 b 560 564 514 681 560 628 b 488 476 560 517 540 476 b 358 585 397 476 439 585 b 263 413 293 585 263 503 l 263 115 b 326 25 263 61 326 56 l 326 19 b 297 0 326 7 315 0 l 82 0 b 53 19 64 0 53 7 l 53 25 b 106 115 53 56 106 61 l 106 489 b 46 579 106 546 46 549 l 46 583 b 71 613 46 594 56 604 l 207 675 b 247 651 236 689 247 675 l 247 543 b 432 681 278 632 343 681 "},"ŗ":{"ha":563,"x_min":0,"x_max":0,"o":"m 432 681 b 560 564 514 681 560 628 b 488 476 560 517 540 476 b 358 585 397 476 439 585 b 263 413 293 585 263 503 l 263 115 b 326 25 263 61 326 56 l 326 19 b 297 0 326 7 315 0 l 82 0 b 53 19 64 0 53 7 l 53 25 b 106 115 53 56 106 61 l 106 489 b 46 579 106 546 46 549 l 46 583 b 71 613 46 594 56 604 l 207 675 b 247 651 236 689 247 675 l 247 543 b 432 681 278 632 343 681 m 188 -67 b 288 -183 242 -67 288 -110 b 136 -429 288 -275 238 -362 b 106 -396 114 -442 86 -415 b 178 -282 154 -349 172 -321 b 165 -260 181 -269 178 -260 b 92 -168 124 -260 92 -222 b 188 -67 92 -110 129 -67 "},"s":{"ha":657,"x_min":0,"x_max":0,"o":"m 329 -12 b 39 147 147 -12 39 71 b 108 211 39 190 68 211 b 329 35 213 211 167 35 b 457 142 403 35 457 71 b 53 483 457 329 53 206 b 325 681 53 596 165 681 b 603 515 499 681 603 596 b 539 456 603 481 575 456 b 333 631 442 456 479 631 b 217 524 265 631 217 583 b 621 181 217 335 621 456 b 329 -12 621 72 508 -12 "},"ś":{"ha":657,"x_min":0,"x_max":0,"o":"m 207 769 b 164 781 190 764 174 767 b 172 822 156 796 161 813 l 415 1001 b 476 989 440 1021 463 1014 l 506 928 b 482 874 518 906 510 882 l 207 769 m 329 -12 b 39 147 147 -12 39 71 b 108 211 39 190 68 211 b 329 35 213 211 167 35 b 457 142 403 35 457 71 b 53 483 457 329 53 206 b 325 681 53 596 165 681 b 603 515 499 681 603 596 b 539 456 603 481 575 456 b 333 631 442 456 479 631 b 217 524 265 631 217 583 b 621 181 217 335 621 456 b 329 -12 621 72 508 -12 "},"š":{"ha":657,"x_min":0,"x_max":0,"o":"m 100 940 b 140 983 76 965 115 997 l 328 875 l 514 983 b 554 940 542 1000 576 961 l 393 788 b 343 767 376 772 364 767 l 306 767 b 256 788 285 767 272 772 m 217 524 b 621 181 217 335 621 456 b 329 -12 621 72 508 -12 b 39 147 147 -12 39 71 b 108 211 39 190 68 211 b 329 35 213 211 167 35 b 457 142 403 35 457 71 b 53 483 457 329 53 206 b 325 681 53 596 165 681 b 603 515 499 681 603 596 b 539 456 603 481 575 456 b 333 631 442 456 479 631 b 217 524 265 631 217 583 "},"ş":{"ha":657,"x_min":0,"x_max":0,"o":"m 621 181 b 367 -11 621 81 524 0 l 364 -76 b 524 -182 443 -75 524 -108 b 349 -293 524 -254 442 -293 b 232 -268 296 -293 258 -281 b 240 -208 201 -253 214 -193 b 324 -229 257 -218 294 -229 b 400 -176 364 -229 401 -214 b 317 -131 399 -135 350 -131 b 282 -89 293 -131 278 -114 l 296 -11 b 39 147 135 -3 39 75 b 108 211 39 190 68 211 b 329 35 213 211 167 35 b 457 142 403 35 457 71 b 53 483 457 329 53 206 b 325 681 53 596 165 681 b 603 515 499 681 603 596 b 539 456 603 481 575 456 b 333 631 442 456 479 631 b 217 524 265 631 217 583 b 621 181 217 335 621 456 "},"ș":{"ha":657,"x_min":0,"x_max":0,"o":"m 329 -12 b 39 147 147 -12 39 71 b 108 211 39 190 68 211 b 329 35 213 211 167 35 b 457 142 403 35 457 71 b 53 483 457 329 53 206 b 325 681 53 596 165 681 b 603 515 499 681 603 596 b 539 456 603 481 575 456 b 333 631 442 456 479 631 b 217 524 265 631 217 583 b 621 181 217 335 621 456 b 329 -12 621 72 508 -12 m 285 -429 b 254 -396 263 -442 235 -415 b 326 -282 303 -349 321 -321 b 314 -260 329 -269 326 -260 b 240 -168 272 -260 240 -222 b 336 -67 240 -110 278 -67 b 436 -183 390 -67 436 -110 b 285 -429 436 -275 386 -362 "},"ß":{"ha":804,"x_min":0,"x_max":0,"o":"m 538 544 b 765 265 667 517 765 417 b 456 0 765 96 622 0 b 450 65 414 0 417 65 b 600 240 533 65 600 118 b 411 501 600 392 532 501 b 411 571 376 501 375 571 b 529 742 468 571 529 629 b 386 969 529 885 483 969 b 254 804 300 969 254 894 l 254 118 b 319 24 254 61 319 58 l 319 19 b 296 0 319 -1 311 0 l 65 0 b 40 19 50 0 40 7 l 40 24 b 94 118 40 54 94 61 l 94 739 b 396 1022 94 903 208 1022 b 685 760 551 1022 685 921 b 538 544 685 656 617 576 "},"t":{"ha":517,"x_min":0,"x_max":0,"o":"m 308 -14 b 114 211 192 -14 114 61 l 114 599 l 35 599 b 11 622 21 599 11 608 l 11 642 b 35 667 11 657 19 667 l 78 667 b 204 801 150 667 193 721 b 232 832 207 821 218 832 l 253 832 b 279 801 271 832 279 821 l 281 667 l 456 667 b 481 642 469 667 481 656 l 481 622 b 456 599 481 608 469 599 l 281 599 l 281 210 b 360 107 281 143 314 107 b 458 179 418 107 450 139 b 504 172 471 201 504 197 b 308 -14 504 79 433 -14 "},"ŧ":{"ha":535,"x_min":0,"x_max":0,"o":"m 474 179 b 519 172 486 201 519 197 b 324 -14 519 79 449 -14 b 129 211 207 -14 129 61 l 129 371 l 53 371 b 32 389 40 371 32 375 l 32 419 b 53 439 32 433 40 439 l 129 439 l 129 599 l 50 599 b 26 622 36 599 26 608 l 26 642 b 50 667 26 657 35 667 l 93 667 b 219 801 165 667 208 721 b 247 832 222 821 233 832 l 268 832 b 294 801 286 832 294 821 l 296 667 l 471 667 b 496 642 485 667 496 656 l 496 622 b 471 599 496 608 485 599 l 296 599 l 296 439 l 463 439 b 485 419 476 439 485 431 l 485 392 b 463 371 485 376 476 371 l 296 371 l 296 210 b 375 107 296 143 329 107 b 474 179 433 107 465 139 "},"ť":{"ha":517,"x_min":0,"x_max":0,"o":"m 374 739 b 374 778 363 747 363 763 b 451 1043 428 853 451 946 b 478 1075 451 1060 463 1075 l 540 1075 b 569 1043 558 1075 569 1063 b 426 736 569 904 506 796 b 383 732 415 728 397 722 m 308 -14 b 114 211 192 -14 114 61 l 114 599 l 35 599 b 11 622 21 599 11 608 l 11 642 b 35 667 11 657 19 667 l 78 667 b 204 801 150 667 193 721 b 232 832 207 821 218 832 l 253 832 b 279 801 271 832 279 821 l 281 667 l 456 667 b 481 642 469 667 481 656 l 481 622 b 456 599 481 608 469 599 l 281 599 l 281 210 b 360 107 281 143 314 107 b 458 179 418 107 450 139 b 504 172 471 201 504 197 b 308 -14 504 79 433 -14 "},"ţ":{"ha":517,"x_min":0,"x_max":0,"o":"m 324 -76 b 483 -182 403 -75 483 -108 b 308 -293 483 -254 401 -293 b 192 -268 256 -293 218 -281 b 200 -208 161 -253 174 -193 b 283 -229 217 -218 254 -229 b 360 -176 324 -229 361 -214 b 276 -131 358 -135 310 -131 b 242 -89 253 -131 238 -114 l 257 -8 b 114 211 169 11 114 85 l 114 599 l 35 599 b 11 622 21 599 11 608 l 11 642 b 35 667 11 657 19 667 l 78 667 b 204 801 150 667 193 721 b 232 832 207 821 218 832 l 253 832 b 279 801 271 832 279 821 l 281 667 l 456 667 b 481 642 469 667 481 656 l 481 622 b 456 599 481 608 469 599 l 281 599 l 281 210 b 360 107 281 143 314 107 b 458 179 418 107 450 139 b 504 172 471 201 504 197 b 326 -14 504 83 440 -6 l 324 -76 "},"ț":{"ha":517,"x_min":0,"x_max":0,"o":"m 308 -14 b 114 211 192 -14 114 61 l 114 599 l 35 599 b 11 622 21 599 11 608 l 11 642 b 35 667 11 657 19 667 l 78 667 b 204 801 150 667 193 721 b 232 832 207 821 218 832 l 253 832 b 279 801 271 832 279 821 l 281 667 l 456 667 b 481 642 469 667 481 656 l 481 622 b 456 599 481 608 469 599 l 281 599 l 281 210 b 360 107 281 143 314 107 b 458 179 418 107 450 139 b 504 172 471 201 504 197 b 308 -14 504 79 433 -14 m 240 -422 b 210 -389 218 -435 190 -408 b 282 -275 258 -342 276 -314 b 269 -253 285 -262 282 -253 b 196 -161 228 -253 196 -215 b 292 -60 196 -103 233 -60 b 392 -176 346 -60 392 -103 b 240 -422 392 -268 342 -356 "},"u":{"ha":799,"x_min":0,"x_max":0,"o":"m 699 131 b 769 26 699 25 769 72 b 665 -8 769 -1 733 -8 b 553 94 592 -8 551 17 b 344 -14 514 25 443 -14 b 86 289 196 -14 86 86 l 86 529 b 33 622 86 586 33 594 l 33 626 b 58 651 33 639 43 649 l 204 675 b 251 654 233 679 251 675 l 249 274 b 388 53 249 128 297 53 b 536 240 471 53 536 126 l 536 529 b 482 622 536 586 482 594 l 482 626 b 506 651 482 639 490 649 l 654 675 b 699 654 683 679 699 675 l 699 131 "},"ú":{"ha":799,"x_min":0,"x_max":0,"o":"m 281 769 b 238 781 264 764 247 767 b 246 822 229 796 235 813 l 489 1001 b 550 989 514 1021 536 1014 l 579 928 b 556 874 592 906 583 882 l 281 769 m 699 131 b 769 26 699 25 769 72 b 665 -8 769 -1 733 -8 b 553 94 592 -8 551 17 b 344 -14 514 25 443 -14 b 86 289 196 -14 86 86 l 86 529 b 33 622 86 586 33 594 l 33 626 b 58 651 33 639 43 649 l 204 675 b 251 654 233 679 251 675 l 249 274 b 388 53 249 128 297 53 b 536 240 471 53 536 126 l 536 529 b 482 622 536 586 482 594 l 482 626 b 506 651 482 639 490 649 l 654 675 b 699 654 683 679 699 675 l 699 131 "},"û":{"ha":799,"x_min":0,"x_max":0,"o":"m 214 768 b 176 818 186 753 142 783 l 329 964 b 379 986 346 981 358 986 l 413 986 b 463 964 433 986 446 979 l 625 818 b 585 768 657 788 628 746 l 392 868 l 214 768 m 699 131 b 769 26 699 25 769 72 b 665 -8 769 -1 733 -8 b 553 94 592 -8 551 17 b 344 -14 514 25 443 -14 b 86 289 196 -14 86 86 l 86 529 b 33 622 86 586 33 594 l 33 626 b 58 651 33 639 43 649 l 204 675 b 251 654 233 679 251 675 l 249 274 b 388 53 249 128 297 53 b 536 240 471 53 536 126 l 536 529 b 482 622 536 586 482 594 l 482 626 b 506 651 482 639 490 649 l 654 675 b 699 654 683 679 699 675 l 699 131 "},"ü":{"ha":799,"x_min":0,"x_max":0,"o":"m 256 786 b 150 882 193 786 150 826 b 256 978 150 938 193 978 b 358 882 318 978 358 938 b 256 786 358 826 318 786 m 547 786 b 443 882 485 786 443 826 b 547 978 443 938 485 978 b 651 882 608 978 651 938 b 547 786 651 826 608 786 m 699 131 b 769 26 699 25 769 72 b 665 -8 769 -1 733 -8 b 553 94 592 -8 551 17 b 344 -14 514 25 443 -14 b 86 289 196 -14 86 86 l 86 529 b 33 622 86 586 33 594 l 33 626 b 58 651 33 639 43 649 l 204 675 b 251 654 233 679 251 675 l 249 274 b 388 53 249 128 297 53 b 536 240 471 53 536 126 l 536 529 b 482 622 536 586 482 594 l 482 626 b 506 651 482 639 490 649 l 654 675 b 699 654 683 679 699 675 l 699 131 "},"ù":{"ha":799,"x_min":0,"x_max":0,"o":"m 243 868 b 219 922 215 876 208 899 l 250 983 b 311 996 263 1008 285 1015 l 553 817 b 561 775 565 807 569 789 b 518 763 551 760 535 758 l 243 868 m 699 131 b 769 26 699 25 769 72 b 665 -8 769 -1 733 -8 b 553 94 592 -8 551 17 b 344 -14 514 25 443 -14 b 86 289 196 -14 86 86 l 86 529 b 33 622 86 586 33 594 l 33 626 b 58 651 33 639 43 649 l 204 675 b 251 654 233 679 251 675 l 249 274 b 388 53 249 128 297 53 b 536 240 471 53 536 126 l 536 529 b 482 622 536 586 482 594 l 482 626 b 506 651 482 639 490 649 l 654 675 b 699 654 683 679 699 675 l 699 131 "},"ű":{"ha":799,"x_min":0,"x_max":0,"o":"m 171 760 b 174 797 161 768 164 782 l 326 1026 b 383 1038 343 1053 364 1057 l 418 1006 b 419 946 440 986 442 963 l 208 765 b 171 760 194 754 181 751 m 438 760 b 440 796 428 768 431 781 l 594 1026 b 651 1038 611 1053 631 1057 l 686 1004 b 686 944 708 985 708 961 l 476 765 b 438 760 463 754 449 751 m 699 131 b 769 26 699 25 769 72 b 665 -8 769 -1 733 -8 b 553 94 592 -8 551 17 b 344 -14 514 25 443 -14 b 86 289 196 -14 86 86 l 86 529 b 33 622 86 586 33 594 l 33 626 b 58 651 33 639 43 649 l 204 675 b 251 654 233 679 251 675 l 249 274 b 388 53 249 128 297 53 b 536 240 471 53 536 126 l 536 529 b 482 622 536 586 482 594 l 482 626 b 506 651 482 639 490 649 l 654 675 b 699 654 683 679 699 675 l 699 131 "},"ū":{"ha":799,"x_min":0,"x_max":0,"o":"m 213 826 b 185 851 194 826 185 836 l 185 906 b 213 931 185 922 194 931 l 586 931 b 614 906 604 931 614 922 l 614 851 b 586 826 614 836 604 826 l 213 826 m 699 131 b 769 26 699 25 769 72 b 665 -8 769 -1 733 -8 b 553 94 592 -8 551 17 b 344 -14 514 25 443 -14 b 86 289 196 -14 86 86 l 86 529 b 33 622 86 586 33 594 l 33 626 b 58 651 33 639 43 649 l 204 675 b 251 654 233 679 251 675 l 249 274 b 388 53 249 128 297 53 b 536 240 471 53 536 126 l 536 529 b 482 622 536 586 482 594 l 482 626 b 506 651 482 639 490 649 l 654 675 b 699 654 683 679 699 675 l 699 131 "},"ų":{"ha":799,"x_min":0,"x_max":0,"o":"m 769 26 b 693 -8 769 3 743 -6 b 622 -154 650 -57 622 -112 b 672 -221 622 -200 644 -221 b 706 -214 683 -221 693 -218 b 715 -278 740 -201 750 -264 b 646 -292 700 -286 672 -292 b 504 -176 578 -292 504 -257 b 626 -6 504 -117 553 -56 b 553 94 578 3 551 32 b 344 -14 514 25 443 -14 b 86 289 196 -14 86 86 l 86 529 b 33 622 86 586 33 594 l 33 626 b 58 651 33 639 43 649 l 204 675 b 251 654 233 679 251 675 l 249 274 b 388 53 249 128 297 53 b 536 240 471 53 536 126 l 536 529 b 482 622 536 586 482 594 l 482 626 b 506 651 482 639 490 649 l 654 675 b 699 654 683 679 699 675 l 699 131 b 769 26 699 25 769 72 "},"ů":{"ha":799,"x_min":0,"x_max":0,"o":"m 399 750 b 222 893 296 750 222 814 b 400 1040 222 979 294 1040 b 578 899 503 1040 578 979 b 399 750 578 813 507 750 m 400 986 b 322 896 356 986 322 957 b 400 801 322 842 356 801 b 478 896 444 801 478 835 b 400 986 478 950 444 986 m 699 131 b 769 26 699 25 769 72 b 665 -8 769 -1 733 -8 b 553 94 592 -8 551 17 b 344 -14 514 25 443 -14 b 86 289 196 -14 86 86 l 86 529 b 33 622 86 586 33 594 l 33 626 b 58 651 33 639 43 649 l 204 675 b 251 654 233 679 251 675 l 249 274 b 388 53 249 128 297 53 b 536 240 471 53 536 126 l 536 529 b 482 622 536 586 482 594 l 482 626 b 506 651 482 639 490 649 l 654 675 b 699 654 683 679 699 675 l 699 131 "},"ũ":{"ha":799,"x_min":0,"x_max":0,"o":"m 169 822 b 153 849 158 822 150 832 b 297 994 167 926 215 994 b 514 919 389 994 454 919 b 579 957 546 919 567 933 b 606 975 586 971 594 975 l 617 975 b 633 949 631 975 638 965 b 492 806 610 851 558 806 b 275 882 406 806 342 882 b 211 844 246 882 226 868 b 183 822 201 829 199 822 l 169 822 m 699 131 b 769 26 699 25 769 72 b 665 -8 769 -1 733 -8 b 553 94 592 -8 551 17 b 344 -14 514 25 443 -14 b 86 289 196 -14 86 86 l 86 529 b 33 622 86 586 33 594 l 33 626 b 58 651 33 639 43 649 l 204 675 b 251 654 233 679 251 675 l 249 274 b 388 53 249 128 297 53 b 536 240 471 53 536 126 l 536 529 b 482 622 536 586 482 594 l 482 626 b 506 651 482 639 490 649 l 654 675 b 699 654 683 679 699 675 l 699 131 "},"v":{"ha":732,"x_min":0,"x_max":0,"o":"m 711 667 b 736 647 726 667 736 660 l 736 643 b 658 551 736 613 678 603 l 451 31 b 411 0 444 10 432 0 l 353 0 b 311 31 331 0 321 10 l 64 551 b 0 643 40 600 0 613 l 0 647 b 25 667 0 660 10 667 l 257 667 b 281 646 269 667 281 658 l 281 642 b 247 549 281 615 226 603 l 418 117 l 581 529 b 532 642 610 608 532 613 l 532 646 b 557 667 532 660 542 667 l 711 667 "},"w":{"ha":1032,"x_min":0,"x_max":0,"o":"m 1010 667 b 1033 647 1025 667 1033 660 l 1033 642 b 964 550 1033 611 985 608 l 776 31 b 738 0 769 10 760 0 l 701 0 b 660 31 679 0 665 10 l 517 481 l 374 31 b 333 0 367 10 354 0 l 308 0 b 267 31 286 0 275 10 l 58 550 b -1 642 38 606 -1 613 l -1 647 b 24 667 -1 660 8 667 l 238 667 b 261 646 253 667 261 658 l 261 642 b 221 549 261 613 199 611 l 351 169 l 496 638 b 524 663 501 654 508 663 l 590 664 b 618 640 607 664 614 656 l 760 168 l 888 535 b 835 642 913 608 835 611 l 835 646 b 860 667 835 658 846 667 l 1010 667 "},"ẃ":{"ha":1032,"x_min":0,"x_max":0,"o":"m 425 765 b 382 776 408 760 392 763 b 390 818 374 792 379 808 l 633 997 b 694 985 658 1017 681 1010 l 724 924 b 700 869 736 901 728 878 l 425 765 m 1010 667 b 1033 647 1025 667 1033 660 l 1033 642 b 964 550 1033 611 985 608 l 776 31 b 738 0 769 10 760 0 l 701 0 b 660 31 679 0 665 10 l 517 481 l 374 31 b 333 0 367 10 354 0 l 308 0 b 267 31 286 0 275 10 l 58 550 b -1 642 38 606 -1 613 l -1 647 b 24 667 -1 660 8 667 l 238 667 b 261 646 253 667 261 658 l 261 642 b 221 549 261 613 199 611 l 351 169 l 496 638 b 524 663 501 654 508 663 l 590 664 b 618 640 607 664 614 656 l 760 168 l 888 535 b 835 642 913 608 835 611 l 835 646 b 860 667 835 658 846 667 l 1010 667 "},"ŵ":{"ha":1032,"x_min":0,"x_max":0,"o":"m 357 764 b 319 814 329 749 285 779 l 472 960 b 522 982 489 976 501 982 l 556 982 b 606 960 576 982 589 975 l 768 814 b 728 764 800 783 771 742 l 535 864 l 357 764 m 1010 667 b 1033 647 1025 667 1033 660 l 1033 642 b 964 550 1033 611 985 608 l 776 31 b 738 0 769 10 760 0 l 701 0 b 660 31 679 0 665 10 l 517 481 l 374 31 b 333 0 367 10 354 0 l 308 0 b 267 31 286 0 275 10 l 58 550 b -1 642 38 606 -1 613 l -1 647 b 24 667 -1 660 8 667 l 238 667 b 261 646 253 667 261 658 l 261 642 b 221 549 261 613 199 611 l 351 169 l 496 638 b 524 663 501 654 508 663 l 590 664 b 618 640 607 664 614 656 l 760 168 l 888 535 b 835 642 913 608 835 611 l 835 646 b 860 667 835 658 846 667 l 1010 667 "},"ẅ":{"ha":1032,"x_min":0,"x_max":0,"o":"m 400 782 b 294 878 338 782 294 822 b 400 974 294 933 338 974 b 503 878 463 974 503 933 b 400 782 503 822 463 782 m 692 782 b 588 878 629 782 588 822 b 692 974 588 933 629 974 b 796 878 753 974 796 933 b 692 782 796 822 753 782 m 1010 667 b 1033 647 1025 667 1033 660 l 1033 642 b 964 550 1033 611 985 608 l 776 31 b 738 0 769 10 760 0 l 701 0 b 660 31 679 0 665 10 l 517 481 l 374 31 b 333 0 367 10 354 0 l 308 0 b 267 31 286 0 275 10 l 58 550 b -1 642 38 606 -1 613 l -1 647 b 24 667 -1 660 8 667 l 238 667 b 261 646 253 667 261 658 l 261 642 b 221 549 261 613 199 611 l 351 169 l 496 638 b 524 663 501 654 508 663 l 590 664 b 618 640 607 664 614 656 l 760 168 l 888 535 b 835 642 913 608 835 611 l 835 646 b 860 667 835 658 846 667 l 1010 667 "},"ẁ":{"ha":1032,"x_min":0,"x_max":0,"o":"m 386 864 b 363 918 358 872 351 894 l 393 979 b 454 992 406 1004 428 1011 l 696 813 b 704 771 708 803 713 785 b 661 758 694 756 678 754 l 386 864 m 1010 667 b 1033 647 1025 667 1033 660 l 1033 642 b 964 550 1033 611 985 608 l 776 31 b 738 0 769 10 760 0 l 701 0 b 660 31 679 0 665 10 l 517 481 l 374 31 b 333 0 367 10 354 0 l 308 0 b 267 31 286 0 275 10 l 58 550 b -1 642 38 606 -1 613 l -1 647 b 24 667 -1 660 8 667 l 238 667 b 261 646 253 667 261 658 l 261 642 b 221 549 261 613 199 611 l 351 169 l 496 638 b 524 663 501 654 508 663 l 590 664 b 618 640 607 664 614 656 l 760 168 l 888 535 b 835 642 913 608 835 611 l 835 646 b 860 667 835 658 846 667 l 1010 667 "},"x":{"ha":722,"x_min":0,"x_max":0,"o":"m 629 119 b 714 25 667 74 714 54 l 714 19 b 689 0 714 7 704 0 l 449 0 b 425 21 435 0 425 8 l 425 25 b 446 122 425 54 497 57 l 328 269 l 197 117 b 217 25 144 54 217 51 l 217 21 b 192 0 217 8 207 0 l 21 0 b -4 19 6 0 -4 7 l -4 25 b 100 122 -4 53 47 63 l 282 329 l 110 544 b 19 642 57 611 19 610 l 19 647 b 43 667 19 660 29 667 l 281 667 b 306 646 296 667 306 658 l 306 642 b 292 543 306 610 253 593 l 407 399 l 538 543 b 515 642 583 594 515 613 l 515 646 b 539 667 515 658 525 667 l 682 667 b 706 647 696 667 706 660 l 706 642 b 625 544 706 613 671 599 l 451 343 l 629 119 "},"y":{"ha":743,"x_min":0,"x_max":0,"o":"m 721 667 b 744 647 735 667 744 660 l 744 642 b 678 544 744 610 704 604 l 415 -31 b 158 -296 367 -140 297 -296 b -29 -160 43 -296 -29 -222 b 39 -90 -29 -119 -4 -90 b 183 -239 132 -90 104 -239 b 339 -32 238 -239 296 -139 l 68 544 b -3 642 39 606 -3 610 l -3 647 b 22 667 -3 660 8 667 l 242 667 b 265 646 256 667 265 658 l 265 642 b 243 543 265 610 214 608 l 426 122 l 599 528 b 542 642 632 607 542 610 l 542 646 b 567 667 542 658 551 667 l 721 667 "},"ý":{"ha":743,"x_min":0,"x_max":0,"o":"m 281 769 b 238 781 264 764 247 767 b 246 822 229 796 235 813 l 489 1001 b 550 989 514 1021 536 1014 l 579 928 b 556 874 592 906 583 882 l 281 769 m 721 667 b 744 647 735 667 744 660 l 744 642 b 678 544 744 610 704 604 l 415 -31 b 158 -296 367 -140 297 -296 b -29 -160 43 -296 -29 -222 b 39 -90 -29 -119 -4 -90 b 183 -239 132 -90 104 -239 b 339 -32 238 -239 296 -139 l 68 544 b -3 642 39 606 -3 610 l -3 647 b 22 667 -3 660 8 667 l 242 667 b 265 646 256 667 265 658 l 265 642 b 243 543 265 610 214 608 l 426 122 l 599 528 b 542 642 632 607 542 610 l 542 646 b 567 667 542 658 551 667 l 721 667 "},"ŷ":{"ha":743,"x_min":0,"x_max":0,"o":"m 213 768 b 175 818 185 753 140 783 l 328 964 b 378 986 344 981 357 986 l 411 986 b 461 964 432 986 444 979 l 624 818 b 583 768 656 788 626 746 l 390 868 l 213 768 m 721 667 b 744 647 735 667 744 660 l 744 642 b 678 544 744 610 704 604 l 415 -31 b 158 -296 367 -140 297 -296 b -29 -160 43 -296 -29 -222 b 39 -90 -29 -119 -4 -90 b 183 -239 132 -90 104 -239 b 339 -32 238 -239 296 -139 l 68 544 b -3 642 39 606 -3 610 l -3 647 b 22 667 -3 660 8 667 l 242 667 b 265 646 256 667 265 658 l 265 642 b 243 543 265 610 214 608 l 426 122 l 599 528 b 542 642 632 607 542 610 l 542 646 b 567 667 542 658 551 667 l 721 667 "},"ÿ":{"ha":743,"x_min":0,"x_max":0,"o":"m 256 786 b 150 882 193 786 150 826 b 256 978 150 938 193 978 b 358 882 318 978 358 938 b 256 786 358 826 318 786 m 547 786 b 443 882 485 786 443 826 b 547 978 443 938 485 978 b 651 882 608 978 651 938 b 547 786 651 826 608 786 m 721 667 b 744 647 735 667 744 660 l 744 642 b 678 544 744 610 704 604 l 415 -31 b 158 -296 367 -140 297 -296 b -29 -160 43 -296 -29 -222 b 39 -90 -29 -119 -4 -90 b 183 -239 132 -90 104 -239 b 339 -32 238 -239 296 -139 l 68 544 b -3 642 39 606 -3 610 l -3 647 b 22 667 -3 660 8 667 l 242 667 b 265 646 256 667 265 658 l 265 642 b 243 543 265 610 214 608 l 426 122 l 599 528 b 542 642 632 607 542 610 l 542 646 b 567 667 542 658 551 667 l 721 667 "},"ỳ":{"ha":743,"x_min":0,"x_max":0,"o":"m 242 868 b 218 922 214 876 207 899 l 249 983 b 310 996 261 1008 283 1015 l 551 817 b 560 775 564 807 568 789 b 517 763 550 760 533 758 l 242 868 m 721 667 b 744 647 735 667 744 660 l 744 642 b 678 544 744 610 704 604 l 415 -31 b 158 -296 367 -140 297 -296 b -29 -160 43 -296 -29 -222 b 39 -90 -29 -119 -4 -90 b 183 -239 132 -90 104 -239 b 339 -32 238 -239 296 -139 l 68 544 b -3 642 39 606 -3 610 l -3 647 b 22 667 -3 660 8 667 l 242 667 b 265 646 256 667 265 658 l 265 642 b 243 543 265 610 214 608 l 426 122 l 599 528 b 542 642 632 607 542 610 l 542 646 b 567 667 542 658 551 667 l 721 667 "},"ỹ":{"ha":743,"x_min":0,"x_max":0,"o":"m 169 822 b 153 849 158 822 150 832 b 297 994 167 926 215 994 b 514 919 389 994 454 919 b 579 957 546 919 567 933 b 606 975 586 971 594 975 l 617 975 b 633 949 631 975 638 965 b 492 806 610 851 558 806 b 275 882 406 806 342 882 b 211 844 246 882 226 868 b 183 822 201 829 199 822 l 169 822 m 721 667 b 744 647 735 667 744 660 l 744 642 b 678 544 744 610 704 604 l 415 -31 b 158 -296 367 -140 297 -296 b -29 -160 43 -296 -29 -222 b 39 -90 -29 -119 -4 -90 b 183 -239 132 -90 104 -239 b 339 -32 238 -239 296 -139 l 68 544 b -3 642 39 606 -3 610 l -3 647 b 22 667 -3 660 8 667 l 242 667 b 265 646 256 667 265 658 l 265 642 b 243 543 265 610 214 608 l 426 122 l 599 528 b 542 642 632 607 542 610 l 542 646 b 567 667 542 658 551 667 l 721 667 "},"z":{"ha":678,"x_min":0,"x_max":0,"o":"m 642 196 b 663 161 660 196 669 185 l 624 31 b 589 0 618 14 607 0 l 64 0 b 33 28 49 0 33 13 l 33 39 b 56 83 33 54 47 71 l 440 618 l 229 618 b 69 479 150 618 125 479 l 63 479 b 42 519 43 479 33 496 l 76 632 b 117 667 85 654 92 667 l 593 667 b 621 639 608 667 621 654 l 621 625 b 592 574 621 615 607 594 l 208 49 l 457 49 b 633 196 546 49 578 196 l 642 196 "},"ź":{"ha":678,"x_min":0,"x_max":0,"o":"m 251 769 b 208 781 235 764 218 767 b 217 822 200 796 206 813 l 460 1001 b 521 989 485 1021 507 1014 l 550 928 b 526 874 563 906 554 882 l 251 769 m 642 196 b 663 161 660 196 669 185 l 624 31 b 589 0 618 14 607 0 l 64 0 b 33 28 49 0 33 13 l 33 39 b 56 83 33 54 47 71 l 440 618 l 229 618 b 69 479 150 618 125 479 l 63 479 b 42 519 43 479 33 496 l 76 632 b 117 667 85 654 92 667 l 593 667 b 621 639 608 667 621 654 l 621 625 b 592 574 621 615 607 594 l 208 49 l 457 49 b 633 196 546 49 578 196 l 642 196 "},"ž":{"ha":678,"x_min":0,"x_max":0,"o":"m 143 940 b 183 983 119 965 158 997 l 371 875 l 557 983 b 597 940 585 1000 619 961 l 436 788 b 386 767 419 772 407 767 l 349 767 b 299 788 328 767 315 772 m 642 196 b 663 161 660 196 669 185 l 624 31 b 589 0 618 14 607 0 l 64 0 b 33 28 49 0 33 13 l 33 39 b 56 83 33 54 47 71 l 440 618 l 229 618 b 69 479 150 618 125 479 l 63 479 b 42 519 43 479 33 496 l 76 632 b 117 667 85 654 92 667 l 593 667 b 621 639 608 667 621 654 l 621 625 b 592 574 621 615 607 594 l 208 49 l 457 49 b 633 196 546 49 578 196 l 642 196 "},"ż":{"ha":678,"x_min":0,"x_max":0,"o":"m 371 782 b 256 886 301 782 256 825 b 371 990 256 946 301 990 b 483 886 439 990 483 946 b 371 782 483 825 439 782 m 642 196 b 663 161 660 196 669 185 l 624 31 b 589 0 618 14 607 0 l 64 0 b 33 28 49 0 33 13 l 33 39 b 56 83 33 54 47 71 l 440 618 l 229 618 b 69 479 150 618 125 479 l 63 479 b 42 519 43 479 33 496 l 76 632 b 117 667 85 654 92 667 l 593 667 b 621 639 608 667 621 654 l 621 625 b 592 574 621 615 607 594 l 208 49 l 457 49 b 633 196 546 49 578 196 l 642 196 "},"ﬁ":{"ha":893,"x_min":0,"x_max":0,"o":"m 458 968 b 296 739 372 968 296 878 l 296 667 l 478 667 b 501 643 492 667 501 656 l 501 621 b 478 599 501 608 492 599 l 296 599 l 296 117 b 363 25 296 61 363 56 l 363 19 b 339 0 363 8 353 0 l 108 0 b 83 19 93 0 83 8 l 83 25 b 138 117 83 56 138 61 l 138 599 l 31 599 b 6 621 17 599 6 608 l 6 643 b 31 667 6 656 17 667 l 138 667 l 138 724 b 483 1021 138 914 285 1021 b 767 840 668 1021 767 913 b 703 778 767 804 740 778 b 458 968 575 778 603 968 m 796 117 b 853 26 796 63 853 57 l 853 21 b 822 0 853 8 840 0 l 607 0 b 578 21 589 0 578 8 l 578 26 b 629 117 578 57 629 63 l 629 481 b 578 576 629 538 578 551 l 578 581 b 603 606 578 592 588 597 l 746 675 b 796 651 778 690 796 674 l 796 117 "},"ﬂ":{"ha":893,"x_min":0,"x_max":0,"o":"m 796 115 b 853 25 796 61 853 57 l 853 21 b 822 0 853 8 840 0 l 607 0 b 578 21 589 0 578 8 l 578 25 b 629 115 578 57 629 61 l 629 808 b 458 968 581 863 574 967 b 296 739 372 969 296 878 l 296 667 l 478 667 b 501 643 492 667 501 656 l 501 621 b 478 599 501 608 492 599 l 296 599 l 296 117 b 363 25 296 61 363 56 l 363 19 b 339 0 363 8 353 0 l 108 0 b 83 19 93 0 83 8 l 83 25 b 138 117 83 56 138 61 l 138 599 l 31 599 b 6 621 17 599 6 608 l 6 643 b 31 667 6 656 17 667 l 138 667 l 138 724 b 483 1021 138 914 285 1021 b 642 990 546 1021 599 1008 l 746 1040 b 796 1018 776 1057 796 1039 l 796 115 "},"ª":{"ha":589,"x_min":0,"x_max":0,"o":"m 503 615 b 556 543 510 549 557 585 b 463 508 556 515 508 508 b 386 567 414 508 390 519 b 243 503 363 531 314 503 b 53 654 131 503 53 560 b 243 806 53 750 132 806 b 357 772 289 806 329 794 l 356 790 b 251 950 344 906 321 950 b 113 843 167 950 192 843 b 61 892 82 843 61 861 b 251 1000 61 958 151 1000 b 482 794 374 1000 467 929 l 503 615 m 286 553 b 371 632 329 553 372 586 l 367 675 b 272 754 364 719 324 754 b 186 663 225 754 186 726 b 286 553 186 599 224 553 "},"º":{"ha":600,"x_min":0,"x_max":0,"o":"m 306 507 b 39 757 156 507 39 611 b 300 1000 39 899 149 1000 b 560 749 443 1000 560 892 b 306 507 560 606 446 507 m 314 556 b 425 722 385 556 425 624 b 281 951 425 849 364 951 b 169 796 203 951 169 879 b 314 556 169 661 233 556 "},"⁄":{"ha":568,"x_min":0,"x_max":0,"o":"m -14 0 b -29 28 -32 0 -39 13 l 507 971 b 533 986 513 981 521 986 l 583 986 b 599 958 600 986 608 974 l 67 15 b 39 0 60 4 51 0 l -14 0 "},"½":{"ha":1043,"x_min":0,"x_max":0,"o":"m 274 481 b 251 467 274 472 265 467 l 93 467 b 69 481 79 467 69 472 l 69 486 b 113 550 69 506 113 507 l 113 857 b 44 910 113 917 44 878 l 44 913 b 67 936 44 924 51 932 l 233 996 b 260 983 251 1001 260 994 l 260 979 b 228 897 260 956 228 951 l 228 550 b 274 486 228 507 274 506 l 274 481 m 806 800 b 806 768 818 790 817 781 l 242 178 b 204 178 232 165 217 167 l 172 207 b 169 238 164 215 160 228 l 736 829 b 769 833 746 839 758 843 l 806 800 m 990 151 b 1004 135 1000 151 1007 144 l 974 18 b 956 1 971 10 965 1 l 583 1 b 567 17 575 1 567 8 l 567 24 b 858 385 567 197 858 250 b 779 468 858 438 826 468 b 632 328 686 468 700 328 b 582 381 603 328 582 346 b 783 514 582 444 674 514 b 972 375 899 514 972 457 b 656 78 972 219 726 179 l 889 78 b 978 151 944 78 947 151 l 990 151 "},"¼":{"ha":989,"x_min":0,"x_max":0,"o":"m 279 481 b 256 467 279 472 269 467 l 92 467 b 68 481 78 467 68 472 l 68 486 b 115 550 68 506 115 507 l 115 854 b 43 910 115 917 43 878 l 43 913 b 65 936 43 924 51 932 l 236 996 b 263 983 253 1001 263 994 l 263 979 b 231 894 263 956 231 951 l 231 550 b 279 486 231 507 279 506 l 279 481 m 808 800 b 807 768 821 790 819 781 l 244 178 b 207 178 233 165 219 167 l 175 207 b 172 238 167 215 163 228 l 738 829 b 772 833 749 839 760 843 l 808 800 m 933 179 b 949 167 943 179 949 175 l 949 140 b 933 126 949 131 943 126 l 864 126 l 864 76 b 906 15 864 35 906 38 l 906 13 b 888 -1 906 4 900 -1 l 739 -1 b 719 13 725 -1 719 4 l 719 15 b 760 76 719 38 760 35 l 760 126 l 525 126 b 497 149 507 126 497 135 l 497 158 b 508 194 497 172 499 182 l 740 508 b 786 535 753 526 765 535 l 847 535 b 864 517 858 535 864 528 l 864 179 l 933 179 m 760 179 l 760 451 l 564 179 "},"¾":{"ha":1031,"x_min":0,"x_max":0,"o":"m 453 635 b 250 481 453 549 374 481 b 38 607 111 481 38 557 b 81 653 38 639 56 653 b 247 522 147 653 139 522 b 344 615 303 522 344 561 b 228 726 344 686 301 726 l 217 726 b 201 769 196 726 186 750 l 310 904 l 82 904 b 61 924 68 904 61 911 l 61 968 b 82 986 61 979 68 986 l 433 986 b 450 972 443 986 450 979 l 450 965 b 436 939 450 961 447 950 l 268 768 b 453 635 372 763 453 724 m 890 800 b 890 768 903 790 901 781 l 326 178 b 289 178 315 165 301 167 l 257 207 b 254 238 249 215 244 228 l 819 829 b 854 833 831 839 842 843 l 890 800 m 969 179 b 985 167 979 179 985 175 l 985 140 b 969 126 985 131 979 126 l 900 126 l 900 76 b 942 15 900 35 942 38 l 942 13 b 924 -1 942 4 936 -1 l 775 -1 b 756 13 761 -1 756 4 l 756 15 b 796 76 756 38 796 35 l 796 126 l 561 126 b 533 149 543 126 533 135 l 533 158 b 544 194 533 172 535 182 l 775 508 b 821 535 789 526 801 535 l 883 535 b 900 517 894 535 900 528 l 900 179 l 969 179 m 796 179 l 796 451 l 600 179 "},".":{"ha":332,"x_min":0,"x_max":0,"o":"m 167 -14 b 58 85 107 -14 58 19 b 167 185 58 151 107 185 b 274 85 225 185 274 151 b 167 -14 274 19 225 -14 "},",":{"ha":318,"x_min":0,"x_max":0,"o":"m 101 -196 b 69 -160 78 -210 49 -181 b 147 -37 121 -110 140 -79 b 133 -14 150 -24 147 -14 b 54 85 89 -14 54 26 b 157 194 54 149 94 194 b 265 69 215 194 265 149 b 101 -196 265 -31 211 -124 "},":":{"ha":353,"x_min":0,"x_max":0,"o":"m 176 454 b 69 553 117 454 69 488 b 176 653 69 619 117 653 b 283 553 235 653 283 619 b 176 454 283 488 235 454 m 176 -14 b 69 85 117 -14 69 19 b 176 185 69 151 117 185 b 283 85 235 185 283 151 b 176 -14 283 19 235 -14 "},";":{"ha":372,"x_min":0,"x_max":0,"o":"m 189 454 b 82 553 131 454 82 488 b 189 653 82 619 131 653 b 297 553 249 653 297 619 b 189 454 297 488 249 454 m 129 -196 b 97 -160 106 -210 76 -181 b 176 -37 149 -110 168 -79 b 161 -14 178 -24 175 -14 b 82 85 118 -14 82 26 b 185 194 82 149 122 194 b 293 69 243 194 293 149 b 129 -196 293 -31 239 -124 "},"…":{"ha":976,"x_min":0,"x_max":0,"o":"m 167 -14 b 58 85 107 -14 58 19 b 167 185 58 151 107 185 b 274 85 225 185 274 151 b 167 -14 274 19 225 -14 m 496 -14 b 388 85 436 -14 388 19 b 496 185 388 151 436 185 b 603 85 554 185 603 151 b 496 -14 603 19 554 -14 m 811 -14 b 703 85 751 -14 703 19 b 811 185 703 151 751 185 b 918 85 869 185 918 151 b 811 -14 918 19 869 -14 "},"!":{"ha":356,"x_min":0,"x_max":0,"o":"m 142 285 b 92 942 110 500 94 832 b 265 943 92 1025 267 1028 b 211 285 264 828 247 500 b 142 285 206 257 147 257 m 179 -17 b 71 82 119 -17 71 17 b 179 182 71 149 119 182 b 286 82 238 182 286 149 b 179 -17 286 17 238 -17 "},"¡":{"ha":329,"x_min":0,"x_max":0,"o":"m 165 456 b 57 554 106 456 57 489 b 165 654 57 621 106 654 b 272 554 224 654 272 621 b 165 456 272 489 224 456 m 253 -239 b 79 -237 254 -325 79 -321 b 129 358 81 -129 96 143 b 199 358 135 385 193 385 b 253 -239 238 143 251 -124 "},"?":{"ha":736,"x_min":0,"x_max":0,"o":"m 274 288 b 529 760 240 506 529 546 b 376 931 529 871 451 931 b 119 685 201 931 236 685 b 35 765 71 685 35 714 b 369 1000 35 867 172 1000 b 694 742 550 1000 694 919 b 393 288 694 501 393 475 b 274 288 393 247 286 244 m 335 -17 b 231 78 278 -17 231 15 b 335 175 231 143 278 175 b 439 78 392 175 439 143 b 335 -17 439 15 392 -17 "},"¿":{"ha":726,"x_min":0,"x_max":0,"o":"m 393 513 b 290 607 336 513 290 544 b 393 704 290 671 336 704 b 497 607 450 704 497 671 b 393 513 497 544 450 513 m 361 -308 b 38 -49 181 -308 38 -228 b 339 404 38 190 339 218 b 457 404 339 444 446 449 b 203 -68 490 186 203 147 b 356 -237 203 -179 279 -237 b 614 7 529 -237 490 7 b 696 -74 661 7 696 -21 b 361 -308 696 -168 556 -308 "},"·":{"ha":339,"x_min":0,"x_max":0,"o":"m 169 436 b 61 536 110 436 61 469 b 169 636 61 604 110 636 b 278 536 229 636 278 604 b 169 436 278 469 229 436 "},"•":{"ha":528,"x_min":0,"x_max":0,"o":"m 265 361 b 88 522 160 361 88 428 b 265 686 88 618 160 686 b 439 522 369 686 439 618 b 265 361 439 428 369 361 "},"*":{"ha":544,"x_min":0,"x_max":0,"o":"m 214 592 b 126 649 179 511 63 594 l 239 753 l 97 772 b 122 867 7 776 50 907 l 250 799 l 221 940 b 276 1011 210 983 235 1010 b 329 940 317 1013 343 986 l 297 799 l 424 867 b 450 772 499 910 532 776 l 311 753 l 424 646 b 333 594 482 593 367 513 l 275 726 l 214 592 "},"#":{"ha":949,"x_min":0,"x_max":0,"o":"m 883 667 b 907 649 900 667 907 660 l 907 600 b 883 582 907 590 900 582 l 719 582 l 671 396 l 836 396 b 861 379 853 396 861 389 l 861 329 b 836 313 861 318 853 313 l 649 313 l 571 15 b 543 0 568 4 556 0 l 482 0 b 467 28 464 0 463 13 l 543 313 l 307 313 l 229 15 b 203 0 226 4 215 0 l 140 0 b 125 28 122 0 121 13 l 201 313 l 67 313 b 42 329 53 313 42 318 l 42 379 b 67 396 42 389 53 396 l 224 396 l 272 582 l 113 582 b 89 600 99 582 89 590 l 89 649 b 113 667 89 660 99 667 l 296 667 l 363 918 b 386 935 365 929 372 935 l 447 935 b 464 906 464 935 468 922 l 401 667 l 638 667 l 704 918 b 726 935 707 929 714 935 l 789 935 b 804 906 806 935 810 922 l 742 667 l 883 667 m 614 582 l 379 582 l 329 396 l 565 396 "},"/":{"ha":526,"x_min":0,"x_max":0,"o":"m 53 -137 b 36 -110 35 -137 32 -126 l 388 1089 b 414 1106 390 1100 403 1106 l 472 1106 b 489 1078 490 1106 493 1093 l 142 -121 b 114 -137 139 -132 128 -137 l 53 -137 "},"\\":{"ha":511,"x_min":0,"x_max":0,"o":"m 406 -137 b 376 -121 392 -137 381 -132 l 38 1078 b 53 1106 32 1093 36 1106 l 104 1106 b 132 1089 117 1106 129 1100 l 474 -110 b 456 -137 479 -126 475 -137 l 406 -137 "},"(":{"ha":371,"x_min":0,"x_max":0,"o":"m 283 -139 b 50 468 157 -18 50 185 b 285 1075 50 751 157 954 b 332 1040 315 1103 354 1079 b 201 468 247 911 201 701 b 332 -104 201 235 247 25 b 283 -139 354 -143 315 -167 "},")":{"ha":371,"x_min":0,"x_max":0,"o":"m 88 -139 b 38 -104 56 -167 17 -143 b 169 468 124 25 169 235 b 38 1040 169 701 124 911 b 86 1075 17 1079 54 1101 b 321 468 215 953 321 751 b 88 -139 321 185 213 -17 "},"{":{"ha":443,"x_min":0,"x_max":0,"o":"m 394 -71 b 396 -140 432 -71 433 -140 b 138 104 253 -140 138 -72 l 138 269 b 57 425 138 388 99 425 b 57 504 10 425 6 504 b 138 647 99 504 138 542 l 138 843 b 399 1079 138 1011 253 1081 b 399 1011 436 1081 443 1011 b 288 849 331 1011 289 964 l 286 657 b 172 464 286 519 215 475 b 285 260 215 453 286 410 l 283 97 b 394 -71 282 -25 321 -71 "},"}":{"ha":444,"x_min":0,"x_max":0,"o":"m 388 504 b 388 425 438 504 433 425 b 307 269 346 425 307 388 l 307 104 b 49 -140 307 -72 192 -140 b 50 -71 11 -140 13 -71 b 161 97 122 -71 163 -25 l 160 260 b 275 464 158 414 233 456 b 158 657 233 474 158 515 l 157 849 b 46 1011 156 964 114 1011 b 46 1079 1 1011 8 1081 b 307 843 190 1081 307 1011 l 307 647 b 388 504 307 542 346 504 "},"[":{"ha":417,"x_min":0,"x_max":0,"o":"m 136 -146 b 107 -121 118 -146 107 -136 l 107 1057 b 136 1082 107 1072 119 1082 l 372 1082 b 393 1061 386 1082 393 1075 l 393 1026 b 372 1006 393 1014 386 1006 l 250 1006 l 250 -69 l 372 -69 b 393 -90 386 -69 393 -78 l 393 -125 b 372 -146 393 -139 386 -146 l 136 -146 "},"]":{"ha":417,"x_min":0,"x_max":0,"o":"m 44 -146 b 24 -125 32 -146 24 -139 l 24 -90 b 44 -69 24 -78 32 -69 l 167 -69 l 167 1006 l 44 1006 b 24 1026 32 1006 24 1014 l 24 1061 b 44 1082 24 1075 32 1082 l 281 1082 b 310 1057 299 1082 310 1072 l 310 -121 b 281 -146 310 -136 299 -146 l 44 -146 "},"-":{"ha":638,"x_min":0,"x_max":0,"o":"m 97 407 b 74 432 82 407 74 417 l 74 469 b 97 493 74 485 82 493 l 540 493 b 564 469 556 493 564 485 l 564 432 b 540 407 564 417 556 407 l 97 407 "},"–":{"ha":776,"x_min":0,"x_max":0,"o":"m 97 407 b 74 432 82 407 74 417 l 74 469 b 97 493 74 485 82 493 l 679 493 b 701 469 693 493 701 485 l 701 432 b 679 407 701 417 693 407 l 97 407 "},"—":{"ha":946,"x_min":0,"x_max":0,"o":"m 97 407 b 74 432 82 407 74 417 l 74 469 b 97 493 74 485 82 493 l 849 493 b 872 469 864 493 872 485 l 872 432 b 849 407 872 417 864 407 l 97 407 "},"_":{"ha":658,"x_min":0,"x_max":0,"o":"m 64 -86 b 42 -61 49 -86 42 -78 l 42 -25 b 64 0 42 -10 49 0 l 594 0 b 617 -25 608 0 617 -10 l 617 -61 b 594 -86 617 -78 608 -86 l 64 -86 "},"‚":{"ha":318,"x_min":0,"x_max":0,"o":"m 101 -196 b 69 -160 78 -210 49 -181 b 147 -37 121 -110 140 -79 b 133 -14 150 -24 147 -14 b 54 85 89 -14 54 26 b 157 194 54 149 94 194 b 265 69 215 194 265 149 b 101 -196 265 -31 211 -124 "},"„":{"ha":611,"x_min":0,"x_max":0,"o":"m 101 -196 b 69 -160 78 -210 49 -181 b 147 -37 121 -110 140 -79 b 133 -14 150 -24 147 -14 b 54 85 89 -14 54 26 b 157 194 54 149 94 194 b 265 69 215 194 265 149 b 101 -196 265 -31 211 -124 m 394 -196 b 363 -160 371 -210 342 -181 b 440 -37 414 -110 433 -79 b 426 -14 443 -24 440 -14 b 347 85 382 -14 347 26 b 450 194 347 149 388 194 b 558 69 508 194 558 149 b 394 -196 558 -31 504 -124 "},"“":{"ha":597,"x_min":0,"x_max":0,"o":"m 207 1085 b 239 1049 231 1099 260 1069 b 161 926 188 999 168 968 b 175 903 158 913 161 903 b 254 804 219 903 254 863 b 151 694 254 740 214 694 b 43 819 93 694 43 740 b 207 1085 43 919 97 1013 m 500 1085 b 532 1049 524 1099 553 1069 b 454 926 481 999 461 968 b 468 903 451 913 454 903 b 547 804 513 903 547 863 b 444 694 547 740 507 694 b 336 819 386 694 336 740 b 500 1085 336 919 390 1013 "},"”":{"ha":607,"x_min":0,"x_max":0,"o":"m 111 639 b 79 675 88 625 58 654 b 157 797 131 725 150 756 b 143 821 160 811 157 821 b 64 919 99 821 64 861 b 167 1029 64 983 104 1029 b 275 904 225 1029 275 983 b 111 639 275 804 221 711 m 404 639 b 372 675 381 625 351 654 b 450 797 424 725 443 756 b 436 821 453 811 450 821 b 357 919 392 821 357 861 b 460 1029 357 983 397 1029 b 568 904 518 1029 568 983 b 404 639 568 804 514 711 "},"‘":{"ha":306,"x_min":0,"x_max":0,"o":"m 207 1072 b 239 1036 231 1086 260 1057 b 161 914 188 986 168 956 b 175 890 158 900 161 890 b 254 792 219 890 254 850 b 151 682 254 728 214 682 b 43 807 93 682 43 728 b 207 1072 43 907 97 1000 "},"’":{"ha":314,"x_min":0,"x_max":0,"o":"m 113 638 b 81 674 89 624 60 653 b 158 796 132 724 151 754 b 144 819 161 810 158 819 b 65 918 100 819 65 860 b 168 1028 65 982 106 1028 b 276 903 226 1028 276 982 b 113 638 276 803 222 710 "},"«":{"ha":724,"x_min":0,"x_max":0,"o":"m 293 674 b 349 660 306 693 353 682 b 171 394 328 565 268 465 b 343 158 257 322 324 225 b 276 150 344 142 301 121 b 57 353 204 238 133 289 b 57 443 39 368 40 429 b 293 674 139 503 229 579 m 664 660 b 486 394 643 565 583 465 b 658 158 572 322 639 225 b 592 150 660 142 617 121 b 372 353 519 238 449 289 b 372 443 354 368 356 429 b 608 674 454 503 544 579 b 664 660 621 693 668 682 "},"»":{"ha":724,"x_min":0,"x_max":0,"o":"m 353 443 b 353 353 369 429 371 368 b 133 150 276 289 206 238 b 67 158 108 121 65 142 b 239 394 86 225 153 322 b 61 660 142 465 82 565 b 117 674 57 682 104 693 b 353 443 181 579 271 503 m 667 443 b 667 353 683 429 685 368 b 447 150 590 289 519 238 b 381 158 422 121 379 142 b 553 394 400 225 467 322 b 375 660 456 465 396 565 b 431 674 371 682 418 693 b 667 443 494 579 585 503 "},"‹":{"ha":410,"x_min":0,"x_max":0,"o":"m 349 660 b 171 394 328 565 268 465 b 343 158 257 322 324 225 b 276 150 344 142 301 121 b 57 353 204 238 133 289 b 57 443 39 368 40 429 b 293 674 139 503 229 579 b 349 660 306 693 353 682 "},"›":{"ha":403,"x_min":0,"x_max":0,"o":"m 344 443 b 344 353 361 429 363 368 b 132 150 268 289 200 238 b 67 158 108 119 65 142 b 232 399 86 225 146 332 b 61 660 135 465 82 565 b 117 674 57 682 104 693 b 344 443 176 579 264 503 "},"\"":{"ha":553,"x_min":0,"x_max":0,"o":"m 97 608 b 57 921 86 660 60 836 b 142 1007 57 979 99 1007 b 228 921 186 1007 228 981 b 183 608 225 836 196 660 b 97 608 171 565 107 568 m 368 608 b 328 921 357 660 331 836 b 413 1007 328 979 369 1007 b 499 921 457 1007 499 981 b 454 608 496 836 467 660 b 368 608 442 565 378 568 "},"'":{"ha":282,"x_min":0,"x_max":0,"o":"m 97 608 b 57 921 86 660 60 836 b 142 1007 57 979 99 1007 b 228 921 186 1007 228 981 b 183 608 225 836 196 660 b 97 608 171 565 107 568 "}," ":{"ha":299,"x_min":0,"x_max":0,"o":""},"¢":{"ha":742,"x_min":0,"x_max":0,"o":"m 647 379 b 699 365 661 400 703 393 b 433 131 685 269 613 142 l 433 25 b 414 -1 433 10 428 -1 l 389 -1 b 368 25 376 -1 368 10 l 368 131 b 51 497 186 151 51 315 b 368 865 51 713 192 849 l 368 972 b 389 997 368 986 376 997 l 415 997 b 433 972 428 997 433 986 l 433 865 b 681 688 569 853 681 769 b 610 621 681 651 653 621 b 433 793 521 621 518 751 l 433 254 b 463 253 443 253 453 253 b 647 379 564 253 617 321 m 218 581 b 368 275 218 432 276 319 l 368 806 b 218 581 283 803 218 704 "},"¤":{"ha":854,"x_min":0,"x_max":0,"o":"m 769 218 b 771 185 779 207 781 193 l 747 160 b 713 163 738 151 725 153 l 625 253 b 422 193 571 215 501 193 b 229 249 347 193 281 214 l 143 163 b 110 160 132 153 119 151 l 85 185 b 88 218 75 193 76 207 l 171 301 b 107 481 131 350 107 413 b 171 657 107 547 131 608 l 88 740 b 85 772 76 750 75 765 l 110 797 b 143 794 119 807 132 806 l 228 708 b 422 767 281 744 346 767 b 626 707 501 767 572 744 l 713 794 b 747 797 725 807 738 807 l 771 772 b 769 740 781 765 779 751 l 683 656 b 749 481 725 607 749 547 b 683 304 749 414 725 353 m 426 286 b 615 481 544 286 615 378 b 426 672 615 581 544 672 b 240 481 310 672 240 581 b 426 286 240 378 310 286 "},"$":{"ha":772,"x_min":0,"x_max":0,"o":"m 724 269 b 414 -6 724 133 601 7 l 414 -137 b 396 -162 414 -153 407 -162 l 365 -162 b 347 -137 354 -162 347 -153 l 347 -6 b 44 200 149 7 44 128 b 118 283 44 256 78 283 b 347 51 225 283 233 93 l 347 411 b 56 717 210 467 56 524 b 356 983 56 864 171 974 l 356 1069 b 374 1093 356 1083 363 1093 l 403 1093 b 422 1069 414 1093 422 1083 l 422 982 b 701 790 601 968 701 872 b 625 707 701 740 674 707 b 422 925 525 707 540 893 l 422 567 b 724 269 561 513 724 465 m 225 776 b 356 596 225 682 281 633 l 356 926 b 225 776 275 915 225 856 m 414 46 b 554 215 492 57 554 128 b 414 382 554 301 493 346 l 414 46 "},"€":{"ha":974,"x_min":0,"x_max":0,"o":"m 858 239 b 917 207 882 261 925 246 b 594 -12 890 104 772 -12 b 178 406 371 -12 211 167 l 63 406 b 39 424 49 406 39 413 l 39 451 b 63 469 39 463 49 469 l 171 469 l 171 499 b 172 549 171 515 171 532 l 63 549 b 39 565 49 549 39 556 l 39 596 b 63 613 39 606 49 613 l 179 613 b 589 993 221 863 399 993 b 914 813 768 993 914 906 b 840 740 914 775 889 740 b 554 922 724 740 743 922 b 338 613 444 922 347 808 l 728 613 b 751 596 742 613 751 606 l 751 565 b 728 549 751 556 742 549 l 336 549 b 343 469 338 521 340 494 l 681 469 b 704 451 694 469 704 463 l 704 424 b 681 406 704 413 694 406 l 356 406 b 625 138 397 226 506 138 b 858 239 714 138 800 176 "},"£":{"ha":924,"x_min":0,"x_max":0,"o":"m 826 214 b 882 199 842 239 886 233 b 586 -19 863 89 774 -19 b 360 60 497 -19 424 21 b 194 -14 321 17 267 -14 b 65 101 108 -14 65 38 b 200 213 65 165 118 213 b 308 193 238 213 274 204 b 313 249 311 211 313 229 b 269 415 313 314 293 367 l 83 415 b 58 432 68 415 58 421 l 58 475 b 83 492 58 485 68 492 l 228 492 b 161 708 193 554 161 619 b 518 1007 161 890 297 1007 b 829 826 685 1007 829 926 b 754 751 829 789 803 751 b 497 936 635 751 668 936 b 328 725 386 936 328 843 b 378 492 328 626 353 558 l 625 492 b 650 474 642 492 650 485 l 650 432 b 625 415 650 421 642 415 l 406 415 b 432 254 421 369 432 318 b 414 153 432 222 426 188 b 611 106 475 129 538 106 b 826 214 714 106 803 157 m 190 46 b 283 108 231 46 263 69 b 189 143 249 129 218 143 b 129 96 151 143 129 125 b 190 46 129 64 156 46 "},"¥":{"ha":993,"x_min":0,"x_max":0,"o":"m 922 986 b 951 967 940 986 951 979 l 951 963 b 872 871 951 932 907 932 l 624 454 l 844 454 b 869 436 860 454 869 446 l 869 408 b 844 392 869 399 860 392 l 592 392 l 592 310 l 821 310 b 846 293 836 310 846 303 l 846 265 b 821 249 846 256 836 249 l 592 249 l 592 115 b 647 24 592 61 647 54 l 647 19 b 618 0 647 7 636 0 l 400 0 b 371 19 382 0 371 7 l 371 24 b 422 115 371 54 422 61 l 422 249 l 192 249 b 167 265 176 249 167 256 l 167 293 b 192 310 167 303 176 310 l 422 310 l 422 388 l 419 392 l 167 392 b 143 408 153 392 143 399 l 143 436 b 167 454 143 446 153 454 l 381 454 l 114 871 b 31 963 79 926 31 932 l 31 967 b 61 986 31 979 43 986 l 317 986 b 347 967 336 986 347 979 l 347 963 b 299 871 347 932 269 921 l 540 456 l 786 871 b 735 963 817 925 735 932 l 735 967 b 763 986 735 979 744 986 l 922 986 "},"+":{"ha":833,"x_min":0,"x_max":0,"o":"m 382 89 b 364 115 371 89 364 99 l 364 335 l 146 335 b 119 353 131 335 121 343 l 121 419 b 146 438 121 431 131 438 l 364 438 l 364 657 b 382 683 364 674 371 683 l 451 683 b 469 657 463 683 469 674 l 469 438 l 689 439 b 714 421 704 439 714 431 l 714 353 b 689 335 714 342 704 335 l 471 335 l 471 115 b 451 89 471 99 463 89 l 382 89 "},"−":{"ha":833,"x_min":0,"x_max":0,"o":"m 153 333 b 129 351 139 333 129 340 l 129 421 b 153 439 129 432 139 439 l 681 439 b 706 421 696 439 706 432 l 706 351 b 681 333 706 340 696 333 l 153 333 "},"×":{"ha":833,"x_min":0,"x_max":0,"o":"m 183 200 b 189 231 176 208 178 219 l 343 386 l 189 542 b 183 572 178 553 176 564 l 231 619 b 261 614 239 626 250 625 l 417 460 l 572 615 b 603 619 583 626 596 628 l 650 572 b 644 542 658 564 656 553 l 490 388 l 646 231 b 650 200 657 219 658 207 l 603 153 b 572 158 594 144 583 147 l 417 313 l 261 158 b 231 153 250 147 239 146 "},"÷":{"ha":833,"x_min":0,"x_max":0,"o":"m 417 569 b 308 669 351 569 308 613 b 417 769 308 726 351 769 b 524 669 481 769 524 726 b 417 569 524 613 481 569 m 153 333 b 129 351 139 333 129 340 l 129 421 b 153 439 129 432 139 439 l 681 439 b 706 421 696 439 706 432 l 706 351 b 681 333 706 340 696 333 l 153 333 m 417 -14 b 308 86 351 -14 308 29 b 417 186 308 143 351 186 b 524 86 481 186 524 143 b 417 -14 524 29 481 -14 "},"=":{"ha":833,"x_min":0,"x_max":0,"o":"m 153 457 b 128 475 138 457 128 464 l 128 544 b 153 564 128 556 138 564 l 681 564 b 704 544 694 564 704 556 l 704 475 b 681 457 704 464 694 457 l 153 457 m 153 201 b 128 219 138 201 128 208 l 128 289 b 153 307 128 300 138 307 l 681 307 b 704 289 694 307 704 300 l 704 219 b 681 201 704 208 694 201 l 153 201 "},"≠":{"ha":833,"x_min":0,"x_max":0,"o":"m 514 457 l 436 307 l 681 307 b 704 289 694 307 704 300 l 704 219 b 681 201 704 208 694 201 l 381 201 l 290 26 b 267 17 285 15 275 14 l 236 31 b 229 58 226 36 224 49 l 304 201 l 153 201 b 128 219 138 201 128 208 l 128 289 b 153 307 128 300 138 307 l 358 307 l 438 457 l 153 457 b 128 475 138 457 128 464 l 128 544 b 153 564 128 556 138 564 l 493 564 l 574 718 b 601 731 579 731 590 736 l 628 718 b 635 690 640 711 640 703 l 569 564 l 681 564 b 704 544 694 564 704 556 l 704 475 b 681 457 704 464 694 457 "},">":{"ha":833,"x_min":0,"x_max":0,"o":"m 646 464 b 676 426 665 456 676 447 l 676 325 b 647 288 676 306 667 296 l 218 68 b 185 82 197 57 185 69 l 185 174 b 210 201 185 185 194 194 l 585 374 l 215 540 b 190 568 200 546 190 556 l 190 658 b 221 675 190 669 200 685 l 646 464 "},"<":{"ha":833,"x_min":0,"x_max":0,"o":"m 624 203 b 647 175 638 196 647 186 l 647 83 b 614 69 647 71 636 58 l 185 289 b 157 326 167 297 157 308 l 157 426 b 186 464 157 447 167 456 l 614 675 b 644 658 635 685 644 669 l 644 569 b 621 542 644 557 636 547 l 254 375 l 624 203 "},"±":{"ha":833,"x_min":0,"x_max":0,"o":"m 382 197 b 364 222 371 197 364 206 l 364 442 l 146 442 b 119 460 131 442 121 449 l 121 526 b 146 544 121 538 131 544 l 364 544 l 364 764 b 382 790 364 779 372 789 l 451 789 b 469 764 461 789 469 779 l 469 544 l 689 546 b 714 528 704 546 714 538 l 714 460 b 689 442 714 447 704 442 l 471 442 l 471 222 b 451 197 471 206 461 196 l 382 197 m 146 0 b 121 17 131 0 121 7 l 121 85 b 146 103 121 96 131 103 l 689 103 b 714 85 704 103 714 96 l 714 17 b 689 0 714 7 704 0 l 146 0 "},"≈":{"ha":833,"x_min":0,"x_max":0,"o":"m 269 682 b 564 592 394 682 468 592 b 664 644 608 592 644 615 b 694 664 672 657 681 664 l 726 664 b 744 639 742 664 747 654 b 560 471 725 532 649 471 b 269 563 417 471 363 563 b 178 507 233 563 203 546 b 133 485 168 492 157 485 l 115 485 b 99 511 104 485 96 494 b 269 682 111 585 161 682 m 263 406 b 557 315 388 406 461 315 b 657 368 601 315 638 339 b 688 388 665 381 674 388 l 719 388 b 738 363 735 388 740 378 b 553 194 718 256 642 194 b 263 286 410 194 356 286 b 171 231 226 286 196 269 b 126 208 161 215 150 208 l 108 208 b 92 235 97 208 89 218 b 263 406 104 308 154 406 "},"~":{"ha":833,"x_min":0,"x_max":0,"o":"m 268 535 b 563 444 393 535 467 444 b 663 497 607 444 643 468 b 693 517 671 510 679 517 l 725 517 b 743 492 740 517 746 507 b 558 324 724 385 647 324 b 268 415 415 324 361 415 b 176 360 232 415 201 399 b 132 338 167 344 156 338 l 114 338 b 97 364 103 338 94 347 b 268 535 108 438 160 535 "},"^":{"ha":833,"x_min":0,"x_max":0,"o":"m 640 829 b 600 779 669 793 638 749 l 407 944 l 231 779 b 192 829 207 757 161 789 l 344 1036 b 394 1058 358 1057 374 1058 l 428 1058 b 478 1038 449 1058 464 1056 l 640 829 "},"%":{"ha":1231,"x_min":0,"x_max":0,"o":"m 292 474 b 38 736 153 474 38 583 b 288 1000 38 890 139 1000 b 539 733 425 1000 539 885 b 292 474 539 576 424 474 m 319 0 b 304 28 301 0 294 13 l 825 971 b 847 986 831 981 836 986 l 907 986 b 922 958 924 986 931 974 l 404 15 b 376 0 397 4 389 0 l 319 0 m 307 521 b 404 679 374 521 404 592 b 264 951 404 803 353 951 b 164 788 194 951 164 878 b 307 521 164 658 218 521 m 946 -14 b 692 250 807 -14 692 96 b 942 513 692 404 793 513 b 1193 247 1079 513 1193 399 b 946 -14 1193 90 1078 -14 m 961 33 b 1058 192 1028 33 1058 104 b 918 465 1058 317 1007 465 b 818 301 849 465 818 390 b 961 33 818 171 872 33 "},"‰":{"ha":1771,"x_min":0,"x_max":0,"o":"m 292 474 b 38 736 153 474 38 583 b 288 1000 38 890 139 1000 b 539 733 425 1000 539 885 b 292 474 539 576 424 474 m 319 0 b 304 28 301 0 294 13 l 825 971 b 847 986 831 981 836 986 l 907 986 b 922 958 924 986 931 974 l 404 15 b 376 0 397 4 389 0 l 319 0 m 307 521 b 404 679 374 521 404 592 b 264 951 404 803 353 951 b 164 788 194 951 164 878 b 307 521 164 658 218 521 m 946 -14 b 692 250 807 -14 692 96 b 942 513 692 404 793 513 b 1193 247 1079 513 1193 399 b 946 -14 1193 90 1078 -14 m 1494 -14 b 1247 250 1356 -14 1247 96 b 1490 513 1247 404 1342 513 b 1735 247 1626 513 1735 399 b 1494 -14 1735 90 1626 -14 m 961 33 b 1058 192 1028 33 1058 104 b 918 465 1058 317 1007 465 b 818 301 849 465 818 390 b 961 33 818 171 872 33 m 1510 33 b 1614 192 1576 33 1614 104 b 1465 465 1614 317 1554 465 b 1360 301 1397 465 1360 390 b 1510 33 1360 171 1419 33 "},"":{"ha":2015,"x_min":0,"x_max":0,"o":"m 960 810 b 1044 896 960 858 997 896 b 1131 810 1093 896 1131 858 b 1044 725 1131 763 1093 725 b 960 810 997 725 960 763 m 139 375 b 151 811 139 618 151 811 l 290 811 b 304 375 290 811 303 618 m 964 375 b 968 579 964 461 965 528 l 883 579 l 888 489 b 908 483 888 489 893 483 b 933 490 928 483 933 490 l 933 388 b 842 367 933 388 919 367 b 725 458 764 367 725 399 b 731 579 725 493 731 568 l 700 579 l 700 689 l 865 731 l 867 707 l 1114 707 b 1128 375 1114 707 1128 618 l 964 375 m 456 368 b 328 525 376 368 328 418 b 518 714 328 644 383 714 b 686 551 632 714 685 654 l 686 375 l 571 375 l 560 460 b 456 368 549 403 522 368 m 1356 375 b 1358 508 1356 440 1358 472 b 1338 544 1358 533 1354 544 b 1313 508 1319 544 1313 533 b 1317 375 1313 472 1317 440 l 1158 375 b 1172 707 1158 618 1172 707 l 1283 707 b 1292 601 1283 707 1292 644 b 1404 714 1292 611 1306 714 b 1510 567 1481 714 1507 671 l 1514 375 m 1876 533 b 1704 368 1876 436 1824 368 b 1536 533 1588 368 1536 440 b 1706 714 1536 631 1572 714 b 1876 533 1847 714 1876 631 m 542 521 b 510 557 542 547 529 557 b 478 521 488 557 478 547 b 510 479 478 494 488 479 b 542 521 529 479 542 494 m 1738 521 b 1706 557 1738 547 1725 557 b 1676 521 1686 557 1676 547 b 1706 479 1676 494 1686 479 b 1738 521 1725 479 1738 494 m 739 331 b 753 126 739 331 753 247 b 546 -69 753 -8 693 -69 b 419 -46 447 -69 419 -46 l 419 69 b 515 47 419 69 447 47 b 592 86 590 47 592 86 b 524 71 592 86 574 71 b 399 186 442 71 399 107 l 399 204 l 322 204 l 326 114 b 347 108 326 114 332 108 b 372 115 367 108 372 115 l 372 14 b 279 -7 372 14 358 -7 b 165 82 200 -7 165 25 b 169 204 165 118 168 185 l 144 204 l 144 315 l 307 356 l 306 332 l 551 331 l 551 165 b 571 128 551 138 556 128 b 594 165 589 128 594 138 l 594 331 m 1018 338 b 1129 182 1086 338 1129 283 b 939 -7 1129 56 1068 -7 b 940 -61 939 -7 940 -25 l 775 -61 b 789 331 775 176 789 331 l 897 331 b 907 225 897 331 907 258 b 1018 338 908 235 926 338 m 1486 179 b 1482 128 1486 144 1482 128 l 1310 128 b 1378 103 1310 128 1322 103 b 1456 119 1429 103 1456 119 l 1456 15 b 1347 -7 1456 15 1428 -7 b 1151 156 1217 -7 1151 56 b 1326 338 1151 275 1214 338 b 1486 179 1426 338 1486 279 m 1358 151 b 1335 189 1361 176 1353 189 b 1303 151 1315 189 1303 176 l 1358 151 m 931 100 b 982 153 931 100 982 103 b 954 183 982 172 971 183 b 924 139 935 183 924 172 b 931 100 924 118 931 100 m 1493 18 b 1525 -14 1493 0 1507 -14 b 1556 18 1542 -14 1556 0 b 1525 49 1556 36 1542 49 b 1493 18 1507 49 1493 36 m 1500 18 b 1525 43 1500 32 1511 43 b 1549 18 1538 43 1549 32 b 1525 -7 1549 4 1538 -7 b 1500 18 1511 -7 1500 4 m 1531 15 b 1540 25 1536 15 1540 18 b 1526 35 1540 33 1535 35 l 1511 35 l 1511 3 l 1518 3 l 1518 15 l 1525 15 l 1531 3 l 1539 3 m 1518 21 l 1518 29 l 1525 29 b 1533 26 1528 29 1533 29 b 1526 21 1533 22 1531 21 "},"@":{"ha":1257,"x_min":0,"x_max":0,"o":"m 688 1022 b 1236 539 1015 1022 1236 810 b 942 182 1236 357 1136 182 b 764 275 868 182 794 217 b 563 181 722 219 657 181 b 321 417 436 181 321 271 b 657 754 321 619 463 754 b 829 686 725 754 788 731 l 836 722 b 858 742 838 736 846 742 l 951 742 b 971 718 967 742 975 733 l 892 368 b 967 257 876 301 910 257 b 1132 535 1071 257 1132 389 b 668 947 1132 785 942 947 b 146 424 386 947 146 713 b 576 -1 146 182 314 -1 b 819 46 665 -1 746 17 b 843 21 843 56 850 40 l 833 -3 b 804 -31 828 -19 818 -25 b 561 -75 743 -58 660 -75 b 43 424 253 -75 43 149 b 688 1022 43 729 290 1022 m 596 232 b 757 389 671 232 739 304 l 794 550 b 690 701 807 646 760 701 b 486 397 579 701 490 560 b 596 232 483 282 529 232 "},"&":{"ha":1008,"x_min":0,"x_max":0,"o":"m 976 92 b 1006 69 994 92 1006 85 l 1006 63 b 875 -14 1006 31 946 -14 b 688 81 793 -14 742 21 b 392 -14 608 21 508 -14 b 47 247 175 -14 47 71 b 279 531 47 379 161 468 b 158 768 213 604 158 674 b 435 999 158 907 269 999 b 690 792 588 999 690 915 b 486 547 690 671 582 592 l 728 283 b 786 597 765 374 786 481 b 907 596 786 651 907 654 b 801 203 907 444 871 308 l 829 174 b 942 92 888 110 915 92 l 976 92 m 418 944 b 324 810 361 944 324 890 b 429 610 324 729 369 674 b 532 794 504 660 532 731 b 418 944 532 885 486 944 m 415 36 b 636 138 501 36 576 74 l 335 469 b 213 232 257 414 213 333 b 415 36 213 119 282 36 "},"¶":{"ha":919,"x_min":0,"x_max":0,"o":"m 486 -283 b 165 -51 278 -286 165 -136 b 244 35 165 0 196 35 b 500 -218 381 35 319 -218 b 646 18 576 -218 646 -186 l 646 910 l 522 910 l 522 353 b 496 326 522 336 513 326 l 354 325 b 38 664 178 324 38 460 b 354 986 38 857 178 986 l 824 986 b 854 964 842 986 854 978 l 854 961 b 794 867 854 925 794 928 l 793 93 b 486 -283 793 -158 658 -282 "},"§":{"ha":867,"x_min":0,"x_max":0,"o":"m 713 214 b 801 29 765 175 801 118 b 453 -208 801 -94 661 -208 b 44 32 188 -208 44 -79 b 122 107 44 76 71 107 b 476 -142 231 107 208 -142 b 640 -21 578 -142 640 -86 b 69 422 640 224 65 74 b 175 629 71 533 124 596 b 88 811 122 669 88 725 b 426 1067 88 969 236 1067 b 804 831 658 1067 804 943 b 726 754 804 785 778 754 b 419 997 597 754 635 997 b 249 857 325 997 249 939 b 811 397 249 596 811 769 b 713 214 811 324 772 260 m 229 486 b 614 265 229 331 446 328 b 657 361 642 296 657 321 b 271 576 657 507 438 511 b 229 486 246 554 229 519 "},"©":{"ha":1215,"x_min":0,"x_max":0,"o":"m 608 -83 b 47 476 299 -83 47 167 b 608 1035 47 786 299 1035 b 1168 476 917 1035 1168 785 b 608 -83 1168 167 918 -83 m 608 -4 b 1069 476 863 -4 1069 214 b 608 956 1069 739 863 956 b 146 476 353 956 146 739 b 608 -4 146 213 351 -4 m 615 165 b 293 482 435 165 293 315 b 617 790 293 660 429 792 b 886 611 768 789 886 704 b 819 556 886 582 861 556 b 600 738 707 556 728 738 b 451 535 501 738 451 650 b 672 290 451 392 528 290 b 838 394 757 290 807 336 b 888 371 850 414 890 399 b 615 165 875 260 779 165 "},"®":{"ha":1215,"x_min":0,"x_max":0,"o":"m 608 1035 b 1168 476 917 1035 1168 785 b 608 -85 1168 167 918 -85 b 47 476 299 -85 47 167 b 608 1035 47 786 299 1035 m 608 -3 b 1069 476 863 -3 1069 214 b 608 956 1069 739 863 956 b 146 476 353 956 146 739 b 608 -3 146 213 351 -3 m 846 279 b 886 224 872 236 886 244 l 886 217 b 868 200 886 208 879 200 l 694 200 b 678 214 685 200 678 206 l 678 224 b 696 279 678 244 717 239 l 618 429 l 542 426 l 542 279 b 578 225 542 249 578 243 l 578 214 b 560 200 578 206 571 200 l 383 200 b 365 214 372 200 365 206 l 365 225 b 400 279 365 243 400 249 l 400 719 b 365 775 400 751 365 754 l 365 779 b 383 792 365 788 372 792 l 578 792 b 876 610 764 792 875 732 b 746 449 878 543 829 479 l 846 279 m 542 515 b 576 478 542 490 554 478 l 614 478 b 717 597 678 478 717 525 b 607 742 717 685 679 742 l 571 742 b 542 708 554 742 542 728 l 542 515 "},"™":{"ha":1067,"x_min":0,"x_max":0,"o":"m 419 860 b 353 926 397 860 389 926 l 300 926 l 300 597 b 332 554 300 572 332 569 l 332 550 b 318 539 332 544 326 539 l 171 539 b 157 550 163 539 157 544 l 157 554 b 188 597 157 569 188 572 l 188 926 l 132 926 b 67 860 96 926 88 860 l 54 860 b 42 875 44 860 40 867 l 56 969 b 74 985 57 981 63 985 l 411 985 b 429 969 422 985 428 981 l 443 875 b 432 860 444 867 439 860 m 981 599 b 1008 556 985 574 1008 571 l 1008 550 b 996 539 1008 544 1003 539 l 860 539 b 846 550 850 539 846 544 l 846 556 b 869 599 846 571 874 574 l 824 853 l 739 621 l 740 617 l 738 617 l 717 558 b 693 539 713 546 707 539 b 668 557 682 539 672 546 l 560 854 l 519 597 b 543 554 515 572 543 569 l 543 550 b 531 539 543 544 539 539 l 433 539 b 418 550 425 539 418 544 l 418 554 b 447 597 418 569 444 572 l 500 928 b 476 974 504 954 476 958 l 476 975 b 489 985 476 982 481 985 l 594 985 b 621 968 608 985 617 981 l 710 707 l 797 968 b 824 985 801 979 811 985 l 926 985 b 940 976 933 985 940 983 l 940 971 b 918 925 940 957 914 950 l 981 599 "},"°":{"ha":561,"x_min":0,"x_max":0,"o":"m 279 535 b 42 763 136 535 42 638 b 281 996 42 890 138 996 b 519 769 424 996 519 893 b 279 535 519 640 422 535 m 281 586 b 404 767 354 586 404 658 b 281 943 404 872 354 943 b 156 767 206 943 156 872 b 281 586 156 658 206 586 "},"|":{"ha":324,"x_min":0,"x_max":0,"o":"m 125 -125 b 107 -100 114 -125 107 -115 l 107 963 b 126 988 107 978 115 986 l 196 986 b 215 963 208 986 215 978 l 217 -100 b 197 -125 217 -115 208 -126 l 125 -125 "},"¦":{"ha":324,"x_min":0,"x_max":0,"o":"m 125 490 b 107 514 114 490 107 500 l 107 961 b 126 986 107 976 115 985 l 196 986 b 215 961 208 986 215 976 l 217 514 b 197 490 217 500 208 489 l 125 490 m 125 -125 b 107 -100 114 -125 107 -115 l 107 331 b 126 356 107 344 115 354 l 196 356 b 215 331 208 356 215 346 l 217 -100 b 197 -125 217 -115 208 -126 l 125 -125 "},"†":{"ha":732,"x_min":0,"x_max":0,"o":"m 657 733 b 657 625 719 740 718 618 l 394 649 l 417 -65 b 311 -65 419 -125 310 -122 l 335 649 l 72 625 b 72 733 15 619 14 739 l 333 710 l 299 1065 b 431 1065 289 1144 440 1142 l 396 710 l 657 733 "},"‡":{"ha":740,"x_min":0,"x_max":0,"o":"m 654 433 b 654 325 718 440 715 317 l 407 347 l 421 -65 b 315 -65 422 -125 313 -122 l 329 347 l 82 325 b 82 433 25 318 25 439 l 332 411 l 339 649 l 82 625 b 82 733 25 619 25 739 l 338 710 l 301 1065 b 435 1065 293 1144 444 1142 l 399 710 l 654 733 b 654 625 718 740 715 618 l 397 649 l 406 410 l 654 433 "},"̈":{"ha":0,"x_min":0,"x_max":0,"o":"m -583 786 b -689 882 -646 786 -689 826 b -583 978 -689 938 -646 978 b -481 882 -521 978 -481 938 b -583 786 -481 826 -521 786 m -292 786 b -396 882 -354 786 -396 826 b -292 978 -396 938 -354 978 b -187 882 -231 978 -187 938 b -292 786 -187 826 -231 786 "},"̇":{"ha":0,"x_min":0,"x_max":0,"o":"m -208 782 b -324 886 -278 782 -324 825 b -208 990 -324 946 -278 990 b -96 886 -140 990 -96 946 b -208 782 -96 825 -140 782 "},"̀":{"ha":0,"x_min":0,"x_max":0,"o":"m -640 868 b -664 922 -668 876 -675 899 l -633 983 b -572 996 -621 1008 -599 1015 l -331 817 b -322 775 -318 807 -314 789 b -365 763 -332 760 -349 758 "},"́":{"ha":0,"x_min":0,"x_max":0,"o":"m -493 764 b -536 775 -510 758 -526 761 b -528 817 -544 790 -539 807 l -285 996 b -224 983 -260 1015 -237 1008 l -194 922 b -218 868 -182 900 -190 876 l -493 764 "},"̋":{"ha":0,"x_min":0,"x_max":0,"o":"m -610 754 b -607 792 -619 763 -617 776 l -454 1021 b -397 1032 -437 1047 -417 1051 l -362 1000 b -361 940 -340 981 -339 957 l -572 760 b -610 754 -586 749 -600 746 m -343 754 b -340 790 -353 763 -350 775 l -186 1021 b -129 1032 -169 1047 -150 1051 l -94 999 b -94 939 -72 979 -72 956 l -304 760 b -343 754 -318 749 -332 746 "},"̂":{"ha":0,"x_min":0,"x_max":0,"o":"m -56 813 b -96 763 -24 782 -53 740 l -289 863 l -467 763 b -504 813 -494 747 -539 778 l -351 958 b -301 981 -335 975 -322 981 l -268 981 b -218 958 -247 981 -235 974 l -56 813 "},"̌":{"ha":0,"x_min":0,"x_max":0,"o":"m -93 978 b -53 935 -65 994 -31 956 l -214 782 b -264 761 -231 767 -243 761 l -301 761 b -351 782 -322 761 -335 767 l -507 935 b -467 978 -531 960 -492 992 l -279 869 l -93 978 "},"̆":{"ha":0,"x_min":0,"x_max":0,"o":"m -396 768 b -619 947 -518 768 -606 851 b -560 969 -625 985 -571 992 b -396 879 -539 913 -471 879 b -231 969 -319 879 -251 913 b -171 947 -219 990 -167 982 b -396 768 -183 851 -269 768 "},"̊":{"ha":0,"x_min":0,"x_max":0,"o":"m -426 744 b -603 888 -529 744 -603 808 b -425 1035 -603 974 -531 1035 b -247 893 -322 1035 -247 974 b -426 744 -247 807 -318 744 m -425 796 b -347 890 -381 796 -347 829 b -425 981 -347 944 -381 981 b -503 890 -469 981 -503 951 b -425 796 -503 836 -469 796 "},"̃":{"ha":0,"x_min":0,"x_max":0,"o":"m -587 989 b -371 914 -496 989 -431 914 b -306 951 -339 914 -318 928 b -279 969 -299 965 -290 969 l -268 969 b -251 943 -254 969 -247 960 b -393 800 -275 846 -326 800 b -610 876 -479 800 -543 876 b -674 839 -639 876 -658 863 b -701 817 -683 824 -686 817 l -715 817 b -732 843 -726 817 -735 826 b -587 989 -718 921 -669 989 "},"̄":{"ha":0,"x_min":0,"x_max":0,"o":"m -600 821 b -628 846 -618 821 -628 831 l -628 900 b -600 925 -628 917 -618 925 l -226 925 b -199 900 -208 925 -199 917 l -199 846 b -226 821 -199 831 -208 821 l -600 821 "},"̒":{"ha":0,"x_min":0,"x_max":0,"o":"m -242 564 b -272 599 -264 550 -292 578 b -199 715 -224 646 -204 675 b -211 738 -196 728 -199 738 b -287 831 -254 738 -287 775 b -189 936 -287 892 -249 936 b -86 817 -133 936 -86 892 b -242 564 -86 721 -137 633 "},"̦":{"ha":0,"x_min":0,"x_max":0,"o":"m -449 -429 b -479 -396 -471 -442 -499 -415 b -407 -282 -431 -349 -412 -321 b -419 -260 -404 -269 -407 -260 b -493 -168 -461 -260 -493 -222 b -397 -67 -493 -110 -456 -67 b -297 -183 -343 -67 -297 -110 b -449 -429 -297 -275 -347 -362 "},"̧":{"ha":0,"x_min":0,"x_max":0,"o":"m -364 -76 b -204 -182 -285 -75 -204 -108 b -379 -293 -204 -254 -286 -293 b -496 -268 -432 -293 -469 -281 b -487 -208 -526 -253 -514 -193 b -404 -229 -471 -218 -433 -229 b -328 -176 -364 -229 -326 -214 b -411 -131 -329 -135 -378 -131 b -446 -89 -435 -131 -450 -114 l -429 0 l -361 0 l -364 -76 "},"̨":{"ha":0,"x_min":0,"x_max":0,"o":"m -364 -303 b -506 -187 -432 -303 -506 -268 b -353 3 -506 -119 -443 -50 l -297 3 b -387 -165 -350 -51 -387 -117 b -337 -232 -387 -211 -365 -232 b -304 -225 -326 -232 -317 -229 b -294 -289 -269 -212 -260 -275 b -364 -303 -310 -297 -337 -303 "},"̵":{"ha":0,"x_min":0,"x_max":0,"o":"m -565 369 b -586 388 -578 369 -586 374 l -586 418 b -565 438 -586 432 -578 438 l -156 438 b -133 418 -142 438 -133 429 l -133 390 b -156 369 -133 375 -142 369 l -565 369 "},"̶":{"ha":0,"x_min":0,"x_max":0,"o":"m -956 361 b -981 382 -969 361 -981 369 l -981 407 b -956 428 -981 421 -969 428 l 14 428 b 42 407 29 428 42 421 l 42 382 b 14 361 42 369 29 361 l -956 361 "},"̷":{"ha":0,"x_min":0,"x_max":0,"o":"m -603 229 b -629 233 -614 222 -622 225 l -649 264 b -642 292 -657 275 -653 283 l -279 531 b -246 528 -267 540 -253 539 l -228 499 b -236 469 -222 490 -224 478 l -603 229 "},"̸":{"ha":0,"x_min":0,"x_max":0,"o":"m -793 51 b -789 81 -801 60 -800 71 l -135 710 b -101 713 -125 719 -111 721 l -82 693 b -85 663 -74 685 -75 672 l -744 29 b -769 29 -753 21 -761 21 "},"´":{"ha":644,"x_min":0,"x_max":0,"o":"m 172 764 b 129 775 156 758 139 761 b 138 817 121 790 126 807 l 381 996 b 442 983 406 1015 428 1008 l 471 922 b 447 868 483 900 475 876 l 172 764 "},"˘":{"ha":833,"x_min":0,"x_max":0,"o":"m 307 768 b 83 947 185 768 97 851 b 143 969 78 985 132 992 b 307 879 164 913 232 879 b 472 969 383 879 451 913 b 532 947 483 990 536 982 b 307 768 519 851 433 768 "},"ˇ":{"ha":833,"x_min":0,"x_max":0,"o":"m 465 978 b 506 935 493 994 528 956 l 344 782 b 294 761 328 767 315 761 l 257 761 b 207 782 236 761 224 767 l 51 935 b 92 978 28 960 67 992 l 279 869 l 465 978 "},"¸":{"ha":833,"x_min":0,"x_max":0,"o":"m 469 -76 b 629 -182 549 -75 629 -108 b 454 -293 629 -254 547 -293 b 338 -268 401 -293 364 -281 b 346 -208 307 -253 319 -193 b 429 -229 363 -218 400 -229 b 506 -176 469 -229 507 -214 b 422 -131 504 -135 456 -131 b 388 -89 399 -131 383 -114 l 404 0 l 472 0 l 469 -76 "},"ˆ":{"ha":833,"x_min":0,"x_max":0,"o":"m 503 813 b 463 763 535 782 506 740 l 269 863 l 92 763 b 54 813 64 747 19 778 l 207 958 b 257 981 224 975 236 981 l 290 981 b 340 958 311 981 324 974 l 503 813 "},"¨":{"ha":833,"x_min":0,"x_max":0,"o":"m 250 786 b 144 882 188 786 144 826 b 250 978 144 938 188 978 b 353 882 313 978 353 938 b 250 786 353 826 313 786 m 542 786 b 438 882 479 786 438 826 b 542 978 438 938 479 978 b 646 882 603 978 646 938 b 542 786 646 826 603 786 "},"˙":{"ha":833,"x_min":0,"x_max":0,"o":"m 207 782 b 92 886 138 782 92 825 b 207 990 92 946 138 990 b 319 886 275 990 319 946 b 207 782 319 825 275 782 "},"`":{"ha":833,"x_min":0,"x_max":0,"o":"m 193 868 b 169 922 165 876 158 899 l 200 983 b 261 996 213 1008 235 1015 l 503 817 b 511 775 515 807 519 789 b 468 763 501 760 485 758 "},"˝":{"ha":833,"x_min":0,"x_max":0,"o":"m 81 754 b 83 792 71 763 74 776 l 236 1021 b 293 1032 253 1047 274 1051 l 328 1000 b 329 940 350 981 351 957 l 118 760 b 81 754 104 749 90 746 m 347 754 b 350 790 338 763 340 775 l 504 1021 b 561 1032 521 1047 540 1051 l 596 999 b 596 939 618 979 618 956 l 386 760 b 347 754 372 749 358 746 "},"¯":{"ha":833,"x_min":0,"x_max":0,"o":"m 233 828 b 206 853 215 828 206 838 l 206 907 b 233 932 206 924 215 932 l 607 932 b 635 907 625 932 635 924 l 635 853 b 607 828 635 838 625 828 l 233 828 "},"˛":{"ha":833,"x_min":0,"x_max":0,"o":"m 469 -303 b 328 -187 401 -303 328 -268 b 481 3 328 -119 390 -50 l 536 3 b 446 -165 483 -51 446 -117 b 496 -232 446 -211 468 -232 b 529 -225 507 -232 517 -229 b 539 -289 564 -212 574 -275 b 469 -303 524 -297 496 -303 "},"˚":{"ha":833,"x_min":0,"x_max":0,"o":"m 294 744 b 118 888 192 744 118 808 b 296 1035 118 974 190 1035 b 474 893 399 1035 474 974 b 294 744 474 807 403 744 m 296 796 b 374 890 340 796 374 829 b 296 981 374 944 340 981 b 218 890 251 981 218 951 b 296 796 218 836 251 796 "},"˜":{"ha":833,"x_min":0,"x_max":0,"o":"m 246 989 b 463 914 338 989 403 914 b 528 951 494 914 515 928 b 554 969 535 965 543 969 l 565 969 b 582 943 579 969 586 960 b 440 800 558 846 507 800 b 224 876 354 800 290 876 b 160 839 194 876 175 863 b 132 817 150 824 147 817 l 118 817 b 101 843 107 817 99 826 b 246 989 115 921 164 989 "}}}
